<?xml version="1.0" encoding="utf-8" standalone="no"?>
<!DOCTYPE svg PUBLIC "-//W3C//DTD SVG 1.1//EN"
  "http://www.w3.org/Graphics/SVG/1.1/DTD/svg11.dtd">
<svg xmlns:xlink="http://www.w3.org/1999/xlink" width="1317.6pt" height="2635.753846pt" viewBox="0 0 1317.6 2635.753846" xmlns="http://www.w3.org/2000/svg" version="1.1">
 <metadata>
  <rdf:RDF xmlns:dc="http://purl.org/dc/elements/1.1/" xmlns:cc="http://creativecommons.org/ns#" xmlns:rdf="http://www.w3.org/1999/02/22-rdf-syntax-ns#">
   <cc:Work>
    <dc:type rdf:resource="http://purl.org/dc/dcmitype/StillImage"/>
    <dc:date>2026-02-20T12:15:05.940927</dc:date>
    <dc:format>image/svg+xml</dc:format>
    <dc:creator>
     <cc:Agent>
      <dc:title>Matplotlib v3.9.4, https://matplotlib.org/</dc:title>
     </cc:Agent>
    </dc:creator>
   </cc:Work>
  </rdf:RDF>
 </metadata>
 <defs>
  <style type="text/css">*{stroke-linejoin: round; stroke-linecap: butt}</style>
 </defs>
 <g id="figure_1">
  <g id="patch_1">
   <path d="M 0 2635.753846 
L 1317.6 2635.753846 
L 1317.6 0 
L 0 0 
z
" style="fill: #ffffff"/>
  </g>
  <g id="axes_1">
   <g id="text_1">
    <!-- Process Map: Photosynthesis -->
    <g transform="translate(262.4775 101.048123) scale(0.48 -0.48)">
     <defs>
      <path id="DejaVuSans-Bold-50" d="M 588 4666 
L 2584 4666 
Q 3475 4666 3951 4270 
Q 4428 3875 4428 3144 
Q 4428 2409 3951 2014 
Q 3475 1619 2584 1619 
L 1791 1619 
L 1791 0 
L 588 0 
L 588 4666 
z
M 1791 3794 
L 1791 2491 
L 2456 2491 
Q 2806 2491 2997 2661 
Q 3188 2831 3188 3144 
Q 3188 3456 2997 3625 
Q 2806 3794 2456 3794 
L 1791 3794 
z
" transform="scale(0.015625)"/>
      <path id="DejaVuSans-Bold-72" d="M 3138 2547 
Q 2991 2616 2845 2648 
Q 2700 2681 2553 2681 
Q 2122 2681 1889 2404 
Q 1656 2128 1656 1613 
L 1656 0 
L 538 0 
L 538 3500 
L 1656 3500 
L 1656 2925 
Q 1872 3269 2151 3426 
Q 2431 3584 2822 3584 
Q 2878 3584 2943 3579 
Q 3009 3575 3134 3559 
L 3138 2547 
z
" transform="scale(0.015625)"/>
      <path id="DejaVuSans-Bold-6f" d="M 2203 2784 
Q 1831 2784 1636 2517 
Q 1441 2250 1441 1747 
Q 1441 1244 1636 976 
Q 1831 709 2203 709 
Q 2569 709 2762 976 
Q 2956 1244 2956 1747 
Q 2956 2250 2762 2517 
Q 2569 2784 2203 2784 
z
M 2203 3584 
Q 3106 3584 3614 3096 
Q 4122 2609 4122 1747 
Q 4122 884 3614 396 
Q 3106 -91 2203 -91 
Q 1297 -91 786 396 
Q 275 884 275 1747 
Q 275 2609 786 3096 
Q 1297 3584 2203 3584 
z
" transform="scale(0.015625)"/>
      <path id="DejaVuSans-Bold-63" d="M 3366 3391 
L 3366 2478 
Q 3138 2634 2908 2709 
Q 2678 2784 2431 2784 
Q 1963 2784 1702 2511 
Q 1441 2238 1441 1747 
Q 1441 1256 1702 982 
Q 1963 709 2431 709 
Q 2694 709 2930 787 
Q 3166 866 3366 1019 
L 3366 103 
Q 3103 6 2833 -42 
Q 2563 -91 2291 -91 
Q 1344 -91 809 395 
Q 275 881 275 1747 
Q 275 2613 809 3098 
Q 1344 3584 2291 3584 
Q 2566 3584 2833 3536 
Q 3100 3488 3366 3391 
z
" transform="scale(0.015625)"/>
      <path id="DejaVuSans-Bold-65" d="M 4031 1759 
L 4031 1441 
L 1416 1441 
Q 1456 1047 1700 850 
Q 1944 653 2381 653 
Q 2734 653 3104 758 
Q 3475 863 3866 1075 
L 3866 213 
Q 3469 63 3072 -14 
Q 2675 -91 2278 -91 
Q 1328 -91 801 392 
Q 275 875 275 1747 
Q 275 2603 792 3093 
Q 1309 3584 2216 3584 
Q 3041 3584 3536 3087 
Q 4031 2591 4031 1759 
z
M 2881 2131 
Q 2881 2450 2695 2645 
Q 2509 2841 2209 2841 
Q 1884 2841 1681 2658 
Q 1478 2475 1428 2131 
L 2881 2131 
z
" transform="scale(0.015625)"/>
      <path id="DejaVuSans-Bold-73" d="M 3272 3391 
L 3272 2541 
Q 2913 2691 2578 2766 
Q 2244 2841 1947 2841 
Q 1628 2841 1473 2761 
Q 1319 2681 1319 2516 
Q 1319 2381 1436 2309 
Q 1553 2238 1856 2203 
L 2053 2175 
Q 2913 2066 3209 1816 
Q 3506 1566 3506 1031 
Q 3506 472 3093 190 
Q 2681 -91 1863 -91 
Q 1516 -91 1145 -36 
Q 775 19 384 128 
L 384 978 
Q 719 816 1070 734 
Q 1422 653 1784 653 
Q 2113 653 2278 743 
Q 2444 834 2444 1013 
Q 2444 1163 2330 1236 
Q 2216 1309 1875 1350 
L 1678 1375 
Q 931 1469 631 1722 
Q 331 1975 331 2491 
Q 331 3047 712 3315 
Q 1094 3584 1881 3584 
Q 2191 3584 2531 3537 
Q 2872 3491 3272 3391 
z
" transform="scale(0.015625)"/>
      <path id="DejaVuSans-Bold-20" transform="scale(0.015625)"/>
      <path id="DejaVuSans-Bold-4d" d="M 588 4666 
L 2119 4666 
L 3181 2169 
L 4250 4666 
L 5778 4666 
L 5778 0 
L 4641 0 
L 4641 3413 
L 3566 897 
L 2803 897 
L 1728 3413 
L 1728 0 
L 588 0 
L 588 4666 
z
" transform="scale(0.015625)"/>
      <path id="DejaVuSans-Bold-61" d="M 2106 1575 
Q 1756 1575 1579 1456 
Q 1403 1338 1403 1106 
Q 1403 894 1545 773 
Q 1688 653 1941 653 
Q 2256 653 2472 879 
Q 2688 1106 2688 1447 
L 2688 1575 
L 2106 1575 
z
M 3816 1997 
L 3816 0 
L 2688 0 
L 2688 519 
Q 2463 200 2181 54 
Q 1900 -91 1497 -91 
Q 953 -91 614 226 
Q 275 544 275 1050 
Q 275 1666 698 1953 
Q 1122 2241 2028 2241 
L 2688 2241 
L 2688 2328 
Q 2688 2594 2478 2717 
Q 2269 2841 1825 2841 
Q 1466 2841 1156 2769 
Q 847 2697 581 2553 
L 581 3406 
Q 941 3494 1303 3539 
Q 1666 3584 2028 3584 
Q 2975 3584 3395 3211 
Q 3816 2838 3816 1997 
z
" transform="scale(0.015625)"/>
      <path id="DejaVuSans-Bold-70" d="M 1656 506 
L 1656 -1331 
L 538 -1331 
L 538 3500 
L 1656 3500 
L 1656 2988 
Q 1888 3294 2169 3439 
Q 2450 3584 2816 3584 
Q 3463 3584 3878 3070 
Q 4294 2556 4294 1747 
Q 4294 938 3878 423 
Q 3463 -91 2816 -91 
Q 2450 -91 2169 54 
Q 1888 200 1656 506 
z
M 2400 2772 
Q 2041 2772 1848 2508 
Q 1656 2244 1656 1747 
Q 1656 1250 1848 986 
Q 2041 722 2400 722 
Q 2759 722 2948 984 
Q 3138 1247 3138 1747 
Q 3138 2247 2948 2509 
Q 2759 2772 2400 2772 
z
" transform="scale(0.015625)"/>
      <path id="DejaVuSans-Bold-3a" d="M 716 3500 
L 1844 3500 
L 1844 2291 
L 716 2291 
L 716 3500 
z
M 716 1209 
L 1844 1209 
L 1844 0 
L 716 0 
L 716 1209 
z
" transform="scale(0.015625)"/>
      <path id="DejaVuSans-Bold-68" d="M 4056 2131 
L 4056 0 
L 2931 0 
L 2931 347 
L 2931 1625 
Q 2931 2084 2911 2256 
Q 2891 2428 2841 2509 
Q 2775 2619 2662 2680 
Q 2550 2741 2406 2741 
Q 2056 2741 1856 2470 
Q 1656 2200 1656 1722 
L 1656 0 
L 538 0 
L 538 4863 
L 1656 4863 
L 1656 2988 
Q 1909 3294 2193 3439 
Q 2478 3584 2822 3584 
Q 3428 3584 3742 3212 
Q 4056 2841 4056 2131 
z
" transform="scale(0.015625)"/>
      <path id="DejaVuSans-Bold-74" d="M 1759 4494 
L 1759 3500 
L 2913 3500 
L 2913 2700 
L 1759 2700 
L 1759 1216 
Q 1759 972 1856 886 
Q 1953 800 2241 800 
L 2816 800 
L 2816 0 
L 1856 0 
Q 1194 0 917 276 
Q 641 553 641 1216 
L 641 2700 
L 84 2700 
L 84 3500 
L 641 3500 
L 641 4494 
L 1759 4494 
z
" transform="scale(0.015625)"/>
      <path id="DejaVuSans-Bold-79" d="M 78 3500 
L 1197 3500 
L 2138 1125 
L 2938 3500 
L 4056 3500 
L 2584 -331 
Q 2363 -916 2067 -1148 
Q 1772 -1381 1288 -1381 
L 641 -1381 
L 641 -647 
L 991 -647 
Q 1275 -647 1404 -556 
Q 1534 -466 1606 -231 
L 1638 -134 
L 78 3500 
z
" transform="scale(0.015625)"/>
      <path id="DejaVuSans-Bold-6e" d="M 4056 2131 
L 4056 0 
L 2931 0 
L 2931 347 
L 2931 1631 
Q 2931 2084 2911 2256 
Q 2891 2428 2841 2509 
Q 2775 2619 2662 2680 
Q 2550 2741 2406 2741 
Q 2056 2741 1856 2470 
Q 1656 2200 1656 1722 
L 1656 0 
L 538 0 
L 538 3500 
L 1656 3500 
L 1656 2988 
Q 1909 3294 2193 3439 
Q 2478 3584 2822 3584 
Q 3428 3584 3742 3212 
Q 4056 2841 4056 2131 
z
" transform="scale(0.015625)"/>
      <path id="DejaVuSans-Bold-69" d="M 538 3500 
L 1656 3500 
L 1656 0 
L 538 0 
L 538 3500 
z
M 538 4863 
L 1656 4863 
L 1656 3950 
L 538 3950 
L 538 4863 
z
" transform="scale(0.015625)"/>
     </defs>
     <use xlink:href="#DejaVuSans-Bold-50"/>
     <use xlink:href="#DejaVuSans-Bold-72" x="73.291016"/>
     <use xlink:href="#DejaVuSans-Bold-6f" x="122.607422"/>
     <use xlink:href="#DejaVuSans-Bold-63" x="191.308594"/>
     <use xlink:href="#DejaVuSans-Bold-65" x="250.585938"/>
     <use xlink:href="#DejaVuSans-Bold-73" x="318.408203"/>
     <use xlink:href="#DejaVuSans-Bold-73" x="377.929688"/>
     <use xlink:href="#DejaVuSans-Bold-20" x="437.451172"/>
     <use xlink:href="#DejaVuSans-Bold-4d" x="472.265625"/>
     <use xlink:href="#DejaVuSans-Bold-61" x="571.777344"/>
     <use xlink:href="#DejaVuSans-Bold-70" x="639.257812"/>
     <use xlink:href="#DejaVuSans-Bold-3a" x="710.839844"/>
     <use xlink:href="#DejaVuSans-Bold-20" x="750.830078"/>
     <use xlink:href="#DejaVuSans-Bold-50" x="785.644531"/>
     <use xlink:href="#DejaVuSans-Bold-68" x="858.935547"/>
     <use xlink:href="#DejaVuSans-Bold-6f" x="930.126953"/>
     <use xlink:href="#DejaVuSans-Bold-74" x="998.828125"/>
     <use xlink:href="#DejaVuSans-Bold-6f" x="1046.630859"/>
     <use xlink:href="#DejaVuSans-Bold-73" x="1115.332031"/>
     <use xlink:href="#DejaVuSans-Bold-79" x="1174.853516"/>
     <use xlink:href="#DejaVuSans-Bold-6e" x="1240.039062"/>
     <use xlink:href="#DejaVuSans-Bold-74" x="1311.230469"/>
     <use xlink:href="#DejaVuSans-Bold-68" x="1359.033203"/>
     <use xlink:href="#DejaVuSans-Bold-65" x="1430.224609"/>
     <use xlink:href="#DejaVuSans-Bold-73" x="1498.046875"/>
     <use xlink:href="#DejaVuSans-Bold-69" x="1557.568359"/>
     <use xlink:href="#DejaVuSans-Bold-73" x="1591.845703"/>
    </g>
   </g>
   <g id="line2d_1">
    <path d="M 658.8 240.689057 
L 658.8 270.564838 
" clip-path="url(#pe6dcd6c53a)" style="fill: none; stroke: #424242; stroke-width: 3; stroke-linecap: square"/>
   </g>
   <g id="line2d_2">
    <path d="M 658.8 336.955461 
L 658.8 529.488269 
" clip-path="url(#pe6dcd6c53a)" style="fill: none; stroke: #424242; stroke-width: 3; stroke-linecap: square"/>
   </g>
   <g id="line2d_3">
    <path d="M 658.8 595.878893 
L 658.8 788.411701 
" clip-path="url(#pe6dcd6c53a)" style="fill: none; stroke: #424242; stroke-width: 3; stroke-linecap: square"/>
   </g>
   <g id="line2d_4">
    <path d="M 658.8 854.802324 
L 658.8 1113.725756 
" clip-path="url(#pe6dcd6c53a)" style="fill: none; stroke: #424242; stroke-width: 3; stroke-linecap: square"/>
   </g>
   <g id="line2d_5">
    <path d="M 658.8 1180.116379 
L 658.8 1439.039811 
" clip-path="url(#pe6dcd6c53a)" style="fill: none; stroke: #424242; stroke-width: 3; stroke-linecap: square"/>
   </g>
   <g id="line2d_6">
    <path d="M 658.8 1505.430434 
L 658.8 1697.963242 
" clip-path="url(#pe6dcd6c53a)" style="fill: none; stroke: #424242; stroke-width: 3; stroke-linecap: square"/>
   </g>
   <g id="line2d_7">
    <path d="M 658.8 1764.353866 
L 658.8 2023.277297 
" clip-path="url(#pe6dcd6c53a)" style="fill: none; stroke: #424242; stroke-width: 3; stroke-linecap: square"/>
   </g>
   <g id="line2d_8">
    <path d="M 658.8 2089.667921 
L 658.8 2282.200729 
" clip-path="url(#pe6dcd6c53a)" style="fill: none; stroke: #424242; stroke-width: 3; stroke-linecap: square"/>
   </g>
   <g id="patch_2">
    <path d="M 510.12 303.76015 
L 446.4 303.76015 
L 446.4 403.346085 
L 425.16 403.346085 
" clip-path="url(#pe6dcd6c53a)" style="fill: none; opacity: 0.85; stroke: #616161; stroke-width: 2.2; stroke-linejoin: miter"/>
   </g>
   <g id="patch_3">
    <path d="M 510.12 562.683581 
L 446.4 562.683581 
L 446.4 662.269516 
L 425.16 662.269516 
" clip-path="url(#pe6dcd6c53a)" style="fill: none; opacity: 0.85; stroke: #616161; stroke-width: 2.2; stroke-linejoin: miter"/>
   </g>
   <g id="patch_4">
    <path d="M 510.12 821.607013 
L 446.4 821.607013 
L 446.4 921.192948 
L 425.16 921.192948 
" clip-path="url(#pe6dcd6c53a)" style="fill: none; opacity: 0.85; stroke: #616161; stroke-width: 2.2; stroke-linejoin: miter"/>
   </g>
   <g id="patch_5">
    <path d="M 510.12 821.607013 
L 446.4 821.607013 
L 446.4 987.583571 
L 425.16 987.583571 
" clip-path="url(#pe6dcd6c53a)" style="fill: none; opacity: 0.85; stroke: #616161; stroke-width: 2.2; stroke-linejoin: miter"/>
   </g>
   <g id="patch_6">
    <path d="M 807.48 821.607013 
L 871.2 821.607013 
L 871.2 921.192948 
L 892.44 921.192948 
" clip-path="url(#pe6dcd6c53a)" style="fill: none; opacity: 0.85; stroke: #616161; stroke-width: 2.2; stroke-linejoin: miter"/>
   </g>
   <g id="patch_7">
    <path d="M 510.12 1146.921068 
L 446.4 1146.921068 
L 446.4 1246.507003 
L 425.16 1246.507003 
" clip-path="url(#pe6dcd6c53a)" style="fill: none; opacity: 0.85; stroke: #616161; stroke-width: 2.2; stroke-linejoin: miter"/>
   </g>
   <g id="patch_8">
    <path d="M 510.12 1146.921068 
L 446.4 1146.921068 
L 446.4 1312.897626 
L 425.16 1312.897626 
" clip-path="url(#pe6dcd6c53a)" style="fill: none; opacity: 0.85; stroke: #616161; stroke-width: 2.2; stroke-linejoin: miter"/>
   </g>
   <g id="patch_9">
    <path d="M 807.48 1146.921068 
L 871.2 1146.921068 
L 871.2 1246.507003 
L 892.44 1246.507003 
" clip-path="url(#pe6dcd6c53a)" style="fill: none; opacity: 0.85; stroke: #616161; stroke-width: 2.2; stroke-linejoin: miter"/>
   </g>
   <g id="patch_10">
    <path d="M 807.48 1146.921068 
L 871.2 1146.921068 
L 871.2 1312.897626 
L 892.44 1312.897626 
" clip-path="url(#pe6dcd6c53a)" style="fill: none; opacity: 0.85; stroke: #616161; stroke-width: 2.2; stroke-linejoin: miter"/>
   </g>
   <g id="patch_11">
    <path d="M 510.12 1472.235123 
L 446.4 1472.235123 
L 446.4 1571.821058 
L 425.16 1571.821058 
" clip-path="url(#pe6dcd6c53a)" style="fill: none; opacity: 0.85; stroke: #616161; stroke-width: 2.2; stroke-linejoin: miter"/>
   </g>
   <g id="patch_12">
    <path d="M 807.48 1472.235123 
L 871.2 1472.235123 
L 871.2 1571.821058 
L 892.44 1571.821058 
" clip-path="url(#pe6dcd6c53a)" style="fill: none; opacity: 0.85; stroke: #616161; stroke-width: 2.2; stroke-linejoin: miter"/>
   </g>
   <g id="patch_13">
    <path d="M 510.12 1731.158554 
L 446.4 1731.158554 
L 446.4 1830.744489 
L 425.16 1830.744489 
" clip-path="url(#pe6dcd6c53a)" style="fill: none; opacity: 0.85; stroke: #616161; stroke-width: 2.2; stroke-linejoin: miter"/>
   </g>
   <g id="patch_14">
    <path d="M 510.12 1731.158554 
L 446.4 1731.158554 
L 446.4 1897.135113 
L 425.16 1897.135113 
" clip-path="url(#pe6dcd6c53a)" style="fill: none; opacity: 0.85; stroke: #616161; stroke-width: 2.2; stroke-linejoin: miter"/>
   </g>
   <g id="patch_15">
    <path d="M 807.48 1731.158554 
L 871.2 1731.158554 
L 871.2 1830.744489 
L 892.44 1830.744489 
" clip-path="url(#pe6dcd6c53a)" style="fill: none; opacity: 0.85; stroke: #616161; stroke-width: 2.2; stroke-linejoin: miter"/>
   </g>
   <g id="patch_16">
    <path d="M 510.12 2056.472609 
L 446.4 2056.472609 
L 446.4 2156.058544 
L 425.16 2156.058544 
" clip-path="url(#pe6dcd6c53a)" style="fill: none; opacity: 0.85; stroke: #616161; stroke-width: 2.2; stroke-linejoin: miter"/>
   </g>
   <g id="patch_17">
    <path d="M 510.12 2315.396041 
L 446.4 2315.396041 
L 446.4 2414.981976 
L 425.16 2414.981976 
" clip-path="url(#pe6dcd6c53a)" style="fill: none; opacity: 0.85; stroke: #616161; stroke-width: 2.2; stroke-linejoin: miter"/>
   </g>
   <g id="patch_18">
    <path d="M 807.48 2315.396041 
L 871.2 2315.396041 
L 871.2 2414.981976 
L 892.44 2414.981976 
" clip-path="url(#pe6dcd6c53a)" style="fill: none; opacity: 0.85; stroke: #616161; stroke-width: 2.2; stroke-linejoin: miter"/>
   </g>
   <g id="patch_19">
    <path d="M 382.68 2483.032365 
L 934.92 2483.032365 
Q 939.168 2483.032365 939.168 2479.712834 
L 939.168 2449.837053 
Q 939.168 2446.517522 934.92 2446.517522 
L 382.68 2446.517522 
Q 378.432 2446.517522 378.432 2449.837053 
L 378.432 2479.712834 
Q 378.432 2483.032365 382.68 2483.032365 
z
" clip-path="url(#pe6dcd6c53a)" style="fill: #ffeb3b; stroke-dasharray: 7.4,3.2; stroke-dashoffset: 0; stroke: #f57f17; stroke-width: 2; stroke-linejoin: miter"/>
   </g>
   <g id="patch_20">
    <path d="M 127.8 453.802959 
L 425.16 453.802959 
Q 431.532 453.802959 431.532 448.823662 
L 431.532 357.868508 
Q 431.532 352.889211 425.16 352.889211 
L 127.8 352.889211 
Q 121.428 352.889211 121.428 357.868508 
L 121.428 448.823662 
Q 121.428 453.802959 127.8 453.802959 
z
" clip-path="url(#pe6dcd6c53a)" style="fill: #ffc107; stroke: #f57c00; stroke-width: 2; stroke-linejoin: miter"/>
   </g>
   <g id="patch_21">
    <path d="M 127.8 704.759515 
L 425.16 704.759515 
Q 431.532 704.759515 431.532 699.780219 
L 431.532 624.758814 
Q 431.532 619.779517 425.16 619.779517 
L 127.8 619.779517 
Q 121.428 619.779517 121.428 624.758814 
L 121.428 699.780219 
Q 121.428 704.759515 127.8 704.759515 
z
" clip-path="url(#pe6dcd6c53a)" style="fill: #ffc107; stroke: #f57c00; stroke-width: 2; stroke-linejoin: miter"/>
   </g>
   <g id="patch_22">
    <path d="M 127.8 951.068728 
L 425.16 951.068728 
Q 431.532 951.068728 431.532 946.089432 
L 431.532 896.296464 
Q 431.532 891.317167 425.16 891.317167 
L 127.8 891.317167 
Q 121.428 891.317167 121.428 896.296464 
L 121.428 946.089432 
Q 121.428 951.068728 127.8 951.068728 
z
" clip-path="url(#pe6dcd6c53a)" style="fill: #ffc107; stroke: #f57c00; stroke-width: 2; stroke-linejoin: miter"/>
   </g>
   <g id="patch_23">
    <path d="M 127.8 1022.106696 
L 425.16 1022.106696 
Q 431.532 1022.106696 431.532 1017.127399 
L 431.532 958.039744 
Q 431.532 953.060447 425.16 953.060447 
L 127.8 953.060447 
Q 121.428 953.060447 121.428 958.039744 
L 121.428 1017.127399 
Q 121.428 1022.106696 127.8 1022.106696 
z
" clip-path="url(#pe6dcd6c53a)" style="fill: #ffc107; stroke: #f57c00; stroke-width: 2; stroke-linejoin: miter"/>
   </g>
   <g id="patch_24">
    <path d="M 892.44 955.716072 
L 1189.8 955.716072 
Q 1196.172 955.716072 1196.172 950.736775 
L 1196.172 891.64912 
Q 1196.172 886.669824 1189.8 886.669824 
L 892.44 886.669824 
Q 886.068 886.669824 886.068 891.64912 
L 886.068 950.736775 
Q 886.068 955.716072 892.44 955.716072 
z
" clip-path="url(#pe6dcd6c53a)" style="fill: #ffc107; stroke: #f57c00; stroke-width: 2; stroke-linejoin: miter"/>
   </g>
   <g id="patch_25">
    <path d="M 127.8 1288.997002 
L 425.16 1288.997002 
Q 431.532 1288.997002 431.532 1284.017705 
L 431.532 1208.996301 
Q 431.532 1204.017004 425.16 1204.017004 
L 127.8 1204.017004 
Q 121.428 1204.017004 121.428 1208.996301 
L 121.428 1284.017705 
Q 121.428 1288.997002 127.8 1288.997002 
z
" clip-path="url(#pe6dcd6c53a)" style="fill: #ff9800; stroke: #e65100; stroke-width: 2; stroke-linejoin: miter"/>
   </g>
   <g id="patch_26">
    <path d="M 127.8 1342.773407 
L 425.16 1342.773407 
Q 431.532 1342.773407 431.532 1337.79411 
L 431.532 1288.001143 
Q 431.532 1283.021846 425.16 1283.021846 
L 127.8 1283.021846 
Q 121.428 1283.021846 121.428 1288.001143 
L 121.428 1337.79411 
Q 121.428 1342.773407 127.8 1342.773407 
z
" clip-path="url(#pe6dcd6c53a)" style="fill: #ff9800; stroke: #e65100; stroke-width: 2; stroke-linejoin: miter"/>
   </g>
   <g id="patch_27">
    <path d="M 892.44 1281.030127 
L 1189.8 1281.030127 
Q 1196.172 1281.030127 1196.172 1276.05083 
L 1196.172 1216.963175 
Q 1196.172 1211.983879 1189.8 1211.983879 
L 892.44 1211.983879 
Q 886.068 1211.983879 886.068 1216.963175 
L 886.068 1276.05083 
Q 886.068 1281.030127 892.44 1281.030127 
z
" clip-path="url(#pe6dcd6c53a)" style="fill: #ff9800; stroke: #e65100; stroke-width: 2; stroke-linejoin: miter"/>
   </g>
   <g id="patch_28">
    <path d="M 892.44 1347.420751 
L 1189.8 1347.420751 
Q 1196.172 1347.420751 1196.172 1342.441454 
L 1196.172 1283.353799 
Q 1196.172 1278.374502 1189.8 1278.374502 
L 892.44 1278.374502 
Q 886.068 1278.374502 886.068 1283.353799 
L 886.068 1342.441454 
Q 886.068 1347.420751 892.44 1347.420751 
z
" clip-path="url(#pe6dcd6c53a)" style="fill: #ff9800; stroke: #e65100; stroke-width: 2; stroke-linejoin: miter"/>
   </g>
   <g id="patch_29">
    <path d="M 127.8 1601.696838 
L 425.16 1601.696838 
Q 431.532 1601.696838 431.532 1596.717542 
L 431.532 1546.924574 
Q 431.532 1541.945277 425.16 1541.945277 
L 127.8 1541.945277 
Q 121.428 1541.945277 121.428 1546.924574 
L 121.428 1596.717542 
Q 121.428 1601.696838 127.8 1601.696838 
z
" clip-path="url(#pe6dcd6c53a)" style="fill: #ffc107; stroke: #f57c00; stroke-width: 2; stroke-linejoin: miter"/>
   </g>
   <g id="patch_30">
    <path d="M 892.44 1601.696838 
L 1189.8 1601.696838 
Q 1196.172 1601.696838 1196.172 1596.717542 
L 1196.172 1546.924574 
Q 1196.172 1541.945277 1189.8 1541.945277 
L 892.44 1541.945277 
Q 886.068 1541.945277 886.068 1546.924574 
L 886.068 1596.717542 
Q 886.068 1601.696838 892.44 1601.696838 
z
" clip-path="url(#pe6dcd6c53a)" style="fill: #ffc107; stroke: #f57c00; stroke-width: 2; stroke-linejoin: miter"/>
   </g>
   <g id="patch_31">
    <path d="M 127.8 1860.62027 
L 425.16 1860.62027 
Q 431.532 1860.62027 431.532 1855.640973 
L 431.532 1805.848006 
Q 431.532 1800.868709 425.16 1800.868709 
L 127.8 1800.868709 
Q 121.428 1800.868709 121.428 1805.848006 
L 121.428 1855.640973 
Q 121.428 1860.62027 127.8 1860.62027 
z
" clip-path="url(#pe6dcd6c53a)" style="fill: #ffc107; stroke: #f57c00; stroke-width: 2; stroke-linejoin: miter"/>
   </g>
   <g id="patch_32">
    <path d="M 127.8 1927.010893 
L 425.16 1927.010893 
Q 431.532 1927.010893 431.532 1922.031597 
L 431.532 1872.238629 
Q 431.532 1867.259332 425.16 1867.259332 
L 127.8 1867.259332 
Q 121.428 1867.259332 121.428 1872.238629 
L 121.428 1922.031597 
Q 121.428 1927.010893 127.8 1927.010893 
z
" clip-path="url(#pe6dcd6c53a)" style="fill: #ffc107; stroke: #f57c00; stroke-width: 2; stroke-linejoin: miter"/>
   </g>
   <g id="patch_33">
    <path d="M 892.44 1860.62027 
L 1189.8 1860.62027 
Q 1196.172 1860.62027 1196.172 1855.640973 
L 1196.172 1805.848006 
Q 1196.172 1800.868709 1189.8 1800.868709 
L 892.44 1800.868709 
Q 886.068 1800.868709 886.068 1805.848006 
L 886.068 1855.640973 
Q 886.068 1860.62027 892.44 1860.62027 
z
" clip-path="url(#pe6dcd6c53a)" style="fill: #ffc107; stroke: #f57c00; stroke-width: 2; stroke-linejoin: miter"/>
   </g>
   <g id="patch_34">
    <path d="M 127.8 2190.581668 
L 425.16 2190.581668 
Q 431.532 2190.581668 431.532 2185.602372 
L 431.532 2126.514717 
Q 431.532 2121.53542 425.16 2121.53542 
L 127.8 2121.53542 
Q 121.428 2121.53542 121.428 2126.514717 
L 121.428 2185.602372 
Q 121.428 2190.581668 127.8 2190.581668 
z
" clip-path="url(#pe6dcd6c53a)" style="fill: #ffc107; stroke: #f57c00; stroke-width: 2; stroke-linejoin: miter"/>
   </g>
   <g id="patch_35">
    <path d="M 127.8 2449.5051 
L 425.16 2449.5051 
Q 431.532 2449.5051 431.532 2444.525803 
L 431.532 2385.438148 
Q 431.532 2380.458852 425.16 2380.458852 
L 127.8 2380.458852 
Q 121.428 2380.458852 121.428 2385.438148 
L 121.428 2444.525803 
Q 121.428 2449.5051 127.8 2449.5051 
z
" clip-path="url(#pe6dcd6c53a)" style="fill: #ffc107; stroke: #f57c00; stroke-width: 2; stroke-linejoin: miter"/>
   </g>
   <g id="patch_36">
    <path d="M 892.44 2449.5051 
L 1189.8 2449.5051 
Q 1196.172 2449.5051 1196.172 2444.525803 
L 1196.172 2385.438148 
Q 1196.172 2380.458852 1189.8 2380.458852 
L 892.44 2380.458852 
Q 886.068 2380.458852 886.068 2385.438148 
L 886.068 2444.525803 
Q 886.068 2449.5051 892.44 2449.5051 
z
" clip-path="url(#pe6dcd6c53a)" style="fill: #ffc107; stroke: #f57c00; stroke-width: 2; stroke-linejoin: miter"/>
   </g>
   <g id="text_2">
    <!-- Types = Different KINDS of this process -->
    <g transform="translate(491.484375 2468.855412) scale(0.15 -0.15)">
     <defs>
      <path id="DejaVuSans-BoldOblique-54" d="M 488 4666 
L 4788 4666 
L 4609 3756 
L 3059 3756 
L 2328 0 
L 1125 0 
L 1856 3756 
L 306 3756 
L 488 4666 
z
" transform="scale(0.015625)"/>
      <path id="DejaVuSans-BoldOblique-79" d="M 422 3500 
L 1478 3500 
L 1959 1075 
L 3200 3500 
L 4397 3500 
L 2181 -331 
Q 1809 -978 1493 -1179 
Q 1178 -1381 678 -1381 
L 0 -1381 
L 116 -647 
L 469 -647 
Q 744 -647 895 -555 
Q 1047 -463 1166 -231 
L 1269 -44 
L 422 3500 
z
" transform="scale(0.015625)"/>
      <path id="DejaVuSans-BoldOblique-70" d="M 1422 506 
L 1063 -1331 
L -63 -1331 
L 878 3500 
L 2003 3500 
L 1900 2988 
Q 2156 3294 2437 3439 
Q 2719 3584 3053 3584 
Q 3644 3584 3987 3209 
Q 4331 2834 4331 2188 
Q 4331 1784 4211 1403 
Q 4091 1022 3866 709 
Q 3581 316 3223 112 
Q 2866 -91 2456 -91 
Q 2097 -91 1845 54 
Q 1594 200 1422 506 
z
M 2597 2772 
Q 2166 2772 1892 2373 
Q 1619 1975 1619 1338 
Q 1619 1050 1773 886 
Q 1928 722 2203 722 
Q 2625 722 2900 1114 
Q 3175 1506 3175 2119 
Q 3175 2438 3026 2605 
Q 2878 2772 2597 2772 
z
" transform="scale(0.015625)"/>
      <path id="DejaVuSans-BoldOblique-65" d="M 4025 1619 
L 3988 1441 
L 1369 1441 
Q 1369 1422 1366 1386 
Q 1363 1350 1363 1331 
Q 1363 991 1567 822 
Q 1772 653 2181 653 
Q 2534 653 2926 759 
Q 3319 866 3750 1075 
L 3578 206 
Q 3169 56 2764 -17 
Q 2359 -91 1941 -91 
Q 1122 -91 676 287 
Q 231 666 231 1356 
Q 231 1756 373 2132 
Q 516 2509 788 2822 
Q 1109 3197 1557 3390 
Q 2006 3584 2553 3584 
Q 3263 3584 3680 3206 
Q 4097 2828 4097 2188 
Q 4097 2063 4080 1923 
Q 4063 1784 4025 1619 
z
M 2969 2131 
Q 2978 2172 2983 2214 
Q 2988 2256 2988 2297 
Q 2988 2547 2838 2694 
Q 2688 2841 2431 2841 
Q 2103 2841 1873 2661 
Q 1644 2481 1522 2131 
L 2969 2131 
z
" transform="scale(0.015625)"/>
      <path id="DejaVuSans-BoldOblique-73" d="M 3584 3391 
L 3419 2522 
Q 3091 2678 2766 2759 
Q 2441 2841 2150 2841 
Q 1819 2841 1639 2755 
Q 1459 2669 1459 2509 
Q 1459 2416 1559 2359 
Q 1659 2303 1953 2241 
L 2156 2203 
Q 2834 2059 3106 1832 
Q 3378 1606 3378 1203 
Q 3378 594 2900 251 
Q 2422 -91 1563 -91 
Q 1203 -91 828 -34 
Q 453 22 63 134 
L 231 1013 
Q 534 834 879 743 
Q 1225 653 1588 653 
Q 1941 653 2119 737 
Q 2297 822 2297 984 
Q 2297 1097 2197 1159 
Q 2097 1222 1784 1288 
L 1581 1325 
Q 981 1450 725 1694 
Q 469 1938 469 2369 
Q 469 2953 911 3268 
Q 1353 3584 2175 3584 
Q 2534 3584 2882 3536 
Q 3231 3488 3584 3391 
z
" transform="scale(0.015625)"/>
      <path id="DejaVuSans-BoldOblique-20" transform="scale(0.015625)"/>
      <path id="DejaVuSans-BoldOblique-3d" d="M 678 3084 
L 4684 3084 
L 4684 2350 
L 678 2350 
L 678 3084 
z
M 678 1663 
L 4684 1663 
L 4684 922 
L 678 922 
L 678 1663 
z
" transform="scale(0.015625)"/>
      <path id="DejaVuSans-BoldOblique-44" d="M 2075 3756 
L 1516 909 
L 1947 909 
Q 2788 909 3278 1381 
Q 3769 1853 3769 2656 
Q 3769 3200 3448 3478 
Q 3128 3756 2497 3756 
L 2075 3756 
z
M 1044 4666 
L 2309 4666 
Q 3216 4666 3669 4558 
Q 4122 4450 4422 4197 
Q 4725 3944 4878 3583 
Q 5031 3222 5031 2766 
Q 5031 2131 4770 1570 
Q 4509 1009 4038 628 
Q 3625 288 3079 144 
Q 2534 0 1403 0 
L 134 0 
L 1044 4666 
z
" transform="scale(0.015625)"/>
      <path id="DejaVuSans-BoldOblique-69" d="M 878 3500 
L 2003 3500 
L 1319 0 
L 197 0 
L 878 3500 
z
M 1141 4863 
L 2266 4863 
L 2088 3950 
L 959 3950 
L 1141 4863 
z
" transform="scale(0.015625)"/>
      <path id="DejaVuSans-BoldOblique-66" d="M 3456 4863 
L 3309 4128 
L 2694 4128 
Q 2459 4128 2351 4042 
Q 2244 3956 2203 3747 
L 2150 3500 
L 3097 3500 
L 2944 2700 
L 1997 2700 
L 1472 0 
L 347 0 
L 872 2700 
L 319 2700 
L 475 3500 
L 1025 3500 
L 1075 3744 
Q 1191 4325 1556 4594 
Q 1922 4863 2597 4863 
L 3456 4863 
z
" transform="scale(0.015625)"/>
      <path id="DejaVuSans-BoldOblique-72" d="M 3291 2547 
Q 3175 2613 3034 2647 
Q 2894 2681 2731 2681 
Q 2303 2681 2020 2406 
Q 1738 2131 1638 1613 
L 1319 0 
L 197 0 
L 878 3500 
L 2003 3500 
L 1881 2900 
Q 2103 3231 2436 3407 
Q 2769 3584 3175 3584 
Q 3234 3584 3309 3578 
Q 3384 3572 3488 3559 
L 3291 2547 
z
" transform="scale(0.015625)"/>
      <path id="DejaVuSans-BoldOblique-6e" d="M 4128 2131 
L 3713 0 
L 2591 0 
L 2944 1825 
Q 2981 2003 3001 2126 
Q 3022 2250 3022 2322 
Q 3022 2522 2911 2631 
Q 2800 2741 2597 2741 
Q 2250 2741 2001 2470 
Q 1753 2200 1656 1722 
L 1319 0 
L 197 0 
L 878 3500 
L 2003 3500 
L 1900 2988 
Q 2209 3291 2521 3437 
Q 2834 3584 3175 3584 
Q 3659 3584 3921 3331 
Q 4184 3078 4184 2619 
Q 4184 2519 4170 2397 
Q 4156 2275 4128 2131 
z
" transform="scale(0.015625)"/>
      <path id="DejaVuSans-BoldOblique-74" d="M 2303 4494 
L 2113 3500 
L 3256 3500 
L 3097 2700 
L 1953 2700 
L 1666 1219 
Q 1653 1169 1648 1134 
Q 1644 1100 1644 1069 
Q 1644 925 1739 862 
Q 1834 800 2059 800 
L 2638 800 
L 2478 0 
L 1538 0 
Q 1031 0 765 212 
Q 500 425 500 825 
Q 500 913 509 1013 
Q 519 1113 538 1216 
L 825 2700 
L 275 2700 
L 428 3500 
L 984 3500 
L 1178 4494 
L 2303 4494 
z
" transform="scale(0.015625)"/>
      <path id="DejaVuSans-BoldOblique-4b" d="M 1044 4666 
L 2247 4666 
L 1919 2988 
L 3903 4666 
L 5356 4666 
L 2681 2400 
L 4697 0 
L 3284 0 
L 1716 1947 
L 1338 0 
L 134 0 
L 1044 4666 
z
" transform="scale(0.015625)"/>
      <path id="DejaVuSans-BoldOblique-49" d="M 1044 4666 
L 2247 4666 
L 1338 0 
L 134 0 
L 1044 4666 
z
" transform="scale(0.015625)"/>
      <path id="DejaVuSans-BoldOblique-4e" d="M 1044 4666 
L 2388 4666 
L 3456 1434 
L 4084 4666 
L 5222 4666 
L 4313 0 
L 2969 0 
L 1900 3231 
L 1275 0 
L 134 0 
L 1044 4666 
z
" transform="scale(0.015625)"/>
      <path id="DejaVuSans-BoldOblique-53" d="M 4256 4519 
L 4063 3531 
Q 3709 3706 3365 3792 
Q 3022 3878 2694 3878 
Q 2244 3878 1992 3737 
Q 1741 3597 1741 3347 
Q 1741 3188 1852 3098 
Q 1963 3009 2309 2925 
L 2803 2803 
Q 3422 2647 3711 2351 
Q 4000 2056 4000 1588 
Q 4000 828 3423 368 
Q 2847 -91 1875 -91 
Q 1422 -91 973 -6 
Q 525 78 97 244 
L 288 1259 
Q 703 1019 1095 900 
Q 1488 781 1869 781 
Q 2281 781 2539 950 
Q 2797 1119 2797 1381 
Q 2797 1553 2681 1648 
Q 2566 1744 2175 1844 
L 1684 1966 
Q 1141 2100 875 2390 
Q 609 2681 609 3144 
Q 609 3872 1167 4311 
Q 1725 4750 2669 4750 
Q 3047 4750 3445 4692 
Q 3844 4634 4256 4519 
z
" transform="scale(0.015625)"/>
      <path id="DejaVuSans-BoldOblique-6f" d="M 2400 2784 
Q 1966 2784 1684 2390 
Q 1403 1997 1403 1388 
Q 1403 1056 1554 882 
Q 1706 709 1997 709 
Q 2431 709 2712 1104 
Q 2994 1500 2994 2113 
Q 2994 2441 2842 2612 
Q 2691 2784 2400 2784 
z
M 2491 3584 
Q 3272 3584 3719 3187 
Q 4166 2791 4166 2106 
Q 4166 1709 4025 1336 
Q 3884 963 3616 653 
Q 3297 284 2862 96 
Q 2428 -91 1894 -91 
Q 1122 -91 676 306 
Q 231 703 231 1388 
Q 231 1781 375 2157 
Q 519 2534 788 2847 
Q 1100 3209 1533 3396 
Q 1966 3584 2491 3584 
z
" transform="scale(0.015625)"/>
      <path id="DejaVuSans-BoldOblique-68" d="M 4128 2131 
L 3713 0 
L 2591 0 
L 2944 1825 
Q 2981 2003 3001 2126 
Q 3022 2250 3022 2322 
Q 3022 2522 2911 2631 
Q 2800 2741 2597 2741 
Q 2250 2741 2001 2470 
Q 1753 2200 1656 1722 
L 1319 0 
L 197 0 
L 1141 4863 
L 2266 4863 
L 1900 2988 
Q 2209 3291 2521 3437 
Q 2834 3584 3175 3584 
Q 3659 3584 3921 3331 
Q 4184 3078 4184 2619 
Q 4184 2519 4170 2397 
Q 4156 2275 4128 2131 
z
" transform="scale(0.015625)"/>
      <path id="DejaVuSans-BoldOblique-63" d="M 3719 3391 
L 3541 2478 
Q 3316 2628 3097 2706 
Q 2878 2784 2669 2784 
Q 2122 2784 1775 2417 
Q 1428 2050 1428 1478 
Q 1428 1113 1643 911 
Q 1859 709 2253 709 
Q 2516 709 2769 787 
Q 3022 866 3250 1019 
L 3078 103 
Q 2800 6 2519 -42 
Q 2238 -91 1953 -91 
Q 1128 -91 683 279 
Q 238 650 238 1331 
Q 238 1759 402 2162 
Q 566 2566 872 2888 
Q 1213 3241 1653 3412 
Q 2094 3584 2669 3584 
Q 2934 3584 3196 3536 
Q 3459 3488 3719 3391 
z
" transform="scale(0.015625)"/>
     </defs>
     <use xlink:href="#DejaVuSans-BoldOblique-54"/>
     <use xlink:href="#DejaVuSans-BoldOblique-79" x="51.712891"/>
     <use xlink:href="#DejaVuSans-BoldOblique-70" x="116.898438"/>
     <use xlink:href="#DejaVuSans-BoldOblique-65" x="188.480469"/>
     <use xlink:href="#DejaVuSans-BoldOblique-73" x="256.302734"/>
     <use xlink:href="#DejaVuSans-BoldOblique-20" x="315.824219"/>
     <use xlink:href="#DejaVuSans-BoldOblique-3d" x="350.638672"/>
     <use xlink:href="#DejaVuSans-BoldOblique-20" x="434.427734"/>
     <use xlink:href="#DejaVuSans-BoldOblique-44" x="469.242188"/>
     <use xlink:href="#DejaVuSans-BoldOblique-69" x="552.25"/>
     <use xlink:href="#DejaVuSans-BoldOblique-66" x="586.527344"/>
     <use xlink:href="#DejaVuSans-BoldOblique-66" x="630.033203"/>
     <use xlink:href="#DejaVuSans-BoldOblique-65" x="673.539062"/>
     <use xlink:href="#DejaVuSans-BoldOblique-72" x="741.361328"/>
     <use xlink:href="#DejaVuSans-BoldOblique-65" x="790.677734"/>
     <use xlink:href="#DejaVuSans-BoldOblique-6e" x="858.5"/>
     <use xlink:href="#DejaVuSans-BoldOblique-74" x="929.691406"/>
     <use xlink:href="#DejaVuSans-BoldOblique-20" x="977.494141"/>
     <use xlink:href="#DejaVuSans-BoldOblique-4b" x="1012.308594"/>
     <use xlink:href="#DejaVuSans-BoldOblique-49" x="1089.798828"/>
     <use xlink:href="#DejaVuSans-BoldOblique-4e" x="1127.005859"/>
     <use xlink:href="#DejaVuSans-BoldOblique-44" x="1210.697266"/>
     <use xlink:href="#DejaVuSans-BoldOblique-53" x="1293.705078"/>
     <use xlink:href="#DejaVuSans-BoldOblique-20" x="1365.726562"/>
     <use xlink:href="#DejaVuSans-BoldOblique-6f" x="1400.541016"/>
     <use xlink:href="#DejaVuSans-BoldOblique-66" x="1469.242188"/>
     <use xlink:href="#DejaVuSans-BoldOblique-20" x="1512.748047"/>
     <use xlink:href="#DejaVuSans-BoldOblique-74" x="1547.5625"/>
     <use xlink:href="#DejaVuSans-BoldOblique-68" x="1595.365234"/>
     <use xlink:href="#DejaVuSans-BoldOblique-69" x="1666.556641"/>
     <use xlink:href="#DejaVuSans-BoldOblique-73" x="1700.833984"/>
     <use xlink:href="#DejaVuSans-BoldOblique-20" x="1760.355469"/>
     <use xlink:href="#DejaVuSans-BoldOblique-70" x="1795.169922"/>
     <use xlink:href="#DejaVuSans-BoldOblique-72" x="1866.751953"/>
     <use xlink:href="#DejaVuSans-BoldOblique-6f" x="1916.068359"/>
     <use xlink:href="#DejaVuSans-BoldOblique-63" x="1984.769531"/>
     <use xlink:href="#DejaVuSans-BoldOblique-65" x="2044.046875"/>
     <use xlink:href="#DejaVuSans-BoldOblique-73" x="2111.869141"/>
     <use xlink:href="#DejaVuSans-BoldOblique-73" x="2171.390625"/>
    </g>
   </g>
   <g id="text_3">
    <!-- Process by which green -->
    <g transform="translate(156.355313 384.342023) scale(0.18 -0.18)">
     <defs>
      <path id="DejaVuSans-Bold-62" d="M 2400 722 
Q 2759 722 2948 984 
Q 3138 1247 3138 1747 
Q 3138 2247 2948 2509 
Q 2759 2772 2400 2772 
Q 2041 2772 1848 2508 
Q 1656 2244 1656 1747 
Q 1656 1250 1848 986 
Q 2041 722 2400 722 
z
M 1656 2988 
Q 1888 3294 2169 3439 
Q 2450 3584 2816 3584 
Q 3463 3584 3878 3070 
Q 4294 2556 4294 1747 
Q 4294 938 3878 423 
Q 3463 -91 2816 -91 
Q 2450 -91 2169 54 
Q 1888 200 1656 506 
L 1656 0 
L 538 0 
L 538 4863 
L 1656 4863 
L 1656 2988 
z
" transform="scale(0.015625)"/>
      <path id="DejaVuSans-Bold-77" d="M 225 3500 
L 1313 3500 
L 1900 1088 
L 2491 3500 
L 3425 3500 
L 4013 1113 
L 4603 3500 
L 5691 3500 
L 4769 0 
L 3547 0 
L 2956 2406 
L 2369 0 
L 1147 0 
L 225 3500 
z
" transform="scale(0.015625)"/>
      <path id="DejaVuSans-Bold-67" d="M 2919 594 
Q 2688 288 2409 144 
Q 2131 0 1766 0 
Q 1125 0 706 504 
Q 288 1009 288 1791 
Q 288 2575 706 3076 
Q 1125 3578 1766 3578 
Q 2131 3578 2409 3434 
Q 2688 3291 2919 2981 
L 2919 3500 
L 4044 3500 
L 4044 353 
Q 4044 -491 3511 -936 
Q 2978 -1381 1966 -1381 
Q 1638 -1381 1331 -1331 
Q 1025 -1281 716 -1178 
L 716 -306 
Q 1009 -475 1290 -558 
Q 1572 -641 1856 -641 
Q 2406 -641 2662 -400 
Q 2919 -159 2919 353 
L 2919 594 
z
M 2181 2772 
Q 1834 2772 1640 2515 
Q 1447 2259 1447 1791 
Q 1447 1309 1634 1061 
Q 1822 813 2181 813 
Q 2531 813 2725 1069 
Q 2919 1325 2919 1791 
Q 2919 2259 2725 2515 
Q 2531 2772 2181 2772 
z
" transform="scale(0.015625)"/>
     </defs>
     <use xlink:href="#DejaVuSans-Bold-50"/>
     <use xlink:href="#DejaVuSans-Bold-72" x="73.291016"/>
     <use xlink:href="#DejaVuSans-Bold-6f" x="122.607422"/>
     <use xlink:href="#DejaVuSans-Bold-63" x="191.308594"/>
     <use xlink:href="#DejaVuSans-Bold-65" x="250.585938"/>
     <use xlink:href="#DejaVuSans-Bold-73" x="318.408203"/>
     <use xlink:href="#DejaVuSans-Bold-73" x="377.929688"/>
     <use xlink:href="#DejaVuSans-Bold-20" x="437.451172"/>
     <use xlink:href="#DejaVuSans-Bold-62" x="472.265625"/>
     <use xlink:href="#DejaVuSans-Bold-79" x="543.847656"/>
     <use xlink:href="#DejaVuSans-Bold-20" x="609.033203"/>
     <use xlink:href="#DejaVuSans-Bold-77" x="643.847656"/>
     <use xlink:href="#DejaVuSans-Bold-68" x="736.230469"/>
     <use xlink:href="#DejaVuSans-Bold-69" x="807.421875"/>
     <use xlink:href="#DejaVuSans-Bold-63" x="841.699219"/>
     <use xlink:href="#DejaVuSans-Bold-68" x="900.976562"/>
     <use xlink:href="#DejaVuSans-Bold-20" x="972.167969"/>
     <use xlink:href="#DejaVuSans-Bold-67" x="1006.982422"/>
     <use xlink:href="#DejaVuSans-Bold-72" x="1078.564453"/>
     <use xlink:href="#DejaVuSans-Bold-65" x="1127.880859"/>
     <use xlink:href="#DejaVuSans-Bold-65" x="1195.703125"/>
     <use xlink:href="#DejaVuSans-Bold-6e" x="1263.525391"/>
    </g>
   </g>
   <g id="text_4">
    <!-- plants synthesize food -->
    <g transform="translate(161.596406 400.275773) scale(0.18 -0.18)">
     <defs>
      <path id="DejaVuSans-Bold-6c" d="M 538 4863 
L 1656 4863 
L 1656 0 
L 538 0 
L 538 4863 
z
" transform="scale(0.015625)"/>
      <path id="DejaVuSans-Bold-7a" d="M 366 3500 
L 3419 3500 
L 3419 2719 
L 1575 800 
L 3419 800 
L 3419 0 
L 288 0 
L 288 781 
L 2131 2700 
L 366 2700 
L 366 3500 
z
" transform="scale(0.015625)"/>
      <path id="DejaVuSans-Bold-66" d="M 2841 4863 
L 2841 4128 
L 2222 4128 
Q 1984 4128 1890 4042 
Q 1797 3956 1797 3744 
L 1797 3500 
L 2753 3500 
L 2753 2700 
L 1797 2700 
L 1797 0 
L 678 0 
L 678 2700 
L 122 2700 
L 122 3500 
L 678 3500 
L 678 3744 
Q 678 4316 997 4589 
Q 1316 4863 1984 4863 
L 2841 4863 
z
" transform="scale(0.015625)"/>
      <path id="DejaVuSans-Bold-64" d="M 2919 2988 
L 2919 4863 
L 4044 4863 
L 4044 0 
L 2919 0 
L 2919 506 
Q 2688 197 2409 53 
Q 2131 -91 1766 -91 
Q 1119 -91 703 423 
Q 288 938 288 1747 
Q 288 2556 703 3070 
Q 1119 3584 1766 3584 
Q 2128 3584 2408 3439 
Q 2688 3294 2919 2988 
z
M 2181 722 
Q 2541 722 2730 984 
Q 2919 1247 2919 1747 
Q 2919 2247 2730 2509 
Q 2541 2772 2181 2772 
Q 1825 2772 1636 2509 
Q 1447 2247 1447 1747 
Q 1447 1247 1636 984 
Q 1825 722 2181 722 
z
" transform="scale(0.015625)"/>
     </defs>
     <use xlink:href="#DejaVuSans-Bold-70"/>
     <use xlink:href="#DejaVuSans-Bold-6c" x="71.582031"/>
     <use xlink:href="#DejaVuSans-Bold-61" x="105.859375"/>
     <use xlink:href="#DejaVuSans-Bold-6e" x="173.339844"/>
     <use xlink:href="#DejaVuSans-Bold-74" x="244.53125"/>
     <use xlink:href="#DejaVuSans-Bold-73" x="292.333984"/>
     <use xlink:href="#DejaVuSans-Bold-20" x="351.855469"/>
     <use xlink:href="#DejaVuSans-Bold-73" x="386.669922"/>
     <use xlink:href="#DejaVuSans-Bold-79" x="446.191406"/>
     <use xlink:href="#DejaVuSans-Bold-6e" x="511.376953"/>
     <use xlink:href="#DejaVuSans-Bold-74" x="582.568359"/>
     <use xlink:href="#DejaVuSans-Bold-68" x="630.371094"/>
     <use xlink:href="#DejaVuSans-Bold-65" x="701.5625"/>
     <use xlink:href="#DejaVuSans-Bold-73" x="769.384766"/>
     <use xlink:href="#DejaVuSans-Bold-69" x="828.90625"/>
     <use xlink:href="#DejaVuSans-Bold-7a" x="863.183594"/>
     <use xlink:href="#DejaVuSans-Bold-65" x="921.386719"/>
     <use xlink:href="#DejaVuSans-Bold-20" x="989.208984"/>
     <use xlink:href="#DejaVuSans-Bold-66" x="1024.023438"/>
     <use xlink:href="#DejaVuSans-Bold-6f" x="1067.529297"/>
     <use xlink:href="#DejaVuSans-Bold-6f" x="1136.230469"/>
     <use xlink:href="#DejaVuSans-Bold-64" x="1204.931641"/>
    </g>
   </g>
   <g id="text_5">
    <!-- using sunlight, CO2, -->
    <g transform="translate(173.669063 416.209522) scale(0.18 -0.18)">
     <defs>
      <path id="DejaVuSans-Bold-75" d="M 500 1363 
L 500 3500 
L 1625 3500 
L 1625 3150 
Q 1625 2866 1622 2436 
Q 1619 2006 1619 1863 
Q 1619 1441 1641 1255 
Q 1663 1069 1716 984 
Q 1784 875 1895 815 
Q 2006 756 2150 756 
Q 2500 756 2700 1025 
Q 2900 1294 2900 1772 
L 2900 3500 
L 4019 3500 
L 4019 0 
L 2900 0 
L 2900 506 
Q 2647 200 2364 54 
Q 2081 -91 1741 -91 
Q 1134 -91 817 281 
Q 500 653 500 1363 
z
" transform="scale(0.015625)"/>
      <path id="DejaVuSans-Bold-2c" d="M 653 1209 
L 1778 1209 
L 1778 256 
L 1006 -909 
L 341 -909 
L 653 256 
L 653 1209 
z
" transform="scale(0.015625)"/>
      <path id="DejaVuSans-Bold-43" d="M 4288 256 
Q 3956 84 3597 -3 
Q 3238 -91 2847 -91 
Q 1681 -91 1000 561 
Q 319 1213 319 2328 
Q 319 3447 1000 4098 
Q 1681 4750 2847 4750 
Q 3238 4750 3597 4662 
Q 3956 4575 4288 4403 
L 4288 3438 
Q 3953 3666 3628 3772 
Q 3303 3878 2944 3878 
Q 2300 3878 1931 3465 
Q 1563 3053 1563 2328 
Q 1563 1606 1931 1193 
Q 2300 781 2944 781 
Q 3303 781 3628 887 
Q 3953 994 4288 1222 
L 4288 256 
z
" transform="scale(0.015625)"/>
      <path id="DejaVuSans-Bold-4f" d="M 2719 3878 
Q 2169 3878 1866 3472 
Q 1563 3066 1563 2328 
Q 1563 1594 1866 1187 
Q 2169 781 2719 781 
Q 3272 781 3575 1187 
Q 3878 1594 3878 2328 
Q 3878 3066 3575 3472 
Q 3272 3878 2719 3878 
z
M 2719 4750 
Q 3844 4750 4481 4106 
Q 5119 3463 5119 2328 
Q 5119 1197 4481 553 
Q 3844 -91 2719 -91 
Q 1597 -91 958 553 
Q 319 1197 319 2328 
Q 319 3463 958 4106 
Q 1597 4750 2719 4750 
z
" transform="scale(0.015625)"/>
      <path id="DejaVuSans-Bold-32" d="M 1844 884 
L 3897 884 
L 3897 0 
L 506 0 
L 506 884 
L 2209 2388 
Q 2438 2594 2547 2791 
Q 2656 2988 2656 3200 
Q 2656 3528 2436 3728 
Q 2216 3928 1850 3928 
Q 1569 3928 1234 3808 
Q 900 3688 519 3450 
L 519 4475 
Q 925 4609 1322 4679 
Q 1719 4750 2100 4750 
Q 2938 4750 3402 4381 
Q 3866 4013 3866 3353 
Q 3866 2972 3669 2642 
Q 3472 2313 2841 1759 
L 1844 884 
z
" transform="scale(0.015625)"/>
     </defs>
     <use xlink:href="#DejaVuSans-Bold-75"/>
     <use xlink:href="#DejaVuSans-Bold-73" x="71.191406"/>
     <use xlink:href="#DejaVuSans-Bold-69" x="130.712891"/>
     <use xlink:href="#DejaVuSans-Bold-6e" x="164.990234"/>
     <use xlink:href="#DejaVuSans-Bold-67" x="236.181641"/>
     <use xlink:href="#DejaVuSans-Bold-20" x="307.763672"/>
     <use xlink:href="#DejaVuSans-Bold-73" x="342.578125"/>
     <use xlink:href="#DejaVuSans-Bold-75" x="402.099609"/>
     <use xlink:href="#DejaVuSans-Bold-6e" x="473.291016"/>
     <use xlink:href="#DejaVuSans-Bold-6c" x="544.482422"/>
     <use xlink:href="#DejaVuSans-Bold-69" x="578.759766"/>
     <use xlink:href="#DejaVuSans-Bold-67" x="613.037109"/>
     <use xlink:href="#DejaVuSans-Bold-68" x="684.619141"/>
     <use xlink:href="#DejaVuSans-Bold-74" x="755.810547"/>
     <use xlink:href="#DejaVuSans-Bold-2c" x="803.613281"/>
     <use xlink:href="#DejaVuSans-Bold-20" x="841.601562"/>
     <use xlink:href="#DejaVuSans-Bold-43" x="876.416016"/>
     <use xlink:href="#DejaVuSans-Bold-4f" x="949.804688"/>
     <use xlink:href="#DejaVuSans-Bold-32" x="1034.814453"/>
     <use xlink:href="#DejaVuSans-Bold-2c" x="1104.394531"/>
    </g>
   </g>
   <g id="text_6">
    <!-- and water -->
    <g transform="translate(225.19125 432.213584) scale(0.18 -0.18)">
     <use xlink:href="#DejaVuSans-Bold-61"/>
     <use xlink:href="#DejaVuSans-Bold-6e" x="67.480469"/>
     <use xlink:href="#DejaVuSans-Bold-64" x="138.671875"/>
     <use xlink:href="#DejaVuSans-Bold-20" x="210.253906"/>
     <use xlink:href="#DejaVuSans-Bold-77" x="245.068359"/>
     <use xlink:href="#DejaVuSans-Bold-61" x="337.451172"/>
     <use xlink:href="#DejaVuSans-Bold-74" x="404.931641"/>
     <use xlink:href="#DejaVuSans-Bold-65" x="452.734375"/>
     <use xlink:href="#DejaVuSans-Bold-72" x="520.556641"/>
    </g>
   </g>
   <g id="text_7">
    <!-- To produce glucose and -->
    <g transform="translate(156.761719 651.232329) scale(0.18 -0.18)">
     <defs>
      <path id="DejaVuSans-Bold-54" d="M 31 4666 
L 4331 4666 
L 4331 3756 
L 2784 3756 
L 2784 0 
L 1581 0 
L 1581 3756 
L 31 3756 
L 31 4666 
z
" transform="scale(0.015625)"/>
     </defs>
     <use xlink:href="#DejaVuSans-Bold-54"/>
     <use xlink:href="#DejaVuSans-Bold-6f" x="54.962891"/>
     <use xlink:href="#DejaVuSans-Bold-20" x="123.664062"/>
     <use xlink:href="#DejaVuSans-Bold-70" x="158.478516"/>
     <use xlink:href="#DejaVuSans-Bold-72" x="230.060547"/>
     <use xlink:href="#DejaVuSans-Bold-6f" x="279.376953"/>
     <use xlink:href="#DejaVuSans-Bold-64" x="348.078125"/>
     <use xlink:href="#DejaVuSans-Bold-75" x="419.660156"/>
     <use xlink:href="#DejaVuSans-Bold-63" x="490.851562"/>
     <use xlink:href="#DejaVuSans-Bold-65" x="550.128906"/>
     <use xlink:href="#DejaVuSans-Bold-20" x="617.951172"/>
     <use xlink:href="#DejaVuSans-Bold-67" x="652.765625"/>
     <use xlink:href="#DejaVuSans-Bold-6c" x="724.347656"/>
     <use xlink:href="#DejaVuSans-Bold-75" x="758.625"/>
     <use xlink:href="#DejaVuSans-Bold-63" x="829.816406"/>
     <use xlink:href="#DejaVuSans-Bold-6f" x="889.09375"/>
     <use xlink:href="#DejaVuSans-Bold-73" x="957.794922"/>
     <use xlink:href="#DejaVuSans-Bold-65" x="1017.316406"/>
     <use xlink:href="#DejaVuSans-Bold-20" x="1085.138672"/>
     <use xlink:href="#DejaVuSans-Bold-61" x="1119.953125"/>
     <use xlink:href="#DejaVuSans-Bold-6e" x="1187.433594"/>
     <use xlink:href="#DejaVuSans-Bold-64" x="1258.625"/>
    </g>
   </g>
   <g id="text_8">
    <!-- oxygen for energy and -->
    <g transform="translate(161.450156 667.166079) scale(0.18 -0.18)">
     <defs>
      <path id="DejaVuSans-Bold-78" d="M 1422 1791 
L 159 3500 
L 1344 3500 
L 2059 2463 
L 2784 3500 
L 3969 3500 
L 2706 1797 
L 4031 0 
L 2847 0 
L 2059 1106 
L 1281 0 
L 97 0 
L 1422 1791 
z
" transform="scale(0.015625)"/>
     </defs>
     <use xlink:href="#DejaVuSans-Bold-6f"/>
     <use xlink:href="#DejaVuSans-Bold-78" x="68.701172"/>
     <use xlink:href="#DejaVuSans-Bold-79" x="133.203125"/>
     <use xlink:href="#DejaVuSans-Bold-67" x="198.388672"/>
     <use xlink:href="#DejaVuSans-Bold-65" x="269.970703"/>
     <use xlink:href="#DejaVuSans-Bold-6e" x="337.792969"/>
     <use xlink:href="#DejaVuSans-Bold-20" x="408.984375"/>
     <use xlink:href="#DejaVuSans-Bold-66" x="443.798828"/>
     <use xlink:href="#DejaVuSans-Bold-6f" x="487.304688"/>
     <use xlink:href="#DejaVuSans-Bold-72" x="556.005859"/>
     <use xlink:href="#DejaVuSans-Bold-20" x="605.322266"/>
     <use xlink:href="#DejaVuSans-Bold-65" x="640.136719"/>
     <use xlink:href="#DejaVuSans-Bold-6e" x="707.958984"/>
     <use xlink:href="#DejaVuSans-Bold-65" x="779.150391"/>
     <use xlink:href="#DejaVuSans-Bold-72" x="846.972656"/>
     <use xlink:href="#DejaVuSans-Bold-67" x="896.289062"/>
     <use xlink:href="#DejaVuSans-Bold-79" x="967.871094"/>
     <use xlink:href="#DejaVuSans-Bold-20" x="1033.056641"/>
     <use xlink:href="#DejaVuSans-Bold-61" x="1067.871094"/>
     <use xlink:href="#DejaVuSans-Bold-6e" x="1135.351562"/>
     <use xlink:href="#DejaVuSans-Bold-64" x="1206.542969"/>
    </g>
   </g>
   <g id="text_9">
    <!-- growth -->
    <g transform="translate(240.392813 683.099829) scale(0.18 -0.18)">
     <use xlink:href="#DejaVuSans-Bold-67"/>
     <use xlink:href="#DejaVuSans-Bold-72" x="71.582031"/>
     <use xlink:href="#DejaVuSans-Bold-6f" x="120.898438"/>
     <use xlink:href="#DejaVuSans-Bold-77" x="189.599609"/>
     <use xlink:href="#DejaVuSans-Bold-74" x="281.982422"/>
     <use xlink:href="#DejaVuSans-Bold-68" x="329.785156"/>
    </g>
   </g>
   <g id="text_10">
    <!-- Presence of Sunlight -->
    <g transform="translate(171.052031 926.08951) scale(0.18 -0.18)">
     <defs>
      <path id="DejaVuSans-Bold-53" d="M 3834 4519 
L 3834 3531 
Q 3450 3703 3084 3790 
Q 2719 3878 2394 3878 
Q 1963 3878 1756 3759 
Q 1550 3641 1550 3391 
Q 1550 3203 1689 3098 
Q 1828 2994 2194 2919 
L 2706 2816 
Q 3484 2659 3812 2340 
Q 4141 2022 4141 1434 
Q 4141 663 3683 286 
Q 3225 -91 2284 -91 
Q 1841 -91 1394 -6 
Q 947 78 500 244 
L 500 1259 
Q 947 1022 1364 901 
Q 1781 781 2169 781 
Q 2563 781 2772 912 
Q 2981 1044 2981 1288 
Q 2981 1506 2839 1625 
Q 2697 1744 2272 1838 
L 1806 1941 
Q 1106 2091 782 2419 
Q 459 2747 459 3303 
Q 459 4000 909 4375 
Q 1359 4750 2203 4750 
Q 2588 4750 2994 4692 
Q 3400 4634 3834 4519 
z
" transform="scale(0.015625)"/>
     </defs>
     <use xlink:href="#DejaVuSans-Bold-50"/>
     <use xlink:href="#DejaVuSans-Bold-72" x="73.291016"/>
     <use xlink:href="#DejaVuSans-Bold-65" x="122.607422"/>
     <use xlink:href="#DejaVuSans-Bold-73" x="190.429688"/>
     <use xlink:href="#DejaVuSans-Bold-65" x="249.951172"/>
     <use xlink:href="#DejaVuSans-Bold-6e" x="317.773438"/>
     <use xlink:href="#DejaVuSans-Bold-63" x="388.964844"/>
     <use xlink:href="#DejaVuSans-Bold-65" x="448.242188"/>
     <use xlink:href="#DejaVuSans-Bold-20" x="516.064453"/>
     <use xlink:href="#DejaVuSans-Bold-6f" x="550.878906"/>
     <use xlink:href="#DejaVuSans-Bold-66" x="619.580078"/>
     <use xlink:href="#DejaVuSans-Bold-20" x="663.085938"/>
     <use xlink:href="#DejaVuSans-Bold-53" x="697.900391"/>
     <use xlink:href="#DejaVuSans-Bold-75" x="769.921875"/>
     <use xlink:href="#DejaVuSans-Bold-6e" x="841.113281"/>
     <use xlink:href="#DejaVuSans-Bold-6c" x="912.304688"/>
     <use xlink:href="#DejaVuSans-Bold-69" x="946.582031"/>
     <use xlink:href="#DejaVuSans-Bold-67" x="980.859375"/>
     <use xlink:href="#DejaVuSans-Bold-68" x="1052.441406"/>
     <use xlink:href="#DejaVuSans-Bold-74" x="1123.632812"/>
    </g>
   </g>
   <g id="text_11">
    <!-- Presence of -->
    <g transform="translate(216.801563 984.583572) scale(0.18 -0.18)">
     <use xlink:href="#DejaVuSans-Bold-50"/>
     <use xlink:href="#DejaVuSans-Bold-72" x="73.291016"/>
     <use xlink:href="#DejaVuSans-Bold-65" x="122.607422"/>
     <use xlink:href="#DejaVuSans-Bold-73" x="190.429688"/>
     <use xlink:href="#DejaVuSans-Bold-65" x="249.951172"/>
     <use xlink:href="#DejaVuSans-Bold-6e" x="317.773438"/>
     <use xlink:href="#DejaVuSans-Bold-63" x="388.964844"/>
     <use xlink:href="#DejaVuSans-Bold-65" x="448.242188"/>
     <use xlink:href="#DejaVuSans-Bold-20" x="516.064453"/>
     <use xlink:href="#DejaVuSans-Bold-6f" x="550.878906"/>
     <use xlink:href="#DejaVuSans-Bold-66" x="619.580078"/>
    </g>
   </g>
   <g id="text_12">
    <!-- Chlorophyll -->
    <g transform="translate(218.691563 1000.447009) scale(0.18 -0.18)">
     <use xlink:href="#DejaVuSans-Bold-43"/>
     <use xlink:href="#DejaVuSans-Bold-68" x="73.388672"/>
     <use xlink:href="#DejaVuSans-Bold-6c" x="144.580078"/>
     <use xlink:href="#DejaVuSans-Bold-6f" x="178.857422"/>
     <use xlink:href="#DejaVuSans-Bold-72" x="247.558594"/>
     <use xlink:href="#DejaVuSans-Bold-6f" x="296.875"/>
     <use xlink:href="#DejaVuSans-Bold-70" x="365.576172"/>
     <use xlink:href="#DejaVuSans-Bold-68" x="437.158203"/>
     <use xlink:href="#DejaVuSans-Bold-79" x="508.349609"/>
     <use xlink:href="#DejaVuSans-Bold-6c" x="573.535156"/>
     <use xlink:href="#DejaVuSans-Bold-6c" x="607.8125"/>
    </g>
   </g>
   <g id="text_13">
    <!-- Presence of Carbon -->
    <g transform="translate(942.159375 918.192948) scale(0.18 -0.18)">
     <use xlink:href="#DejaVuSans-Bold-50"/>
     <use xlink:href="#DejaVuSans-Bold-72" x="73.291016"/>
     <use xlink:href="#DejaVuSans-Bold-65" x="122.607422"/>
     <use xlink:href="#DejaVuSans-Bold-73" x="190.429688"/>
     <use xlink:href="#DejaVuSans-Bold-65" x="249.951172"/>
     <use xlink:href="#DejaVuSans-Bold-6e" x="317.773438"/>
     <use xlink:href="#DejaVuSans-Bold-63" x="388.964844"/>
     <use xlink:href="#DejaVuSans-Bold-65" x="448.242188"/>
     <use xlink:href="#DejaVuSans-Bold-20" x="516.064453"/>
     <use xlink:href="#DejaVuSans-Bold-6f" x="550.878906"/>
     <use xlink:href="#DejaVuSans-Bold-66" x="619.580078"/>
     <use xlink:href="#DejaVuSans-Bold-20" x="663.085938"/>
     <use xlink:href="#DejaVuSans-Bold-43" x="697.900391"/>
     <use xlink:href="#DejaVuSans-Bold-61" x="771.289062"/>
     <use xlink:href="#DejaVuSans-Bold-72" x="838.769531"/>
     <use xlink:href="#DejaVuSans-Bold-62" x="888.085938"/>
     <use xlink:href="#DejaVuSans-Bold-6f" x="959.667969"/>
     <use xlink:href="#DejaVuSans-Bold-6e" x="1028.369141"/>
    </g>
   </g>
   <g id="text_14">
    <!-- dioxide -->
    <g transform="translate(1003.9725 934.126698) scale(0.18 -0.18)">
     <use xlink:href="#DejaVuSans-Bold-64"/>
     <use xlink:href="#DejaVuSans-Bold-69" x="71.582031"/>
     <use xlink:href="#DejaVuSans-Bold-6f" x="105.859375"/>
     <use xlink:href="#DejaVuSans-Bold-78" x="174.560547"/>
     <use xlink:href="#DejaVuSans-Bold-69" x="239.0625"/>
     <use xlink:href="#DejaVuSans-Bold-64" x="273.339844"/>
     <use xlink:href="#DejaVuSans-Bold-65" x="344.921875"/>
    </g>
   </g>
   <g id="text_15">
    <!-- Step 1: Light -->
    <g style="fill: #ffffff" transform="translate(211.052813 1235.469816) scale(0.18 -0.18)">
     <defs>
      <path id="DejaVuSans-Bold-31" d="M 750 831 
L 1813 831 
L 1813 3847 
L 722 3622 
L 722 4441 
L 1806 4666 
L 2950 4666 
L 2950 831 
L 4013 831 
L 4013 0 
L 750 0 
L 750 831 
z
" transform="scale(0.015625)"/>
      <path id="DejaVuSans-Bold-4c" d="M 588 4666 
L 1791 4666 
L 1791 909 
L 3903 909 
L 3903 0 
L 588 0 
L 588 4666 
z
" transform="scale(0.015625)"/>
     </defs>
     <use xlink:href="#DejaVuSans-Bold-53"/>
     <use xlink:href="#DejaVuSans-Bold-74" x="72.021484"/>
     <use xlink:href="#DejaVuSans-Bold-65" x="119.824219"/>
     <use xlink:href="#DejaVuSans-Bold-70" x="187.646484"/>
     <use xlink:href="#DejaVuSans-Bold-20" x="259.228516"/>
     <use xlink:href="#DejaVuSans-Bold-31" x="294.042969"/>
     <use xlink:href="#DejaVuSans-Bold-3a" x="363.623047"/>
     <use xlink:href="#DejaVuSans-Bold-20" x="403.613281"/>
     <use xlink:href="#DejaVuSans-Bold-4c" x="438.427734"/>
     <use xlink:href="#DejaVuSans-Bold-69" x="502.148438"/>
     <use xlink:href="#DejaVuSans-Bold-67" x="536.425781"/>
     <use xlink:href="#DejaVuSans-Bold-68" x="608.007812"/>
     <use xlink:href="#DejaVuSans-Bold-74" x="679.199219"/>
    </g>
   </g>
   <g id="text_16">
    <!-- absorption by -->
    <g style="fill: #ffffff" transform="translate(206.125313 1251.403565) scale(0.18 -0.18)">
     <use xlink:href="#DejaVuSans-Bold-61"/>
     <use xlink:href="#DejaVuSans-Bold-62" x="67.480469"/>
     <use xlink:href="#DejaVuSans-Bold-73" x="139.0625"/>
     <use xlink:href="#DejaVuSans-Bold-6f" x="198.583984"/>
     <use xlink:href="#DejaVuSans-Bold-72" x="267.285156"/>
     <use xlink:href="#DejaVuSans-Bold-70" x="316.601562"/>
     <use xlink:href="#DejaVuSans-Bold-74" x="388.183594"/>
     <use xlink:href="#DejaVuSans-Bold-69" x="435.986328"/>
     <use xlink:href="#DejaVuSans-Bold-6f" x="470.263672"/>
     <use xlink:href="#DejaVuSans-Bold-6e" x="538.964844"/>
     <use xlink:href="#DejaVuSans-Bold-20" x="610.15625"/>
     <use xlink:href="#DejaVuSans-Bold-62" x="644.970703"/>
     <use xlink:href="#DejaVuSans-Bold-79" x="716.552734"/>
    </g>
   </g>
   <g id="text_17">
    <!-- chlorophyll -->
    <g style="fill: #ffffff" transform="translate(219.961406 1267.337315) scale(0.18 -0.18)">
     <use xlink:href="#DejaVuSans-Bold-63"/>
     <use xlink:href="#DejaVuSans-Bold-68" x="59.277344"/>
     <use xlink:href="#DejaVuSans-Bold-6c" x="130.46875"/>
     <use xlink:href="#DejaVuSans-Bold-6f" x="164.746094"/>
     <use xlink:href="#DejaVuSans-Bold-72" x="233.447266"/>
     <use xlink:href="#DejaVuSans-Bold-6f" x="282.763672"/>
     <use xlink:href="#DejaVuSans-Bold-70" x="351.464844"/>
     <use xlink:href="#DejaVuSans-Bold-68" x="423.046875"/>
     <use xlink:href="#DejaVuSans-Bold-79" x="494.238281"/>
     <use xlink:href="#DejaVuSans-Bold-6c" x="559.423828"/>
     <use xlink:href="#DejaVuSans-Bold-6c" x="593.701172"/>
    </g>
   </g>
   <g id="text_18">
    <!-- Step 3: ATP formation -->
    <g style="fill: #ffffff" transform="translate(164.920781 1317.864501) scale(0.18 -0.18)">
     <defs>
      <path id="DejaVuSans-Bold-33" d="M 2981 2516 
Q 3453 2394 3698 2092 
Q 3944 1791 3944 1325 
Q 3944 631 3412 270 
Q 2881 -91 1863 -91 
Q 1503 -91 1142 -33 
Q 781 25 428 141 
L 428 1069 
Q 766 900 1098 814 
Q 1431 728 1753 728 
Q 2231 728 2486 893 
Q 2741 1059 2741 1369 
Q 2741 1688 2480 1852 
Q 2219 2016 1709 2016 
L 1228 2016 
L 1228 2791 
L 1734 2791 
Q 2188 2791 2409 2933 
Q 2631 3075 2631 3366 
Q 2631 3634 2415 3781 
Q 2200 3928 1806 3928 
Q 1516 3928 1219 3862 
Q 922 3797 628 3669 
L 628 4550 
Q 984 4650 1334 4700 
Q 1684 4750 2022 4750 
Q 2931 4750 3382 4451 
Q 3834 4153 3834 3553 
Q 3834 3144 3618 2883 
Q 3403 2622 2981 2516 
z
" transform="scale(0.015625)"/>
      <path id="DejaVuSans-Bold-41" d="M 3419 850 
L 1538 850 
L 1241 0 
L 31 0 
L 1759 4666 
L 3194 4666 
L 4922 0 
L 3713 0 
L 3419 850 
z
M 1838 1716 
L 3116 1716 
L 2478 3572 
L 1838 1716 
z
" transform="scale(0.015625)"/>
      <path id="DejaVuSans-Bold-6d" d="M 3781 2919 
Q 3994 3244 4286 3414 
Q 4578 3584 4928 3584 
Q 5531 3584 5847 3212 
Q 6163 2841 6163 2131 
L 6163 0 
L 5038 0 
L 5038 1825 
Q 5041 1866 5042 1909 
Q 5044 1953 5044 2034 
Q 5044 2406 4934 2573 
Q 4825 2741 4581 2741 
Q 4263 2741 4089 2478 
Q 3916 2216 3909 1719 
L 3909 0 
L 2784 0 
L 2784 1825 
Q 2784 2406 2684 2573 
Q 2584 2741 2328 2741 
Q 2006 2741 1831 2477 
Q 1656 2213 1656 1722 
L 1656 0 
L 531 0 
L 531 3500 
L 1656 3500 
L 1656 2988 
Q 1863 3284 2130 3434 
Q 2397 3584 2719 3584 
Q 3081 3584 3359 3409 
Q 3638 3234 3781 2919 
z
" transform="scale(0.015625)"/>
     </defs>
     <use xlink:href="#DejaVuSans-Bold-53"/>
     <use xlink:href="#DejaVuSans-Bold-74" x="72.021484"/>
     <use xlink:href="#DejaVuSans-Bold-65" x="119.824219"/>
     <use xlink:href="#DejaVuSans-Bold-70" x="187.646484"/>
     <use xlink:href="#DejaVuSans-Bold-20" x="259.228516"/>
     <use xlink:href="#DejaVuSans-Bold-33" x="294.042969"/>
     <use xlink:href="#DejaVuSans-Bold-3a" x="363.623047"/>
     <use xlink:href="#DejaVuSans-Bold-20" x="403.613281"/>
     <use xlink:href="#DejaVuSans-Bold-41" x="438.427734"/>
     <use xlink:href="#DejaVuSans-Bold-54" x="508.070312"/>
     <use xlink:href="#DejaVuSans-Bold-50" x="576.283203"/>
     <use xlink:href="#DejaVuSans-Bold-20" x="649.574219"/>
     <use xlink:href="#DejaVuSans-Bold-66" x="684.388672"/>
     <use xlink:href="#DejaVuSans-Bold-6f" x="727.894531"/>
     <use xlink:href="#DejaVuSans-Bold-72" x="796.595703"/>
     <use xlink:href="#DejaVuSans-Bold-6d" x="845.912109"/>
     <use xlink:href="#DejaVuSans-Bold-61" x="950.111328"/>
     <use xlink:href="#DejaVuSans-Bold-74" x="1017.591797"/>
     <use xlink:href="#DejaVuSans-Bold-69" x="1065.394531"/>
     <use xlink:href="#DejaVuSans-Bold-6f" x="1099.671875"/>
     <use xlink:href="#DejaVuSans-Bold-6e" x="1168.373047"/>
    </g>
   </g>
   <g id="text_19">
    <!-- Step 2: Water -->
    <g style="fill: #ffffff" transform="translate(971.145 1243.507003) scale(0.18 -0.18)">
     <defs>
      <path id="DejaVuSans-Bold-57" d="M 191 4666 
L 1344 4666 
L 2150 1275 
L 2950 4666 
L 4109 4666 
L 4909 1275 
L 5716 4666 
L 6859 4666 
L 5759 0 
L 4372 0 
L 3525 3547 
L 2688 0 
L 1300 0 
L 191 4666 
z
" transform="scale(0.015625)"/>
     </defs>
     <use xlink:href="#DejaVuSans-Bold-53"/>
     <use xlink:href="#DejaVuSans-Bold-74" x="72.021484"/>
     <use xlink:href="#DejaVuSans-Bold-65" x="119.824219"/>
     <use xlink:href="#DejaVuSans-Bold-70" x="187.646484"/>
     <use xlink:href="#DejaVuSans-Bold-20" x="259.228516"/>
     <use xlink:href="#DejaVuSans-Bold-32" x="294.042969"/>
     <use xlink:href="#DejaVuSans-Bold-3a" x="363.623047"/>
     <use xlink:href="#DejaVuSans-Bold-20" x="403.613281"/>
     <use xlink:href="#DejaVuSans-Bold-57" x="438.427734"/>
     <use xlink:href="#DejaVuSans-Bold-61" x="545.105469"/>
     <use xlink:href="#DejaVuSans-Bold-74" x="612.585938"/>
     <use xlink:href="#DejaVuSans-Bold-65" x="660.388672"/>
     <use xlink:href="#DejaVuSans-Bold-72" x="728.210938"/>
    </g>
   </g>
   <g id="text_20">
    <!-- splitting -->
    <g style="fill: #ffffff" transform="translate(998.613281 1259.37044) scale(0.18 -0.18)">
     <use xlink:href="#DejaVuSans-Bold-73"/>
     <use xlink:href="#DejaVuSans-Bold-70" x="59.521484"/>
     <use xlink:href="#DejaVuSans-Bold-6c" x="131.103516"/>
     <use xlink:href="#DejaVuSans-Bold-69" x="165.380859"/>
     <use xlink:href="#DejaVuSans-Bold-74" x="199.658203"/>
     <use xlink:href="#DejaVuSans-Bold-74" x="247.460938"/>
     <use xlink:href="#DejaVuSans-Bold-69" x="295.263672"/>
     <use xlink:href="#DejaVuSans-Bold-6e" x="329.541016"/>
     <use xlink:href="#DejaVuSans-Bold-67" x="400.732422"/>
    </g>
   </g>
   <g id="text_21">
    <!-- Step 4: Carbon -->
    <g style="fill: #ffffff" transform="translate(965.514375 1309.897627) scale(0.18 -0.18)">
     <defs>
      <path id="DejaVuSans-Bold-34" d="M 2356 3675 
L 1038 1722 
L 2356 1722 
L 2356 3675 
z
M 2156 4666 
L 3494 4666 
L 3494 1722 
L 4159 1722 
L 4159 850 
L 3494 850 
L 3494 0 
L 2356 0 
L 2356 850 
L 288 850 
L 288 1881 
L 2156 4666 
z
" transform="scale(0.015625)"/>
     </defs>
     <use xlink:href="#DejaVuSans-Bold-53"/>
     <use xlink:href="#DejaVuSans-Bold-74" x="72.021484"/>
     <use xlink:href="#DejaVuSans-Bold-65" x="119.824219"/>
     <use xlink:href="#DejaVuSans-Bold-70" x="187.646484"/>
     <use xlink:href="#DejaVuSans-Bold-20" x="259.228516"/>
     <use xlink:href="#DejaVuSans-Bold-34" x="294.042969"/>
     <use xlink:href="#DejaVuSans-Bold-3a" x="363.623047"/>
     <use xlink:href="#DejaVuSans-Bold-20" x="403.613281"/>
     <use xlink:href="#DejaVuSans-Bold-43" x="438.427734"/>
     <use xlink:href="#DejaVuSans-Bold-61" x="511.816406"/>
     <use xlink:href="#DejaVuSans-Bold-72" x="579.296875"/>
     <use xlink:href="#DejaVuSans-Bold-62" x="628.613281"/>
     <use xlink:href="#DejaVuSans-Bold-6f" x="700.195312"/>
     <use xlink:href="#DejaVuSans-Bold-6e" x="768.896484"/>
    </g>
   </g>
   <g id="text_22">
    <!-- fixation -->
    <g style="fill: #ffffff" transform="translate(1002.263906 1325.831376) scale(0.18 -0.18)">
     <use xlink:href="#DejaVuSans-Bold-66"/>
     <use xlink:href="#DejaVuSans-Bold-69" x="43.505859"/>
     <use xlink:href="#DejaVuSans-Bold-78" x="77.783203"/>
     <use xlink:href="#DejaVuSans-Bold-61" x="142.285156"/>
     <use xlink:href="#DejaVuSans-Bold-74" x="209.765625"/>
     <use xlink:href="#DejaVuSans-Bold-69" x="257.568359"/>
     <use xlink:href="#DejaVuSans-Bold-6f" x="291.845703"/>
     <use xlink:href="#DejaVuSans-Bold-6e" x="360.546875"/>
    </g>
   </g>
   <g id="text_23">
    <!-- Glucose production -->
    <g transform="translate(178.263281 1576.787933) scale(0.18 -0.18)">
     <defs>
      <path id="DejaVuSans-Bold-47" d="M 4781 347 
Q 4331 128 3847 18 
Q 3363 -91 2847 -91 
Q 1681 -91 1000 561 
Q 319 1213 319 2328 
Q 319 3456 1012 4103 
Q 1706 4750 2913 4750 
Q 3378 4750 3804 4662 
Q 4231 4575 4609 4403 
L 4609 3438 
Q 4219 3659 3833 3768 
Q 3447 3878 3059 3878 
Q 2341 3878 1952 3476 
Q 1563 3075 1563 2328 
Q 1563 1588 1938 1184 
Q 2313 781 3003 781 
Q 3191 781 3352 804 
Q 3513 828 3641 878 
L 3641 1784 
L 2906 1784 
L 2906 2591 
L 4781 2591 
L 4781 347 
z
" transform="scale(0.015625)"/>
     </defs>
     <use xlink:href="#DejaVuSans-Bold-47"/>
     <use xlink:href="#DejaVuSans-Bold-6c" x="82.080078"/>
     <use xlink:href="#DejaVuSans-Bold-75" x="116.357422"/>
     <use xlink:href="#DejaVuSans-Bold-63" x="187.548828"/>
     <use xlink:href="#DejaVuSans-Bold-6f" x="246.826172"/>
     <use xlink:href="#DejaVuSans-Bold-73" x="315.527344"/>
     <use xlink:href="#DejaVuSans-Bold-65" x="375.048828"/>
     <use xlink:href="#DejaVuSans-Bold-20" x="442.871094"/>
     <use xlink:href="#DejaVuSans-Bold-70" x="477.685547"/>
     <use xlink:href="#DejaVuSans-Bold-72" x="549.267578"/>
     <use xlink:href="#DejaVuSans-Bold-6f" x="598.583984"/>
     <use xlink:href="#DejaVuSans-Bold-64" x="667.285156"/>
     <use xlink:href="#DejaVuSans-Bold-75" x="738.867188"/>
     <use xlink:href="#DejaVuSans-Bold-63" x="810.058594"/>
     <use xlink:href="#DejaVuSans-Bold-74" x="869.335938"/>
     <use xlink:href="#DejaVuSans-Bold-69" x="917.138672"/>
     <use xlink:href="#DejaVuSans-Bold-6f" x="951.416016"/>
     <use xlink:href="#DejaVuSans-Bold-6e" x="1020.117188"/>
    </g>
   </g>
   <g id="text_24">
    <!-- Oxygen release -->
    <g transform="translate(962.443125 1576.71762) scale(0.18 -0.18)">
     <use xlink:href="#DejaVuSans-Bold-4f"/>
     <use xlink:href="#DejaVuSans-Bold-78" x="85.009766"/>
     <use xlink:href="#DejaVuSans-Bold-79" x="149.511719"/>
     <use xlink:href="#DejaVuSans-Bold-67" x="214.697266"/>
     <use xlink:href="#DejaVuSans-Bold-65" x="286.279297"/>
     <use xlink:href="#DejaVuSans-Bold-6e" x="354.101562"/>
     <use xlink:href="#DejaVuSans-Bold-20" x="425.292969"/>
     <use xlink:href="#DejaVuSans-Bold-72" x="460.107422"/>
     <use xlink:href="#DejaVuSans-Bold-65" x="509.423828"/>
     <use xlink:href="#DejaVuSans-Bold-6c" x="577.246094"/>
     <use xlink:href="#DejaVuSans-Bold-65" x="611.523438"/>
     <use xlink:href="#DejaVuSans-Bold-61" x="679.345703"/>
     <use xlink:href="#DejaVuSans-Bold-73" x="746.826172"/>
     <use xlink:href="#DejaVuSans-Bold-65" x="806.347656"/>
    </g>
   </g>
   <g id="text_25">
    <!-- Chlorophyll -->
    <g transform="translate(218.691563 1835.641052) scale(0.18 -0.18)">
     <use xlink:href="#DejaVuSans-Bold-43"/>
     <use xlink:href="#DejaVuSans-Bold-68" x="73.388672"/>
     <use xlink:href="#DejaVuSans-Bold-6c" x="144.580078"/>
     <use xlink:href="#DejaVuSans-Bold-6f" x="178.857422"/>
     <use xlink:href="#DejaVuSans-Bold-72" x="247.558594"/>
     <use xlink:href="#DejaVuSans-Bold-6f" x="296.875"/>
     <use xlink:href="#DejaVuSans-Bold-70" x="365.576172"/>
     <use xlink:href="#DejaVuSans-Bold-68" x="437.158203"/>
     <use xlink:href="#DejaVuSans-Bold-79" x="508.349609"/>
     <use xlink:href="#DejaVuSans-Bold-6c" x="573.535156"/>
     <use xlink:href="#DejaVuSans-Bold-6c" x="607.8125"/>
    </g>
   </g>
   <g id="text_26">
    <!-- Sunlight -->
    <g transform="translate(233.863594 1902.031675) scale(0.18 -0.18)">
     <use xlink:href="#DejaVuSans-Bold-53"/>
     <use xlink:href="#DejaVuSans-Bold-75" x="72.021484"/>
     <use xlink:href="#DejaVuSans-Bold-6e" x="143.212891"/>
     <use xlink:href="#DejaVuSans-Bold-6c" x="214.404297"/>
     <use xlink:href="#DejaVuSans-Bold-69" x="248.681641"/>
     <use xlink:href="#DejaVuSans-Bold-67" x="282.958984"/>
     <use xlink:href="#DejaVuSans-Bold-68" x="354.541016"/>
     <use xlink:href="#DejaVuSans-Bold-74" x="425.732422"/>
    </g>
   </g>
   <g id="text_27">
    <!-- Water molecules -->
    <g transform="translate(956.428594 1835.711364) scale(0.18 -0.18)">
     <use xlink:href="#DejaVuSans-Bold-57"/>
     <use xlink:href="#DejaVuSans-Bold-61" x="106.677734"/>
     <use xlink:href="#DejaVuSans-Bold-74" x="174.158203"/>
     <use xlink:href="#DejaVuSans-Bold-65" x="221.960938"/>
     <use xlink:href="#DejaVuSans-Bold-72" x="289.783203"/>
     <use xlink:href="#DejaVuSans-Bold-20" x="339.099609"/>
     <use xlink:href="#DejaVuSans-Bold-6d" x="373.914062"/>
     <use xlink:href="#DejaVuSans-Bold-6f" x="478.113281"/>
     <use xlink:href="#DejaVuSans-Bold-6c" x="546.814453"/>
     <use xlink:href="#DejaVuSans-Bold-65" x="581.091797"/>
     <use xlink:href="#DejaVuSans-Bold-63" x="648.914062"/>
     <use xlink:href="#DejaVuSans-Bold-75" x="708.191406"/>
     <use xlink:href="#DejaVuSans-Bold-6c" x="779.382812"/>
     <use xlink:href="#DejaVuSans-Bold-65" x="813.660156"/>
     <use xlink:href="#DejaVuSans-Bold-73" x="881.482422"/>
    </g>
   </g>
   <g id="text_28">
    <!-- Chloroplasts in plant -->
    <g transform="translate(170.894531 2153.058544) scale(0.18 -0.18)">
     <use xlink:href="#DejaVuSans-Bold-43"/>
     <use xlink:href="#DejaVuSans-Bold-68" x="73.388672"/>
     <use xlink:href="#DejaVuSans-Bold-6c" x="144.580078"/>
     <use xlink:href="#DejaVuSans-Bold-6f" x="178.857422"/>
     <use xlink:href="#DejaVuSans-Bold-72" x="247.558594"/>
     <use xlink:href="#DejaVuSans-Bold-6f" x="296.875"/>
     <use xlink:href="#DejaVuSans-Bold-70" x="365.576172"/>
     <use xlink:href="#DejaVuSans-Bold-6c" x="437.158203"/>
     <use xlink:href="#DejaVuSans-Bold-61" x="471.435547"/>
     <use xlink:href="#DejaVuSans-Bold-73" x="538.916016"/>
     <use xlink:href="#DejaVuSans-Bold-74" x="598.4375"/>
     <use xlink:href="#DejaVuSans-Bold-73" x="646.240234"/>
     <use xlink:href="#DejaVuSans-Bold-20" x="705.761719"/>
     <use xlink:href="#DejaVuSans-Bold-69" x="740.576172"/>
     <use xlink:href="#DejaVuSans-Bold-6e" x="774.853516"/>
     <use xlink:href="#DejaVuSans-Bold-20" x="846.044922"/>
     <use xlink:href="#DejaVuSans-Bold-70" x="880.859375"/>
     <use xlink:href="#DejaVuSans-Bold-6c" x="952.441406"/>
     <use xlink:href="#DejaVuSans-Bold-61" x="986.71875"/>
     <use xlink:href="#DejaVuSans-Bold-6e" x="1054.199219"/>
     <use xlink:href="#DejaVuSans-Bold-74" x="1125.390625"/>
    </g>
   </g>
   <g id="text_29">
    <!-- cells -->
    <g transform="translate(253.513125 2168.992294) scale(0.18 -0.18)">
     <use xlink:href="#DejaVuSans-Bold-63"/>
     <use xlink:href="#DejaVuSans-Bold-65" x="59.277344"/>
     <use xlink:href="#DejaVuSans-Bold-6c" x="127.099609"/>
     <use xlink:href="#DejaVuSans-Bold-6c" x="161.376953"/>
     <use xlink:href="#DejaVuSans-Bold-73" x="195.654297"/>
    </g>
   </g>
   <g id="text_30">
    <!-- Oxygenic -->
    <g transform="translate(229.782656 2411.911663) scale(0.18 -0.18)">
     <use xlink:href="#DejaVuSans-Bold-4f"/>
     <use xlink:href="#DejaVuSans-Bold-78" x="85.009766"/>
     <use xlink:href="#DejaVuSans-Bold-79" x="149.511719"/>
     <use xlink:href="#DejaVuSans-Bold-67" x="214.697266"/>
     <use xlink:href="#DejaVuSans-Bold-65" x="286.279297"/>
     <use xlink:href="#DejaVuSans-Bold-6e" x="354.101562"/>
     <use xlink:href="#DejaVuSans-Bold-69" x="425.292969"/>
     <use xlink:href="#DejaVuSans-Bold-63" x="459.570312"/>
    </g>
   </g>
   <g id="text_31">
    <!-- photosynthesis -->
    <g transform="translate(198.721406 2427.845413) scale(0.18 -0.18)">
     <use xlink:href="#DejaVuSans-Bold-70"/>
     <use xlink:href="#DejaVuSans-Bold-68" x="71.582031"/>
     <use xlink:href="#DejaVuSans-Bold-6f" x="142.773438"/>
     <use xlink:href="#DejaVuSans-Bold-74" x="211.474609"/>
     <use xlink:href="#DejaVuSans-Bold-6f" x="259.277344"/>
     <use xlink:href="#DejaVuSans-Bold-73" x="327.978516"/>
     <use xlink:href="#DejaVuSans-Bold-79" x="387.5"/>
     <use xlink:href="#DejaVuSans-Bold-6e" x="452.685547"/>
     <use xlink:href="#DejaVuSans-Bold-74" x="523.876953"/>
     <use xlink:href="#DejaVuSans-Bold-68" x="571.679688"/>
     <use xlink:href="#DejaVuSans-Bold-65" x="642.871094"/>
     <use xlink:href="#DejaVuSans-Bold-73" x="710.693359"/>
     <use xlink:href="#DejaVuSans-Bold-69" x="770.214844"/>
     <use xlink:href="#DejaVuSans-Bold-73" x="804.492188"/>
    </g>
   </g>
   <g id="text_32">
    <!-- Anoxygenic -->
    <g transform="translate(982.51875 2411.911663) scale(0.18 -0.18)">
     <use xlink:href="#DejaVuSans-Bold-41"/>
     <use xlink:href="#DejaVuSans-Bold-6e" x="77.392578"/>
     <use xlink:href="#DejaVuSans-Bold-6f" x="148.583984"/>
     <use xlink:href="#DejaVuSans-Bold-78" x="217.285156"/>
     <use xlink:href="#DejaVuSans-Bold-79" x="281.787109"/>
     <use xlink:href="#DejaVuSans-Bold-67" x="346.972656"/>
     <use xlink:href="#DejaVuSans-Bold-65" x="418.554688"/>
     <use xlink:href="#DejaVuSans-Bold-6e" x="486.376953"/>
     <use xlink:href="#DejaVuSans-Bold-69" x="557.568359"/>
     <use xlink:href="#DejaVuSans-Bold-63" x="591.845703"/>
    </g>
   </g>
   <g id="text_33">
    <!-- photosynthesis -->
    <g transform="translate(963.361406 2427.845413) scale(0.18 -0.18)">
     <use xlink:href="#DejaVuSans-Bold-70"/>
     <use xlink:href="#DejaVuSans-Bold-68" x="71.582031"/>
     <use xlink:href="#DejaVuSans-Bold-6f" x="142.773438"/>
     <use xlink:href="#DejaVuSans-Bold-74" x="211.474609"/>
     <use xlink:href="#DejaVuSans-Bold-6f" x="259.277344"/>
     <use xlink:href="#DejaVuSans-Bold-73" x="327.978516"/>
     <use xlink:href="#DejaVuSans-Bold-79" x="387.5"/>
     <use xlink:href="#DejaVuSans-Bold-6e" x="452.685547"/>
     <use xlink:href="#DejaVuSans-Bold-74" x="523.876953"/>
     <use xlink:href="#DejaVuSans-Bold-68" x="571.679688"/>
     <use xlink:href="#DejaVuSans-Bold-65" x="642.871094"/>
     <use xlink:href="#DejaVuSans-Bold-73" x="710.693359"/>
     <use xlink:href="#DejaVuSans-Bold-69" x="770.214844"/>
     <use xlink:href="#DejaVuSans-Bold-73" x="804.492188"/>
    </g>
   </g>
   <g id="patch_37">
    <path d="M 510.12 340.938899 
L 807.48 340.938899 
Q 812.5776 340.938899 812.5776 336.955461 
L 812.5776 270.564838 
Q 812.5776 266.581401 807.48 266.581401 
L 510.12 266.581401 
Q 505.0224 266.581401 505.0224 270.564838 
L 505.0224 336.955461 
Q 505.0224 340.938899 510.12 340.938899 
z
" clip-path="url(#pe6dcd6c53a)" style="fill: #1976d2; stroke: #0d47a1; stroke-width: 2.5; stroke-linejoin: miter"/>
   </g>
   <g id="patch_38">
    <path d="M 510.12 599.86233 
L 807.48 599.86233 
Q 812.5776 599.86233 812.5776 595.878893 
L 812.5776 529.488269 
Q 812.5776 525.504832 807.48 525.504832 
L 510.12 525.504832 
Q 505.0224 525.504832 505.0224 529.488269 
L 505.0224 595.878893 
Q 505.0224 599.86233 510.12 599.86233 
z
" clip-path="url(#pe6dcd6c53a)" style="fill: #1976d2; stroke: #0d47a1; stroke-width: 2.5; stroke-linejoin: miter"/>
   </g>
   <g id="patch_39">
    <path d="M 510.12 858.785762 
L 807.48 858.785762 
Q 812.5776 858.785762 812.5776 854.802324 
L 812.5776 788.411701 
Q 812.5776 784.428264 807.48 784.428264 
L 510.12 784.428264 
Q 505.0224 784.428264 505.0224 788.411701 
L 505.0224 854.802324 
Q 505.0224 858.785762 510.12 858.785762 
z
" clip-path="url(#pe6dcd6c53a)" style="fill: #1976d2; stroke: #0d47a1; stroke-width: 2.5; stroke-linejoin: miter"/>
   </g>
   <g id="patch_40">
    <path d="M 510.12 1184.099817 
L 807.48 1184.099817 
Q 812.5776 1184.099817 812.5776 1180.116379 
L 812.5776 1113.725756 
Q 812.5776 1109.742319 807.48 1109.742319 
L 510.12 1109.742319 
Q 505.0224 1109.742319 505.0224 1113.725756 
L 505.0224 1180.116379 
Q 505.0224 1184.099817 510.12 1184.099817 
z
" clip-path="url(#pe6dcd6c53a)" style="fill: #1976d2; stroke: #0d47a1; stroke-width: 2.5; stroke-linejoin: miter"/>
   </g>
   <g id="patch_41">
    <path d="M 510.12 1509.413872 
L 807.48 1509.413872 
Q 812.5776 1509.413872 812.5776 1505.430434 
L 812.5776 1439.039811 
Q 812.5776 1435.056373 807.48 1435.056373 
L 510.12 1435.056373 
Q 505.0224 1435.056373 505.0224 1439.039811 
L 505.0224 1505.430434 
Q 505.0224 1509.413872 510.12 1509.413872 
z
" clip-path="url(#pe6dcd6c53a)" style="fill: #1976d2; stroke: #0d47a1; stroke-width: 2.5; stroke-linejoin: miter"/>
   </g>
   <g id="patch_42">
    <path d="M 510.12 1768.337303 
L 807.48 1768.337303 
Q 812.5776 1768.337303 812.5776 1764.353866 
L 812.5776 1697.963242 
Q 812.5776 1693.979805 807.48 1693.979805 
L 510.12 1693.979805 
Q 505.0224 1693.979805 505.0224 1697.963242 
L 505.0224 1764.353866 
Q 505.0224 1768.337303 510.12 1768.337303 
z
" clip-path="url(#pe6dcd6c53a)" style="fill: #1976d2; stroke: #0d47a1; stroke-width: 2.5; stroke-linejoin: miter"/>
   </g>
   <g id="patch_43">
    <path d="M 510.12 2093.651358 
L 807.48 2093.651358 
Q 812.5776 2093.651358 812.5776 2089.667921 
L 812.5776 2023.277297 
Q 812.5776 2019.29386 807.48 2019.29386 
L 510.12 2019.29386 
Q 505.0224 2019.29386 505.0224 2023.277297 
L 505.0224 2089.667921 
Q 505.0224 2093.651358 510.12 2093.651358 
z
" clip-path="url(#pe6dcd6c53a)" style="fill: #1976d2; stroke: #0d47a1; stroke-width: 2.5; stroke-linejoin: miter"/>
   </g>
   <g id="patch_44">
    <path d="M 510.12 2352.57479 
L 807.48 2352.57479 
Q 812.5776 2352.57479 812.5776 2348.591352 
L 812.5776 2282.200729 
Q 812.5776 2278.217291 807.48 2278.217291 
L 510.12 2278.217291 
Q 505.0224 2278.217291 505.0224 2282.200729 
L 505.0224 2348.591352 
Q 505.0224 2352.57479 510.12 2352.57479 
z
" clip-path="url(#pe6dcd6c53a)" style="fill: #1976d2; stroke: #0d47a1; stroke-width: 2.5; stroke-linejoin: miter"/>
   </g>
   <g id="text_34">
    <!-- Definition -->
    <g style="fill: #ffffff" transform="translate(597.633125 309.830775) scale(0.22 -0.22)">
     <defs>
      <path id="DejaVuSans-Bold-44" d="M 1791 3756 
L 1791 909 
L 2222 909 
Q 2959 909 3348 1275 
Q 3738 1641 3738 2338 
Q 3738 3031 3350 3393 
Q 2963 3756 2222 3756 
L 1791 3756 
z
M 588 4666 
L 1856 4666 
Q 2919 4666 3439 4514 
Q 3959 4363 4331 4000 
Q 4659 3684 4818 3271 
Q 4978 2859 4978 2338 
Q 4978 1809 4818 1395 
Q 4659 981 4331 666 
Q 3956 303 3431 151 
Q 2906 0 1856 0 
L 588 0 
L 588 4666 
z
" transform="scale(0.015625)"/>
     </defs>
     <use xlink:href="#DejaVuSans-Bold-44"/>
     <use xlink:href="#DejaVuSans-Bold-65" x="83.007812"/>
     <use xlink:href="#DejaVuSans-Bold-66" x="150.830078"/>
     <use xlink:href="#DejaVuSans-Bold-69" x="194.335938"/>
     <use xlink:href="#DejaVuSans-Bold-6e" x="228.613281"/>
     <use xlink:href="#DejaVuSans-Bold-69" x="299.804688"/>
     <use xlink:href="#DejaVuSans-Bold-74" x="334.082031"/>
     <use xlink:href="#DejaVuSans-Bold-69" x="381.884766"/>
     <use xlink:href="#DejaVuSans-Bold-6f" x="416.162109"/>
     <use xlink:href="#DejaVuSans-Bold-6e" x="484.863281"/>
    </g>
   </g>
   <g id="text_35">
    <!-- Purpose -->
    <g style="fill: #ffffff" transform="translate(608.043594 568.754206) scale(0.22 -0.22)">
     <use xlink:href="#DejaVuSans-Bold-50"/>
     <use xlink:href="#DejaVuSans-Bold-75" x="73.291016"/>
     <use xlink:href="#DejaVuSans-Bold-72" x="144.482422"/>
     <use xlink:href="#DejaVuSans-Bold-70" x="193.798828"/>
     <use xlink:href="#DejaVuSans-Bold-6f" x="265.380859"/>
     <use xlink:href="#DejaVuSans-Bold-73" x="334.082031"/>
     <use xlink:href="#DejaVuSans-Bold-65" x="393.603516"/>
    </g>
   </g>
   <g id="text_36">
    <!-- Prerequisites -->
    <g style="fill: #ffffff" transform="translate(575.908125 827.677638) scale(0.22 -0.22)">
     <defs>
      <path id="DejaVuSans-Bold-71" d="M 2181 2772 
Q 1825 2772 1636 2509 
Q 1447 2247 1447 1747 
Q 1447 1247 1636 984 
Q 1825 722 2181 722 
Q 2541 722 2730 984 
Q 2919 1247 2919 1747 
Q 2919 2247 2730 2509 
Q 2541 2772 2181 2772 
z
M 2919 506 
Q 2688 197 2409 53 
Q 2131 -91 1766 -91 
Q 1119 -91 703 423 
Q 288 938 288 1747 
Q 288 2556 703 3067 
Q 1119 3578 1766 3578 
Q 2131 3578 2409 3434 
Q 2688 3291 2919 2981 
L 2919 3500 
L 4044 3500 
L 4044 -1331 
L 2919 -1331 
L 2919 506 
z
" transform="scale(0.015625)"/>
     </defs>
     <use xlink:href="#DejaVuSans-Bold-50"/>
     <use xlink:href="#DejaVuSans-Bold-72" x="73.291016"/>
     <use xlink:href="#DejaVuSans-Bold-65" x="122.607422"/>
     <use xlink:href="#DejaVuSans-Bold-72" x="190.429688"/>
     <use xlink:href="#DejaVuSans-Bold-65" x="239.746094"/>
     <use xlink:href="#DejaVuSans-Bold-71" x="307.568359"/>
     <use xlink:href="#DejaVuSans-Bold-75" x="379.150391"/>
     <use xlink:href="#DejaVuSans-Bold-69" x="450.341797"/>
     <use xlink:href="#DejaVuSans-Bold-73" x="484.619141"/>
     <use xlink:href="#DejaVuSans-Bold-69" x="544.140625"/>
     <use xlink:href="#DejaVuSans-Bold-74" x="578.417969"/>
     <use xlink:href="#DejaVuSans-Bold-65" x="626.220703"/>
     <use xlink:href="#DejaVuSans-Bold-73" x="694.042969"/>
    </g>
   </g>
   <g id="text_37">
    <!-- Steps -->
    <g style="fill: #ffffff" transform="translate(623.739219 1152.991693) scale(0.22 -0.22)">
     <use xlink:href="#DejaVuSans-Bold-53"/>
     <use xlink:href="#DejaVuSans-Bold-74" x="72.021484"/>
     <use xlink:href="#DejaVuSans-Bold-65" x="119.824219"/>
     <use xlink:href="#DejaVuSans-Bold-70" x="187.646484"/>
     <use xlink:href="#DejaVuSans-Bold-73" x="259.228516"/>
    </g>
   </g>
   <g id="text_38">
    <!-- Result -->
    <g style="fill: #ffffff" transform="translate(619.462969 1478.305748) scale(0.22 -0.22)">
     <defs>
      <path id="DejaVuSans-Bold-52" d="M 2297 2597 
Q 2675 2597 2839 2737 
Q 3003 2878 3003 3200 
Q 3003 3519 2839 3656 
Q 2675 3794 2297 3794 
L 1791 3794 
L 1791 2597 
L 2297 2597 
z
M 1791 1766 
L 1791 0 
L 588 0 
L 588 4666 
L 2425 4666 
Q 3347 4666 3776 4356 
Q 4206 4047 4206 3378 
Q 4206 2916 3982 2619 
Q 3759 2322 3309 2181 
Q 3556 2125 3751 1926 
Q 3947 1728 4147 1325 
L 4800 0 
L 3519 0 
L 2950 1159 
Q 2778 1509 2601 1637 
Q 2425 1766 2131 1766 
L 1791 1766 
z
" transform="scale(0.015625)"/>
     </defs>
     <use xlink:href="#DejaVuSans-Bold-52"/>
     <use xlink:href="#DejaVuSans-Bold-65" x="77.001953"/>
     <use xlink:href="#DejaVuSans-Bold-73" x="144.824219"/>
     <use xlink:href="#DejaVuSans-Bold-75" x="204.345703"/>
     <use xlink:href="#DejaVuSans-Bold-6c" x="275.537109"/>
     <use xlink:href="#DejaVuSans-Bold-74" x="309.814453"/>
    </g>
   </g>
   <g id="text_39">
    <!-- Entities Involved -->
    <g style="fill: #ffffff" transform="translate(554.633438 1737.229179) scale(0.22 -0.22)">
     <defs>
      <path id="DejaVuSans-Bold-45" d="M 588 4666 
L 3834 4666 
L 3834 3756 
L 1791 3756 
L 1791 2888 
L 3713 2888 
L 3713 1978 
L 1791 1978 
L 1791 909 
L 3903 909 
L 3903 0 
L 588 0 
L 588 4666 
z
" transform="scale(0.015625)"/>
      <path id="DejaVuSans-Bold-49" d="M 588 4666 
L 1791 4666 
L 1791 0 
L 588 0 
L 588 4666 
z
" transform="scale(0.015625)"/>
      <path id="DejaVuSans-Bold-76" d="M 97 3500 
L 1216 3500 
L 2088 1081 
L 2956 3500 
L 4078 3500 
L 2700 0 
L 1472 0 
L 97 3500 
z
" transform="scale(0.015625)"/>
     </defs>
     <use xlink:href="#DejaVuSans-Bold-45"/>
     <use xlink:href="#DejaVuSans-Bold-6e" x="68.310547"/>
     <use xlink:href="#DejaVuSans-Bold-74" x="139.501953"/>
     <use xlink:href="#DejaVuSans-Bold-69" x="187.304688"/>
     <use xlink:href="#DejaVuSans-Bold-74" x="221.582031"/>
     <use xlink:href="#DejaVuSans-Bold-69" x="269.384766"/>
     <use xlink:href="#DejaVuSans-Bold-65" x="303.662109"/>
     <use xlink:href="#DejaVuSans-Bold-73" x="371.484375"/>
     <use xlink:href="#DejaVuSans-Bold-20" x="431.005859"/>
     <use xlink:href="#DejaVuSans-Bold-49" x="465.820312"/>
     <use xlink:href="#DejaVuSans-Bold-6e" x="503.027344"/>
     <use xlink:href="#DejaVuSans-Bold-76" x="574.21875"/>
     <use xlink:href="#DejaVuSans-Bold-6f" x="639.404297"/>
     <use xlink:href="#DejaVuSans-Bold-6c" x="708.105469"/>
     <use xlink:href="#DejaVuSans-Bold-76" x="742.382812"/>
     <use xlink:href="#DejaVuSans-Bold-65" x="807.568359"/>
     <use xlink:href="#DejaVuSans-Bold-64" x="875.390625"/>
    </g>
   </g>
   <g id="text_40">
    <!-- Where does it occur? -->
    <g style="fill: #ffffff" transform="translate(528.29875 2062.543234) scale(0.22 -0.22)">
     <defs>
      <path id="DejaVuSans-Bold-3f" d="M 2216 1575 
L 1088 1575 
L 1088 1728 
Q 1088 1984 1191 2182 
Q 1294 2381 1625 2688 
L 1825 2869 
Q 2003 3031 2086 3175 
Q 2169 3319 2169 3463 
Q 2169 3681 2019 3804 
Q 1869 3928 1600 3928 
Q 1347 3928 1053 3823 
Q 759 3719 441 3513 
L 441 4494 
Q 819 4625 1131 4687 
Q 1444 4750 1734 4750 
Q 2497 4750 2897 4439 
Q 3297 4128 3297 3531 
Q 3297 3225 3175 2983 
Q 3053 2741 2759 2463 
L 2559 2284 
Q 2347 2091 2281 1973 
Q 2216 1856 2216 1716 
L 2216 1575 
z
M 1088 1113 
L 2216 1113 
L 2216 0 
L 1088 0 
L 1088 1113 
z
" transform="scale(0.015625)"/>
     </defs>
     <use xlink:href="#DejaVuSans-Bold-57"/>
     <use xlink:href="#DejaVuSans-Bold-68" x="110.302734"/>
     <use xlink:href="#DejaVuSans-Bold-65" x="181.494141"/>
     <use xlink:href="#DejaVuSans-Bold-72" x="249.316406"/>
     <use xlink:href="#DejaVuSans-Bold-65" x="298.632812"/>
     <use xlink:href="#DejaVuSans-Bold-20" x="366.455078"/>
     <use xlink:href="#DejaVuSans-Bold-64" x="401.269531"/>
     <use xlink:href="#DejaVuSans-Bold-6f" x="472.851562"/>
     <use xlink:href="#DejaVuSans-Bold-65" x="541.552734"/>
     <use xlink:href="#DejaVuSans-Bold-73" x="609.375"/>
     <use xlink:href="#DejaVuSans-Bold-20" x="668.896484"/>
     <use xlink:href="#DejaVuSans-Bold-69" x="703.710938"/>
     <use xlink:href="#DejaVuSans-Bold-74" x="737.988281"/>
     <use xlink:href="#DejaVuSans-Bold-20" x="785.791016"/>
     <use xlink:href="#DejaVuSans-Bold-6f" x="820.605469"/>
     <use xlink:href="#DejaVuSans-Bold-63" x="889.306641"/>
     <use xlink:href="#DejaVuSans-Bold-63" x="948.583984"/>
     <use xlink:href="#DejaVuSans-Bold-75" x="1007.861328"/>
     <use xlink:href="#DejaVuSans-Bold-72" x="1079.052734"/>
     <use xlink:href="#DejaVuSans-Bold-3f" x="1128.369141"/>
    </g>
   </g>
   <g id="text_41">
    <!-- Types -->
    <g style="fill: #ffffff" transform="translate(623.550156 2321.294791) scale(0.22 -0.22)">
     <use xlink:href="#DejaVuSans-Bold-54"/>
     <use xlink:href="#DejaVuSans-Bold-79" x="56.337891"/>
     <use xlink:href="#DejaVuSans-Bold-70" x="121.523438"/>
     <use xlink:href="#DejaVuSans-Bold-65" x="193.105469"/>
     <use xlink:href="#DejaVuSans-Bold-73" x="260.927734"/>
    </g>
   </g>
   <g id="patch_45">
    <path d="M 497.376 245.668354 
L 820.224 245.668354 
Q 826.596 245.668354 826.596 240.689057 
L 826.596 167.659372 
Q 826.596 162.680075 820.224 162.680075 
L 497.376 162.680075 
Q 491.004 162.680075 491.004 167.659372 
L 491.004 240.689057 
Q 491.004 245.668354 497.376 245.668354 
z
" clip-path="url(#pe6dcd6c53a)" style="fill: #2e7d32; stroke: #1b5e20; stroke-width: 3; stroke-linejoin: miter"/>
   </g>
   <g id="text_42">
    <!-- photosynthesis -->
    <g style="fill: #ffffff" transform="translate(494.642969 214.511402) scale(0.38 -0.38)">
     <use xlink:href="#DejaVuSans-Bold-70"/>
     <use xlink:href="#DejaVuSans-Bold-68" x="71.582031"/>
     <use xlink:href="#DejaVuSans-Bold-6f" x="142.773438"/>
     <use xlink:href="#DejaVuSans-Bold-74" x="211.474609"/>
     <use xlink:href="#DejaVuSans-Bold-6f" x="259.277344"/>
     <use xlink:href="#DejaVuSans-Bold-73" x="327.978516"/>
     <use xlink:href="#DejaVuSans-Bold-79" x="387.5"/>
     <use xlink:href="#DejaVuSans-Bold-6e" x="452.685547"/>
     <use xlink:href="#DejaVuSans-Bold-74" x="523.876953"/>
     <use xlink:href="#DejaVuSans-Bold-68" x="571.679688"/>
     <use xlink:href="#DejaVuSans-Bold-65" x="642.871094"/>
     <use xlink:href="#DejaVuSans-Bold-73" x="710.693359"/>
     <use xlink:href="#DejaVuSans-Bold-69" x="770.214844"/>
     <use xlink:href="#DejaVuSans-Bold-73" x="804.492188"/>
    </g>
   </g>
  </g>
 </g>
 <defs>
  <clipPath id="pe6dcd6c53a">
   <rect x="21.6" y="21.6" width="1274.4" height="2592.553846"/>
  </clipPath>
 </defs>
</svg>
