<?xml version="1.0" encoding="utf-8" standalone="no"?>
<!DOCTYPE svg PUBLIC "-//W3C//DTD SVG 1.1//EN"
  "http://www.w3.org/Graphics/SVG/1.1/DTD/svg11.dtd">
<svg xmlns:xlink="http://www.w3.org/1999/xlink" width="1634.4pt" height="1634.4pt" viewBox="0 0 1634.4 1634.4" xmlns="http://www.w3.org/2000/svg" version="1.1">
 <metadata>
  <rdf:RDF xmlns:dc="http://purl.org/dc/elements/1.1/" xmlns:cc="http://creativecommons.org/ns#" xmlns:rdf="http://www.w3.org/1999/02/22-rdf-syntax-ns#">
   <cc:Work>
    <dc:type rdf:resource="http://purl.org/dc/dcmitype/StillImage"/>
    <dc:date>2026-02-20T12:15:05.591487</dc:date>
    <dc:format>image/svg+xml</dc:format>
    <dc:creator>
     <cc:Agent>
      <dc:title>Matplotlib v3.9.4, https://matplotlib.org/</dc:title>
     </cc:Agent>
    </dc:creator>
   </cc:Work>
  </rdf:RDF>
 </metadata>
 <defs>
  <style type="text/css">*{stroke-linejoin: round; stroke-linecap: butt}</style>
 </defs>
 <g id="figure_1">
  <g id="patch_1">
   <path d="M 0 1634.4 
L 1634.4 1634.4 
L 1634.4 0 
L 0 0 
z
" style="fill: #ffffff"/>
  </g>
  <g id="axes_1">
   <g id="text_1">
    <g id="patch_2">
     <path d="M 241.651085 314.763832 
L 381.78421 314.763832 
Q 394.98421 314.763832 394.98421 301.563832 
L 394.98421 280.271957 
Q 394.98421 267.071957 381.78421 267.071957 
L 241.651085 267.071957 
Q 228.451085 267.071957 228.451085 280.271957 
L 228.451085 301.563832 
Q 228.451085 314.763832 241.651085 314.763832 
z
" style="fill: #0d47a1; stroke: #01579b; stroke-width: 2.5; stroke-linejoin: miter"/>
    </g>
    <!-- TAXONOMY -->
    <g style="fill: #ffffff" transform="translate(241.651085 296.98852) scale(0.22 -0.22)">
     <defs>
      <path id="DejaVuSans-Bold-54" d="M 31 4666 
L 4331 4666 
L 4331 3756 
L 2784 3756 
L 2784 0 
L 1581 0 
L 1581 3756 
L 31 3756 
L 31 4666 
z
" transform="scale(0.015625)"/>
      <path id="DejaVuSans-Bold-41" d="M 3419 850 
L 1538 850 
L 1241 0 
L 31 0 
L 1759 4666 
L 3194 4666 
L 4922 0 
L 3713 0 
L 3419 850 
z
M 1838 1716 
L 3116 1716 
L 2478 3572 
L 1838 1716 
z
" transform="scale(0.015625)"/>
      <path id="DejaVuSans-Bold-58" d="M 3188 2381 
L 4806 0 
L 3553 0 
L 2463 1594 
L 1381 0 
L 122 0 
L 1741 2381 
L 184 4666 
L 1441 4666 
L 2463 3163 
L 3481 4666 
L 4744 4666 
L 3188 2381 
z
" transform="scale(0.015625)"/>
      <path id="DejaVuSans-Bold-4f" d="M 2719 3878 
Q 2169 3878 1866 3472 
Q 1563 3066 1563 2328 
Q 1563 1594 1866 1187 
Q 2169 781 2719 781 
Q 3272 781 3575 1187 
Q 3878 1594 3878 2328 
Q 3878 3066 3575 3472 
Q 3272 3878 2719 3878 
z
M 2719 4750 
Q 3844 4750 4481 4106 
Q 5119 3463 5119 2328 
Q 5119 1197 4481 553 
Q 3844 -91 2719 -91 
Q 1597 -91 958 553 
Q 319 1197 319 2328 
Q 319 3463 958 4106 
Q 1597 4750 2719 4750 
z
" transform="scale(0.015625)"/>
      <path id="DejaVuSans-Bold-4e" d="M 588 4666 
L 1931 4666 
L 3628 1466 
L 3628 4666 
L 4769 4666 
L 4769 0 
L 3425 0 
L 1728 3200 
L 1728 0 
L 588 0 
L 588 4666 
z
" transform="scale(0.015625)"/>
      <path id="DejaVuSans-Bold-4d" d="M 588 4666 
L 2119 4666 
L 3181 2169 
L 4250 4666 
L 5778 4666 
L 5778 0 
L 4641 0 
L 4641 3413 
L 3566 897 
L 2803 897 
L 1728 3413 
L 1728 0 
L 588 0 
L 588 4666 
z
" transform="scale(0.015625)"/>
      <path id="DejaVuSans-Bold-59" d="M -63 4666 
L 1253 4666 
L 2316 3003 
L 3378 4666 
L 4697 4666 
L 2919 1966 
L 2919 0 
L 1716 0 
L 1716 1966 
L -63 4666 
z
" transform="scale(0.015625)"/>
     </defs>
     <use xlink:href="#DejaVuSans-Bold-54"/>
     <use xlink:href="#DejaVuSans-Bold-41" x="60.462891"/>
     <use xlink:href="#DejaVuSans-Bold-58" x="137.855469"/>
     <use xlink:href="#DejaVuSans-Bold-4f" x="211.330078"/>
     <use xlink:href="#DejaVuSans-Bold-4e" x="296.339844"/>
     <use xlink:href="#DejaVuSans-Bold-4f" x="380.03125"/>
     <use xlink:href="#DejaVuSans-Bold-4d" x="465.041016"/>
     <use xlink:href="#DejaVuSans-Bold-59" x="564.552734"/>
    </g>
   </g>
   <g id="line2d_1">
    <path d="M 311.717647 1265.362105 
L 311.717647 1191.353684 
" clip-path="url(#pbb059efb43)" style="fill: none; stroke: #1565c0; stroke-width: 3.5; stroke-linecap: square"/>
   </g>
   <g id="line2d_2">
    <path d="M 311.717647 1117.345263 
L 311.717647 1043.336842 
" clip-path="url(#pbb059efb43)" style="fill: none; stroke: #1565c0; stroke-width: 3.5; stroke-linecap: square"/>
   </g>
   <g id="line2d_3">
    <path d="M 311.717647 969.328421 
L 311.717647 895.32 
" clip-path="url(#pbb059efb43)" style="fill: none; stroke: #1565c0; stroke-width: 3.5; stroke-linecap: square"/>
   </g>
   <g id="line2d_4">
    <path d="M 311.717647 821.311579 
L 311.717647 747.303158 
" clip-path="url(#pbb059efb43)" style="fill: none; stroke: #1565c0; stroke-width: 3.5; stroke-linecap: square"/>
   </g>
   <g id="line2d_5">
    <path d="M 311.717647 673.294737 
L 311.717647 599.286316 
" clip-path="url(#pbb059efb43)" style="fill: none; stroke: #1565c0; stroke-width: 3.5; stroke-linecap: square"/>
   </g>
   <g id="line2d_6">
    <path d="M 311.717647 525.277895 
L 311.717647 451.269474 
" clip-path="url(#pbb059efb43)" style="fill: none; stroke: #1565c0; stroke-width: 3.5; stroke-linecap: square"/>
   </g>
   <g id="patch_3">
    <path d="M 438.088235 414.265263 
Q 529.994118 414.265263 455.550353 858.315789 
" clip-path="url(#pbb059efb43)" style="fill: none; stroke: #1565c0; stroke-width: 3.5; stroke-linejoin: miter"/>
   </g>
   <g id="patch_4">
    <path d="M 185.347059 1345.537895 
L 438.088235 1345.537895 
Q 444.981176 1345.537895 444.981176 1339.370526 
L 444.981176 1265.362105 
Q 444.981176 1259.194737 438.088235 1259.194737 
L 185.347059 1259.194737 
Q 178.454118 1259.194737 178.454118 1265.362105 
L 178.454118 1339.370526 
Q 178.454118 1345.537895 185.347059 1345.537895 
z
" clip-path="url(#pbb059efb43)" style="fill: #b76feb; stroke: #01579b; stroke-width: 2.2; stroke-linejoin: miter"/>
   </g>
   <g id="patch_5">
    <path d="M 185.347059 1197.521053 
L 438.088235 1197.521053 
Q 444.981176 1197.521053 444.981176 1191.353684 
L 444.981176 1117.345263 
Q 444.981176 1111.177895 438.088235 1111.177895 
L 185.347059 1111.177895 
Q 178.454118 1111.177895 178.454118 1117.345263 
L 178.454118 1191.353684 
Q 178.454118 1197.521053 185.347059 1197.521053 
z
" clip-path="url(#pbb059efb43)" style="fill: #c18de7; stroke: #01579b; stroke-width: 2.2; stroke-linejoin: miter"/>
   </g>
   <g id="patch_6">
    <path d="M 185.347059 1049.504211 
L 438.088235 1049.504211 
Q 444.981176 1049.504211 444.981176 1043.336842 
L 444.981176 969.328421 
Q 444.981176 963.161053 438.088235 963.161053 
L 185.347059 963.161053 
Q 178.454118 963.161053 178.454118 969.328421 
L 178.454118 1043.336842 
Q 178.454118 1049.504211 185.347059 1049.504211 
z
" clip-path="url(#pbb059efb43)" style="fill: #af82ce; stroke: #01579b; stroke-width: 2.2; stroke-linejoin: miter"/>
   </g>
   <g id="patch_7">
    <path d="M 185.347059 901.487368 
L 438.088235 901.487368 
Q 444.981176 901.487368 444.981176 895.32 
L 444.981176 821.311579 
Q 444.981176 815.144211 438.088235 815.144211 
L 185.347059 815.144211 
Q 178.454118 815.144211 178.454118 821.311579 
L 178.454118 895.32 
Q 178.454118 901.487368 185.347059 901.487368 
z
" clip-path="url(#pbb059efb43)" style="fill: #a36cca; stroke: #01579b; stroke-width: 2.2; stroke-linejoin: miter"/>
   </g>
   <g id="patch_8">
    <path d="M 185.347059 753.470526 
L 438.088235 753.470526 
Q 444.981176 753.470526 444.981176 747.303158 
L 444.981176 673.294737 
Q 444.981176 667.127368 438.088235 667.127368 
L 185.347059 667.127368 
Q 178.454118 667.127368 178.454118 673.294737 
L 178.454118 747.303158 
Q 178.454118 753.470526 185.347059 753.470526 
z
" clip-path="url(#pbb059efb43)" style="fill: #c89fe6; stroke: #01579b; stroke-width: 2.2; stroke-linejoin: miter"/>
   </g>
   <g id="patch_9">
    <path d="M 185.347059 605.453684 
L 438.088235 605.453684 
Q 444.981176 605.453684 444.981176 599.286316 
L 444.981176 525.277895 
Q 444.981176 519.110526 438.088235 519.110526 
L 185.347059 519.110526 
Q 178.454118 519.110526 178.454118 525.277895 
L 178.454118 599.286316 
Q 178.454118 605.453684 185.347059 605.453684 
z
" clip-path="url(#pbb059efb43)" style="fill: #c086e9; stroke: #01579b; stroke-width: 2.2; stroke-linejoin: miter"/>
   </g>
   <g id="patch_10">
    <path d="M 185.347059 457.436842 
L 438.088235 457.436842 
Q 444.981176 457.436842 444.981176 451.269474 
L 444.981176 377.261053 
Q 444.981176 371.093684 438.088235 371.093684 
L 185.347059 371.093684 
Q 178.454118 371.093684 178.454118 377.261053 
L 178.454118 451.269474 
Q 178.454118 457.436842 185.347059 457.436842 
z
" clip-path="url(#pbb059efb43)" style="fill: #af7fd1; stroke: #01579b; stroke-width: 2.2; stroke-linejoin: miter"/>
   </g>
   <g id="text_2">
    <!-- Species Ulothrix -->
    <g transform="translate(210.69296 1298.569151) scale(0.22 -0.22)">
     <defs>
      <path id="DejaVuSans-Bold-53" d="M 3834 4519 
L 3834 3531 
Q 3450 3703 3084 3790 
Q 2719 3878 2394 3878 
Q 1963 3878 1756 3759 
Q 1550 3641 1550 3391 
Q 1550 3203 1689 3098 
Q 1828 2994 2194 2919 
L 2706 2816 
Q 3484 2659 3812 2340 
Q 4141 2022 4141 1434 
Q 4141 663 3683 286 
Q 3225 -91 2284 -91 
Q 1841 -91 1394 -6 
Q 947 78 500 244 
L 500 1259 
Q 947 1022 1364 901 
Q 1781 781 2169 781 
Q 2563 781 2772 912 
Q 2981 1044 2981 1288 
Q 2981 1506 2839 1625 
Q 2697 1744 2272 1838 
L 1806 1941 
Q 1106 2091 782 2419 
Q 459 2747 459 3303 
Q 459 4000 909 4375 
Q 1359 4750 2203 4750 
Q 2588 4750 2994 4692 
Q 3400 4634 3834 4519 
z
" transform="scale(0.015625)"/>
      <path id="DejaVuSans-Bold-70" d="M 1656 506 
L 1656 -1331 
L 538 -1331 
L 538 3500 
L 1656 3500 
L 1656 2988 
Q 1888 3294 2169 3439 
Q 2450 3584 2816 3584 
Q 3463 3584 3878 3070 
Q 4294 2556 4294 1747 
Q 4294 938 3878 423 
Q 3463 -91 2816 -91 
Q 2450 -91 2169 54 
Q 1888 200 1656 506 
z
M 2400 2772 
Q 2041 2772 1848 2508 
Q 1656 2244 1656 1747 
Q 1656 1250 1848 986 
Q 2041 722 2400 722 
Q 2759 722 2948 984 
Q 3138 1247 3138 1747 
Q 3138 2247 2948 2509 
Q 2759 2772 2400 2772 
z
" transform="scale(0.015625)"/>
      <path id="DejaVuSans-Bold-65" d="M 4031 1759 
L 4031 1441 
L 1416 1441 
Q 1456 1047 1700 850 
Q 1944 653 2381 653 
Q 2734 653 3104 758 
Q 3475 863 3866 1075 
L 3866 213 
Q 3469 63 3072 -14 
Q 2675 -91 2278 -91 
Q 1328 -91 801 392 
Q 275 875 275 1747 
Q 275 2603 792 3093 
Q 1309 3584 2216 3584 
Q 3041 3584 3536 3087 
Q 4031 2591 4031 1759 
z
M 2881 2131 
Q 2881 2450 2695 2645 
Q 2509 2841 2209 2841 
Q 1884 2841 1681 2658 
Q 1478 2475 1428 2131 
L 2881 2131 
z
" transform="scale(0.015625)"/>
      <path id="DejaVuSans-Bold-63" d="M 3366 3391 
L 3366 2478 
Q 3138 2634 2908 2709 
Q 2678 2784 2431 2784 
Q 1963 2784 1702 2511 
Q 1441 2238 1441 1747 
Q 1441 1256 1702 982 
Q 1963 709 2431 709 
Q 2694 709 2930 787 
Q 3166 866 3366 1019 
L 3366 103 
Q 3103 6 2833 -42 
Q 2563 -91 2291 -91 
Q 1344 -91 809 395 
Q 275 881 275 1747 
Q 275 2613 809 3098 
Q 1344 3584 2291 3584 
Q 2566 3584 2833 3536 
Q 3100 3488 3366 3391 
z
" transform="scale(0.015625)"/>
      <path id="DejaVuSans-Bold-69" d="M 538 3500 
L 1656 3500 
L 1656 0 
L 538 0 
L 538 3500 
z
M 538 4863 
L 1656 4863 
L 1656 3950 
L 538 3950 
L 538 4863 
z
" transform="scale(0.015625)"/>
      <path id="DejaVuSans-Bold-73" d="M 3272 3391 
L 3272 2541 
Q 2913 2691 2578 2766 
Q 2244 2841 1947 2841 
Q 1628 2841 1473 2761 
Q 1319 2681 1319 2516 
Q 1319 2381 1436 2309 
Q 1553 2238 1856 2203 
L 2053 2175 
Q 2913 2066 3209 1816 
Q 3506 1566 3506 1031 
Q 3506 472 3093 190 
Q 2681 -91 1863 -91 
Q 1516 -91 1145 -36 
Q 775 19 384 128 
L 384 978 
Q 719 816 1070 734 
Q 1422 653 1784 653 
Q 2113 653 2278 743 
Q 2444 834 2444 1013 
Q 2444 1163 2330 1236 
Q 2216 1309 1875 1350 
L 1678 1375 
Q 931 1469 631 1722 
Q 331 1975 331 2491 
Q 331 3047 712 3315 
Q 1094 3584 1881 3584 
Q 2191 3584 2531 3537 
Q 2872 3491 3272 3391 
z
" transform="scale(0.015625)"/>
      <path id="DejaVuSans-Bold-20" transform="scale(0.015625)"/>
      <path id="DejaVuSans-Bold-55" d="M 588 4666 
L 1791 4666 
L 1791 1869 
Q 1791 1291 1980 1042 
Q 2169 794 2597 794 
Q 3028 794 3217 1042 
Q 3406 1291 3406 1869 
L 3406 4666 
L 4609 4666 
L 4609 1869 
Q 4609 878 4112 393 
Q 3616 -91 2597 -91 
Q 1581 -91 1084 393 
Q 588 878 588 1869 
L 588 4666 
z
" transform="scale(0.015625)"/>
      <path id="DejaVuSans-Bold-6c" d="M 538 4863 
L 1656 4863 
L 1656 0 
L 538 0 
L 538 4863 
z
" transform="scale(0.015625)"/>
      <path id="DejaVuSans-Bold-6f" d="M 2203 2784 
Q 1831 2784 1636 2517 
Q 1441 2250 1441 1747 
Q 1441 1244 1636 976 
Q 1831 709 2203 709 
Q 2569 709 2762 976 
Q 2956 1244 2956 1747 
Q 2956 2250 2762 2517 
Q 2569 2784 2203 2784 
z
M 2203 3584 
Q 3106 3584 3614 3096 
Q 4122 2609 4122 1747 
Q 4122 884 3614 396 
Q 3106 -91 2203 -91 
Q 1297 -91 786 396 
Q 275 884 275 1747 
Q 275 2609 786 3096 
Q 1297 3584 2203 3584 
z
" transform="scale(0.015625)"/>
      <path id="DejaVuSans-Bold-74" d="M 1759 4494 
L 1759 3500 
L 2913 3500 
L 2913 2700 
L 1759 2700 
L 1759 1216 
Q 1759 972 1856 886 
Q 1953 800 2241 800 
L 2816 800 
L 2816 0 
L 1856 0 
Q 1194 0 917 276 
Q 641 553 641 1216 
L 641 2700 
L 84 2700 
L 84 3500 
L 641 3500 
L 641 4494 
L 1759 4494 
z
" transform="scale(0.015625)"/>
      <path id="DejaVuSans-Bold-68" d="M 4056 2131 
L 4056 0 
L 2931 0 
L 2931 347 
L 2931 1625 
Q 2931 2084 2911 2256 
Q 2891 2428 2841 2509 
Q 2775 2619 2662 2680 
Q 2550 2741 2406 2741 
Q 2056 2741 1856 2470 
Q 1656 2200 1656 1722 
L 1656 0 
L 538 0 
L 538 4863 
L 1656 4863 
L 1656 2988 
Q 1909 3294 2193 3439 
Q 2478 3584 2822 3584 
Q 3428 3584 3742 3212 
Q 4056 2841 4056 2131 
z
" transform="scale(0.015625)"/>
      <path id="DejaVuSans-Bold-72" d="M 3138 2547 
Q 2991 2616 2845 2648 
Q 2700 2681 2553 2681 
Q 2122 2681 1889 2404 
Q 1656 2128 1656 1613 
L 1656 0 
L 538 0 
L 538 3500 
L 1656 3500 
L 1656 2925 
Q 1872 3269 2151 3426 
Q 2431 3584 2822 3584 
Q 2878 3584 2943 3579 
Q 3009 3575 3134 3559 
L 3138 2547 
z
" transform="scale(0.015625)"/>
      <path id="DejaVuSans-Bold-78" d="M 1422 1791 
L 159 3500 
L 1344 3500 
L 2059 2463 
L 2784 3500 
L 3969 3500 
L 2706 1797 
L 4031 0 
L 2847 0 
L 2059 1106 
L 1281 0 
L 97 0 
L 1422 1791 
z
" transform="scale(0.015625)"/>
     </defs>
     <use xlink:href="#DejaVuSans-Bold-53"/>
     <use xlink:href="#DejaVuSans-Bold-70" x="72.021484"/>
     <use xlink:href="#DejaVuSans-Bold-65" x="143.603516"/>
     <use xlink:href="#DejaVuSans-Bold-63" x="211.425781"/>
     <use xlink:href="#DejaVuSans-Bold-69" x="270.703125"/>
     <use xlink:href="#DejaVuSans-Bold-65" x="304.980469"/>
     <use xlink:href="#DejaVuSans-Bold-73" x="372.802734"/>
     <use xlink:href="#DejaVuSans-Bold-20" x="432.324219"/>
     <use xlink:href="#DejaVuSans-Bold-55" x="467.138672"/>
     <use xlink:href="#DejaVuSans-Bold-6c" x="548.339844"/>
     <use xlink:href="#DejaVuSans-Bold-6f" x="582.617188"/>
     <use xlink:href="#DejaVuSans-Bold-74" x="651.318359"/>
     <use xlink:href="#DejaVuSans-Bold-68" x="699.121094"/>
     <use xlink:href="#DejaVuSans-Bold-72" x="770.3125"/>
     <use xlink:href="#DejaVuSans-Bold-69" x="819.628906"/>
     <use xlink:href="#DejaVuSans-Bold-78" x="853.90625"/>
    </g>
   </g>
   <g id="text_3">
    <!-- zonata -->
    <g transform="translate(269.823116 1318.30473) scale(0.22 -0.22)">
     <defs>
      <path id="DejaVuSans-Bold-7a" d="M 366 3500 
L 3419 3500 
L 3419 2719 
L 1575 800 
L 3419 800 
L 3419 0 
L 288 0 
L 288 781 
L 2131 2700 
L 366 2700 
L 366 3500 
z
" transform="scale(0.015625)"/>
      <path id="DejaVuSans-Bold-6e" d="M 4056 2131 
L 4056 0 
L 2931 0 
L 2931 347 
L 2931 1631 
Q 2931 2084 2911 2256 
Q 2891 2428 2841 2509 
Q 2775 2619 2662 2680 
Q 2550 2741 2406 2741 
Q 2056 2741 1856 2470 
Q 1656 2200 1656 1722 
L 1656 0 
L 538 0 
L 538 3500 
L 1656 3500 
L 1656 2988 
Q 1909 3294 2193 3439 
Q 2478 3584 2822 3584 
Q 3428 3584 3742 3212 
Q 4056 2841 4056 2131 
z
" transform="scale(0.015625)"/>
      <path id="DejaVuSans-Bold-61" d="M 2106 1575 
Q 1756 1575 1579 1456 
Q 1403 1338 1403 1106 
Q 1403 894 1545 773 
Q 1688 653 1941 653 
Q 2256 653 2472 879 
Q 2688 1106 2688 1447 
L 2688 1575 
L 2106 1575 
z
M 3816 1997 
L 3816 0 
L 2688 0 
L 2688 519 
Q 2463 200 2181 54 
Q 1900 -91 1497 -91 
Q 953 -91 614 226 
Q 275 544 275 1050 
Q 275 1666 698 1953 
Q 1122 2241 2028 2241 
L 2688 2241 
L 2688 2328 
Q 2688 2594 2478 2717 
Q 2269 2841 1825 2841 
Q 1466 2841 1156 2769 
Q 847 2697 581 2553 
L 581 3406 
Q 941 3494 1303 3539 
Q 1666 3584 2028 3584 
Q 2975 3584 3395 3211 
Q 3816 2838 3816 1997 
z
" transform="scale(0.015625)"/>
     </defs>
     <use xlink:href="#DejaVuSans-Bold-7a"/>
     <use xlink:href="#DejaVuSans-Bold-6f" x="58.203125"/>
     <use xlink:href="#DejaVuSans-Bold-6e" x="126.904297"/>
     <use xlink:href="#DejaVuSans-Bold-61" x="198.095703"/>
     <use xlink:href="#DejaVuSans-Bold-74" x="265.576172"/>
     <use xlink:href="#DejaVuSans-Bold-61" x="313.378906"/>
    </g>
   </g>
   <g id="text_4">
    <!-- Genus Ulothrix -->
    <g transform="translate(219.551397 1160.420099) scale(0.22 -0.22)">
     <defs>
      <path id="DejaVuSans-Bold-47" d="M 4781 347 
Q 4331 128 3847 18 
Q 3363 -91 2847 -91 
Q 1681 -91 1000 561 
Q 319 1213 319 2328 
Q 319 3456 1012 4103 
Q 1706 4750 2913 4750 
Q 3378 4750 3804 4662 
Q 4231 4575 4609 4403 
L 4609 3438 
Q 4219 3659 3833 3768 
Q 3447 3878 3059 3878 
Q 2341 3878 1952 3476 
Q 1563 3075 1563 2328 
Q 1563 1588 1938 1184 
Q 2313 781 3003 781 
Q 3191 781 3352 804 
Q 3513 828 3641 878 
L 3641 1784 
L 2906 1784 
L 2906 2591 
L 4781 2591 
L 4781 347 
z
" transform="scale(0.015625)"/>
      <path id="DejaVuSans-Bold-75" d="M 500 1363 
L 500 3500 
L 1625 3500 
L 1625 3150 
Q 1625 2866 1622 2436 
Q 1619 2006 1619 1863 
Q 1619 1441 1641 1255 
Q 1663 1069 1716 984 
Q 1784 875 1895 815 
Q 2006 756 2150 756 
Q 2500 756 2700 1025 
Q 2900 1294 2900 1772 
L 2900 3500 
L 4019 3500 
L 4019 0 
L 2900 0 
L 2900 506 
Q 2647 200 2364 54 
Q 2081 -91 1741 -91 
Q 1134 -91 817 281 
Q 500 653 500 1363 
z
" transform="scale(0.015625)"/>
     </defs>
     <use xlink:href="#DejaVuSans-Bold-47"/>
     <use xlink:href="#DejaVuSans-Bold-65" x="82.080078"/>
     <use xlink:href="#DejaVuSans-Bold-6e" x="149.902344"/>
     <use xlink:href="#DejaVuSans-Bold-75" x="221.09375"/>
     <use xlink:href="#DejaVuSans-Bold-73" x="292.285156"/>
     <use xlink:href="#DejaVuSans-Bold-20" x="351.806641"/>
     <use xlink:href="#DejaVuSans-Bold-55" x="386.621094"/>
     <use xlink:href="#DejaVuSans-Bold-6c" x="467.822266"/>
     <use xlink:href="#DejaVuSans-Bold-6f" x="502.099609"/>
     <use xlink:href="#DejaVuSans-Bold-74" x="570.800781"/>
     <use xlink:href="#DejaVuSans-Bold-68" x="618.603516"/>
     <use xlink:href="#DejaVuSans-Bold-72" x="689.794922"/>
     <use xlink:href="#DejaVuSans-Bold-69" x="739.111328"/>
     <use xlink:href="#DejaVuSans-Bold-78" x="773.388672"/>
    </g>
   </g>
   <g id="text_5">
    <!-- Family Ulotrichaceae -->
    <g transform="translate(182.067178 1012.317319) scale(0.22 -0.22)">
     <defs>
      <path id="DejaVuSans-Bold-46" d="M 588 4666 
L 3834 4666 
L 3834 3756 
L 1791 3756 
L 1791 2888 
L 3713 2888 
L 3713 1978 
L 1791 1978 
L 1791 0 
L 588 0 
L 588 4666 
z
" transform="scale(0.015625)"/>
      <path id="DejaVuSans-Bold-6d" d="M 3781 2919 
Q 3994 3244 4286 3414 
Q 4578 3584 4928 3584 
Q 5531 3584 5847 3212 
Q 6163 2841 6163 2131 
L 6163 0 
L 5038 0 
L 5038 1825 
Q 5041 1866 5042 1909 
Q 5044 1953 5044 2034 
Q 5044 2406 4934 2573 
Q 4825 2741 4581 2741 
Q 4263 2741 4089 2478 
Q 3916 2216 3909 1719 
L 3909 0 
L 2784 0 
L 2784 1825 
Q 2784 2406 2684 2573 
Q 2584 2741 2328 2741 
Q 2006 2741 1831 2477 
Q 1656 2213 1656 1722 
L 1656 0 
L 531 0 
L 531 3500 
L 1656 3500 
L 1656 2988 
Q 1863 3284 2130 3434 
Q 2397 3584 2719 3584 
Q 3081 3584 3359 3409 
Q 3638 3234 3781 2919 
z
" transform="scale(0.015625)"/>
      <path id="DejaVuSans-Bold-79" d="M 78 3500 
L 1197 3500 
L 2138 1125 
L 2938 3500 
L 4056 3500 
L 2584 -331 
Q 2363 -916 2067 -1148 
Q 1772 -1381 1288 -1381 
L 641 -1381 
L 641 -647 
L 991 -647 
Q 1275 -647 1404 -556 
Q 1534 -466 1606 -231 
L 1638 -134 
L 78 3500 
z
" transform="scale(0.015625)"/>
     </defs>
     <use xlink:href="#DejaVuSans-Bold-46"/>
     <use xlink:href="#DejaVuSans-Bold-61" x="62.435547"/>
     <use xlink:href="#DejaVuSans-Bold-6d" x="129.916016"/>
     <use xlink:href="#DejaVuSans-Bold-69" x="234.115234"/>
     <use xlink:href="#DejaVuSans-Bold-6c" x="268.392578"/>
     <use xlink:href="#DejaVuSans-Bold-79" x="302.669922"/>
     <use xlink:href="#DejaVuSans-Bold-20" x="367.855469"/>
     <use xlink:href="#DejaVuSans-Bold-55" x="402.669922"/>
     <use xlink:href="#DejaVuSans-Bold-6c" x="483.871094"/>
     <use xlink:href="#DejaVuSans-Bold-6f" x="518.148438"/>
     <use xlink:href="#DejaVuSans-Bold-74" x="586.849609"/>
     <use xlink:href="#DejaVuSans-Bold-72" x="634.652344"/>
     <use xlink:href="#DejaVuSans-Bold-69" x="683.96875"/>
     <use xlink:href="#DejaVuSans-Bold-63" x="718.246094"/>
     <use xlink:href="#DejaVuSans-Bold-68" x="777.523438"/>
     <use xlink:href="#DejaVuSans-Bold-61" x="848.714844"/>
     <use xlink:href="#DejaVuSans-Bold-63" x="916.195312"/>
     <use xlink:href="#DejaVuSans-Bold-65" x="975.472656"/>
     <use xlink:href="#DejaVuSans-Bold-61" x="1043.294922"/>
     <use xlink:href="#DejaVuSans-Bold-65" x="1110.775391"/>
    </g>
   </g>
   <g id="text_6">
    <!-- Order Ulotrichales -->
    <g transform="translate(198.085928 864.386414) scale(0.22 -0.22)">
     <defs>
      <path id="DejaVuSans-Bold-64" d="M 2919 2988 
L 2919 4863 
L 4044 4863 
L 4044 0 
L 2919 0 
L 2919 506 
Q 2688 197 2409 53 
Q 2131 -91 1766 -91 
Q 1119 -91 703 423 
Q 288 938 288 1747 
Q 288 2556 703 3070 
Q 1119 3584 1766 3584 
Q 2128 3584 2408 3439 
Q 2688 3294 2919 2988 
z
M 2181 722 
Q 2541 722 2730 984 
Q 2919 1247 2919 1747 
Q 2919 2247 2730 2509 
Q 2541 2772 2181 2772 
Q 1825 2772 1636 2509 
Q 1447 2247 1447 1747 
Q 1447 1247 1636 984 
Q 1825 722 2181 722 
z
" transform="scale(0.015625)"/>
     </defs>
     <use xlink:href="#DejaVuSans-Bold-4f"/>
     <use xlink:href="#DejaVuSans-Bold-72" x="85.009766"/>
     <use xlink:href="#DejaVuSans-Bold-64" x="134.326172"/>
     <use xlink:href="#DejaVuSans-Bold-65" x="205.908203"/>
     <use xlink:href="#DejaVuSans-Bold-72" x="273.730469"/>
     <use xlink:href="#DejaVuSans-Bold-20" x="323.046875"/>
     <use xlink:href="#DejaVuSans-Bold-55" x="357.861328"/>
     <use xlink:href="#DejaVuSans-Bold-6c" x="439.0625"/>
     <use xlink:href="#DejaVuSans-Bold-6f" x="473.339844"/>
     <use xlink:href="#DejaVuSans-Bold-74" x="542.041016"/>
     <use xlink:href="#DejaVuSans-Bold-72" x="589.84375"/>
     <use xlink:href="#DejaVuSans-Bold-69" x="639.160156"/>
     <use xlink:href="#DejaVuSans-Bold-63" x="673.4375"/>
     <use xlink:href="#DejaVuSans-Bold-68" x="732.714844"/>
     <use xlink:href="#DejaVuSans-Bold-61" x="803.90625"/>
     <use xlink:href="#DejaVuSans-Bold-6c" x="871.386719"/>
     <use xlink:href="#DejaVuSans-Bold-65" x="905.664062"/>
     <use xlink:href="#DejaVuSans-Bold-73" x="973.486328"/>
    </g>
   </g>
   <g id="text_7">
    <!-- Class Chlorophyceae -->
    <g transform="translate(183.572803 716.283635) scale(0.22 -0.22)">
     <defs>
      <path id="DejaVuSans-Bold-43" d="M 4288 256 
Q 3956 84 3597 -3 
Q 3238 -91 2847 -91 
Q 1681 -91 1000 561 
Q 319 1213 319 2328 
Q 319 3447 1000 4098 
Q 1681 4750 2847 4750 
Q 3238 4750 3597 4662 
Q 3956 4575 4288 4403 
L 4288 3438 
Q 3953 3666 3628 3772 
Q 3303 3878 2944 3878 
Q 2300 3878 1931 3465 
Q 1563 3053 1563 2328 
Q 1563 1606 1931 1193 
Q 2300 781 2944 781 
Q 3303 781 3628 887 
Q 3953 994 4288 1222 
L 4288 256 
z
" transform="scale(0.015625)"/>
     </defs>
     <use xlink:href="#DejaVuSans-Bold-43"/>
     <use xlink:href="#DejaVuSans-Bold-6c" x="73.388672"/>
     <use xlink:href="#DejaVuSans-Bold-61" x="107.666016"/>
     <use xlink:href="#DejaVuSans-Bold-73" x="175.146484"/>
     <use xlink:href="#DejaVuSans-Bold-73" x="234.667969"/>
     <use xlink:href="#DejaVuSans-Bold-20" x="294.189453"/>
     <use xlink:href="#DejaVuSans-Bold-43" x="329.003906"/>
     <use xlink:href="#DejaVuSans-Bold-68" x="402.392578"/>
     <use xlink:href="#DejaVuSans-Bold-6c" x="473.583984"/>
     <use xlink:href="#DejaVuSans-Bold-6f" x="507.861328"/>
     <use xlink:href="#DejaVuSans-Bold-72" x="576.5625"/>
     <use xlink:href="#DejaVuSans-Bold-6f" x="625.878906"/>
     <use xlink:href="#DejaVuSans-Bold-70" x="694.580078"/>
     <use xlink:href="#DejaVuSans-Bold-68" x="766.162109"/>
     <use xlink:href="#DejaVuSans-Bold-79" x="837.353516"/>
     <use xlink:href="#DejaVuSans-Bold-63" x="902.539062"/>
     <use xlink:href="#DejaVuSans-Bold-65" x="961.816406"/>
     <use xlink:href="#DejaVuSans-Bold-61" x="1029.638672"/>
     <use xlink:href="#DejaVuSans-Bold-65" x="1097.119141"/>
    </g>
   </g>
   <g id="text_8">
    <!-- Division Chlorophyta -->
    <g transform="translate(182.569053 568.266793) scale(0.22 -0.22)">
     <defs>
      <path id="DejaVuSans-Bold-44" d="M 1791 3756 
L 1791 909 
L 2222 909 
Q 2959 909 3348 1275 
Q 3738 1641 3738 2338 
Q 3738 3031 3350 3393 
Q 2963 3756 2222 3756 
L 1791 3756 
z
M 588 4666 
L 1856 4666 
Q 2919 4666 3439 4514 
Q 3959 4363 4331 4000 
Q 4659 3684 4818 3271 
Q 4978 2859 4978 2338 
Q 4978 1809 4818 1395 
Q 4659 981 4331 666 
Q 3956 303 3431 151 
Q 2906 0 1856 0 
L 588 0 
L 588 4666 
z
" transform="scale(0.015625)"/>
      <path id="DejaVuSans-Bold-76" d="M 97 3500 
L 1216 3500 
L 2088 1081 
L 2956 3500 
L 4078 3500 
L 2700 0 
L 1472 0 
L 97 3500 
z
" transform="scale(0.015625)"/>
     </defs>
     <use xlink:href="#DejaVuSans-Bold-44"/>
     <use xlink:href="#DejaVuSans-Bold-69" x="83.007812"/>
     <use xlink:href="#DejaVuSans-Bold-76" x="117.285156"/>
     <use xlink:href="#DejaVuSans-Bold-69" x="182.470703"/>
     <use xlink:href="#DejaVuSans-Bold-73" x="216.748047"/>
     <use xlink:href="#DejaVuSans-Bold-69" x="276.269531"/>
     <use xlink:href="#DejaVuSans-Bold-6f" x="310.546875"/>
     <use xlink:href="#DejaVuSans-Bold-6e" x="379.248047"/>
     <use xlink:href="#DejaVuSans-Bold-20" x="450.439453"/>
     <use xlink:href="#DejaVuSans-Bold-43" x="485.253906"/>
     <use xlink:href="#DejaVuSans-Bold-68" x="558.642578"/>
     <use xlink:href="#DejaVuSans-Bold-6c" x="629.833984"/>
     <use xlink:href="#DejaVuSans-Bold-6f" x="664.111328"/>
     <use xlink:href="#DejaVuSans-Bold-72" x="732.8125"/>
     <use xlink:href="#DejaVuSans-Bold-6f" x="782.128906"/>
     <use xlink:href="#DejaVuSans-Bold-70" x="850.830078"/>
     <use xlink:href="#DejaVuSans-Bold-68" x="922.412109"/>
     <use xlink:href="#DejaVuSans-Bold-79" x="993.603516"/>
     <use xlink:href="#DejaVuSans-Bold-74" x="1058.789062"/>
     <use xlink:href="#DejaVuSans-Bold-61" x="1106.591797"/>
    </g>
   </g>
   <g id="text_9">
    <!-- Kingdom Protista -->
    <g transform="translate(203.695928 420.249951) scale(0.22 -0.22)">
     <defs>
      <path id="DejaVuSans-Bold-4b" d="M 588 4666 
L 1791 4666 
L 1791 2963 
L 3525 4666 
L 4922 4666 
L 2675 2456 
L 5153 0 
L 3647 0 
L 1791 1838 
L 1791 0 
L 588 0 
L 588 4666 
z
" transform="scale(0.015625)"/>
      <path id="DejaVuSans-Bold-67" d="M 2919 594 
Q 2688 288 2409 144 
Q 2131 0 1766 0 
Q 1125 0 706 504 
Q 288 1009 288 1791 
Q 288 2575 706 3076 
Q 1125 3578 1766 3578 
Q 2131 3578 2409 3434 
Q 2688 3291 2919 2981 
L 2919 3500 
L 4044 3500 
L 4044 353 
Q 4044 -491 3511 -936 
Q 2978 -1381 1966 -1381 
Q 1638 -1381 1331 -1331 
Q 1025 -1281 716 -1178 
L 716 -306 
Q 1009 -475 1290 -558 
Q 1572 -641 1856 -641 
Q 2406 -641 2662 -400 
Q 2919 -159 2919 353 
L 2919 594 
z
M 2181 2772 
Q 1834 2772 1640 2515 
Q 1447 2259 1447 1791 
Q 1447 1309 1634 1061 
Q 1822 813 2181 813 
Q 2531 813 2725 1069 
Q 2919 1325 2919 1791 
Q 2919 2259 2725 2515 
Q 2531 2772 2181 2772 
z
" transform="scale(0.015625)"/>
      <path id="DejaVuSans-Bold-50" d="M 588 4666 
L 2584 4666 
Q 3475 4666 3951 4270 
Q 4428 3875 4428 3144 
Q 4428 2409 3951 2014 
Q 3475 1619 2584 1619 
L 1791 1619 
L 1791 0 
L 588 0 
L 588 4666 
z
M 1791 3794 
L 1791 2491 
L 2456 2491 
Q 2806 2491 2997 2661 
Q 3188 2831 3188 3144 
Q 3188 3456 2997 3625 
Q 2806 3794 2456 3794 
L 1791 3794 
z
" transform="scale(0.015625)"/>
     </defs>
     <use xlink:href="#DejaVuSans-Bold-4b"/>
     <use xlink:href="#DejaVuSans-Bold-69" x="77.490234"/>
     <use xlink:href="#DejaVuSans-Bold-6e" x="111.767578"/>
     <use xlink:href="#DejaVuSans-Bold-67" x="182.958984"/>
     <use xlink:href="#DejaVuSans-Bold-64" x="254.541016"/>
     <use xlink:href="#DejaVuSans-Bold-6f" x="326.123047"/>
     <use xlink:href="#DejaVuSans-Bold-6d" x="394.824219"/>
     <use xlink:href="#DejaVuSans-Bold-20" x="499.023438"/>
     <use xlink:href="#DejaVuSans-Bold-50" x="533.837891"/>
     <use xlink:href="#DejaVuSans-Bold-72" x="607.128906"/>
     <use xlink:href="#DejaVuSans-Bold-6f" x="656.445312"/>
     <use xlink:href="#DejaVuSans-Bold-74" x="725.146484"/>
     <use xlink:href="#DejaVuSans-Bold-69" x="772.949219"/>
     <use xlink:href="#DejaVuSans-Bold-73" x="807.226562"/>
     <use xlink:href="#DejaVuSans-Bold-74" x="866.748047"/>
     <use xlink:href="#DejaVuSans-Bold-61" x="914.550781"/>
    </g>
   </g>
   <g id="patch_11">
    <path d="M 866.745601 469.474164 
L 921.889131 457.139427 
L 921.889131 418.079427 
L 866.745601 418.079427 
" clip-path="url(#pbb059efb43)" style="fill: none; opacity: 0.9; stroke: #616161; stroke-width: 2.6; stroke-linejoin: miter"/>
   </g>
   <g id="patch_12">
    <path d="M 866.745601 469.474164 
L 921.889131 457.139427 
L 921.889131 335.847849 
L 866.745601 335.847849 
" clip-path="url(#pbb059efb43)" style="fill: none; opacity: 0.9; stroke: #616161; stroke-width: 2.6; stroke-linejoin: miter"/>
   </g>
   <g id="patch_13">
    <path d="M 866.745601 469.474164 
L 921.889131 457.139427 
L 921.889131 253.61627 
L 866.745601 253.61627 
" clip-path="url(#pbb059efb43)" style="fill: none; opacity: 0.9; stroke: #616161; stroke-width: 2.6; stroke-linejoin: miter"/>
   </g>
   <g id="patch_14">
    <path d="M 1138.870588 899.431579 
L 1194.014118 911.766316 
L 1194.014118 1000.165263 
L 1138.870588 1000.165263 
" clip-path="url(#pbb059efb43)" style="fill: none; opacity: 0.9; stroke: #616161; stroke-width: 2.6; stroke-linejoin: miter"/>
   </g>
   <g id="patch_15">
    <path d="M 1138.870588 899.431579 
L 1194.014118 911.766316 
L 1194.014118 1124.334947 
L 1138.870588 1124.334947 
" clip-path="url(#pbb059efb43)" style="fill: none; opacity: 0.9; stroke: #616161; stroke-width: 2.6; stroke-linejoin: miter"/>
   </g>
   <g id="patch_16">
    <path d="M 1138.870588 899.431579 
L 1194.014118 911.766316 
L 1194.014118 1255.905474 
L 1138.870588 1255.905474 
" clip-path="url(#pbb059efb43)" style="fill: none; opacity: 0.9; stroke: #616161; stroke-width: 2.6; stroke-linejoin: miter"/>
   </g>
   <g id="patch_17">
    <path d="M 866.745601 1247.157415 
L 921.889131 1259.492151 
L 921.889131 1298.552151 
L 866.745601 1298.552151 
" clip-path="url(#pbb059efb43)" style="fill: none; opacity: 0.9; stroke: #616161; stroke-width: 12.6; stroke-linejoin: miter"/>
   </g>
   <g id="patch_18">
    <path d="M 866.745601 1247.157415 
L 921.889131 1259.492151 
L 921.889131 1380.78373 
L 866.745601 1380.78373 
" clip-path="url(#pbb059efb43)" style="fill: none; opacity: 0.9; stroke: #616161; stroke-width: 12.6; stroke-linejoin: miter"/>
   </g>
   <g id="patch_19">
    <path d="M 866.745601 1247.157415 
L 921.889131 1259.492151 
L 921.889131 1463.015309 
L 866.745601 1463.015309 
" clip-path="url(#pbb059efb43)" style="fill: none; opacity: 0.9; stroke: #616161; stroke-width: 12.6; stroke-linejoin: miter"/>
   </g>
   <g id="patch_20">
    <path d="M 751.863248 424.246796 
L 981.627954 424.246796 
Q 988.520896 424.246796 988.520896 418.079427 
L 988.520896 356.405743 
Q 988.520896 350.238375 981.627954 350.238375 
L 751.863248 350.238375 
Q 744.970307 350.238375 744.970307 356.405743 
L 744.970307 418.079427 
Q 744.970307 424.246796 751.863248 424.246796 
z
" clip-path="url(#pbb059efb43)" style="fill: #4ff7de; stroke: #4ff7de; stroke-width: 2.2; stroke-linejoin: miter"/>
   </g>
   <g id="patch_21">
    <path d="M 751.863248 342.015217 
L 981.627954 342.015217 
Q 988.520896 342.015217 988.520896 335.847849 
L 988.520896 274.174164 
Q 988.520896 268.006796 981.627954 268.006796 
L 751.863248 268.006796 
Q 744.970307 268.006796 744.970307 274.174164 
L 744.970307 335.847849 
Q 744.970307 342.015217 751.863248 342.015217 
z
" clip-path="url(#pbb059efb43)" style="fill: #4ff7de; stroke: #4ff7de; stroke-width: 2.2; stroke-linejoin: miter"/>
   </g>
   <g id="patch_22">
    <path d="M 751.863248 259.783638 
L 981.627954 259.783638 
Q 988.520896 259.783638 988.520896 253.61627 
L 988.520896 191.942585 
Q 988.520896 185.775217 981.627954 185.775217 
L 751.863248 185.775217 
Q 744.970307 185.775217 744.970307 191.942585 
L 744.970307 253.61627 
Q 744.970307 259.783638 751.863248 259.783638 
z
" clip-path="url(#pbb059efb43)" style="fill: #4ff7de; stroke: #4ff7de; stroke-width: 2.2; stroke-linejoin: miter"/>
   </g>
   <g id="patch_23">
    <path d="M 751.863248 1366.393204 
L 981.627954 1366.393204 
Q 988.520896 1366.393204 988.520896 1360.225836 
L 988.520896 1298.552151 
Q 988.520896 1292.384783 981.627954 1292.384783 
L 751.863248 1292.384783 
Q 744.970307 1292.384783 744.970307 1298.552151 
L 744.970307 1360.225836 
Q 744.970307 1366.393204 751.863248 1366.393204 
z
" clip-path="url(#pbb059efb43)" style="fill: #f7ec4f; stroke: #f7ec4f; stroke-width: 2.2; stroke-linejoin: miter"/>
   </g>
   <g id="patch_24">
    <path d="M 751.863248 1448.624783 
L 981.627954 1448.624783 
Q 988.520896 1448.624783 988.520896 1442.457415 
L 988.520896 1380.78373 
Q 988.520896 1374.616362 981.627954 1374.616362 
L 751.863248 1374.616362 
Q 744.970307 1374.616362 744.970307 1380.78373 
L 744.970307 1442.457415 
Q 744.970307 1448.624783 751.863248 1448.624783 
z
" clip-path="url(#pbb059efb43)" style="fill: #f7ec4f; stroke: #f7ec4f; stroke-width: 2.2; stroke-linejoin: miter"/>
   </g>
   <g id="patch_25">
    <path d="M 751.863248 1530.856362 
L 981.627954 1530.856362 
Q 988.520896 1530.856362 988.520896 1524.688994 
L 988.520896 1463.015309 
Q 988.520896 1456.847941 981.627954 1456.847941 
L 751.863248 1456.847941 
Q 744.970307 1456.847941 744.970307 1463.015309 
L 744.970307 1524.688994 
Q 744.970307 1530.856362 751.863248 1530.856362 
z
" clip-path="url(#pbb059efb43)" style="fill: #f7ec4f; stroke: #f7ec4f; stroke-width: 2.2; stroke-linejoin: miter"/>
   </g>
   <g id="patch_26">
    <path d="M 823.838651 746.270798 
Q 777.259385 618.514936 866.745601 510.589954 
" clip-path="url(#pbb059efb43)" style="fill: none; stroke: #424242; stroke-width: 3.2; stroke-linejoin: miter"/>
   </g>
   <g id="text_10">
    <!-- Filamentous -->
    <g transform="translate(790.319664 383.445421) scale(0.22 -0.22)">
     <use xlink:href="#DejaVuSans-Bold-46"/>
     <use xlink:href="#DejaVuSans-Bold-69" x="68.310547"/>
     <use xlink:href="#DejaVuSans-Bold-6c" x="102.587891"/>
     <use xlink:href="#DejaVuSans-Bold-61" x="136.865234"/>
     <use xlink:href="#DejaVuSans-Bold-6d" x="204.345703"/>
     <use xlink:href="#DejaVuSans-Bold-65" x="308.544922"/>
     <use xlink:href="#DejaVuSans-Bold-6e" x="376.367188"/>
     <use xlink:href="#DejaVuSans-Bold-74" x="447.558594"/>
     <use xlink:href="#DejaVuSans-Bold-6f" x="495.361328"/>
     <use xlink:href="#DejaVuSans-Bold-75" x="564.0625"/>
     <use xlink:href="#DejaVuSans-Bold-73" x="635.253906"/>
    </g>
   </g>
   <g id="text_11">
    <!-- unbranched chains -->
    <g transform="translate(749.093726 403.181) scale(0.22 -0.22)">
     <defs>
      <path id="DejaVuSans-Bold-62" d="M 2400 722 
Q 2759 722 2948 984 
Q 3138 1247 3138 1747 
Q 3138 2247 2948 2509 
Q 2759 2772 2400 2772 
Q 2041 2772 1848 2508 
Q 1656 2244 1656 1747 
Q 1656 1250 1848 986 
Q 2041 722 2400 722 
z
M 1656 2988 
Q 1888 3294 2169 3439 
Q 2450 3584 2816 3584 
Q 3463 3584 3878 3070 
Q 4294 2556 4294 1747 
Q 4294 938 3878 423 
Q 3463 -91 2816 -91 
Q 2450 -91 2169 54 
Q 1888 200 1656 506 
L 1656 0 
L 538 0 
L 538 4863 
L 1656 4863 
L 1656 2988 
z
" transform="scale(0.015625)"/>
     </defs>
     <use xlink:href="#DejaVuSans-Bold-75"/>
     <use xlink:href="#DejaVuSans-Bold-6e" x="71.191406"/>
     <use xlink:href="#DejaVuSans-Bold-62" x="142.382812"/>
     <use xlink:href="#DejaVuSans-Bold-72" x="213.964844"/>
     <use xlink:href="#DejaVuSans-Bold-61" x="263.28125"/>
     <use xlink:href="#DejaVuSans-Bold-6e" x="330.761719"/>
     <use xlink:href="#DejaVuSans-Bold-63" x="401.953125"/>
     <use xlink:href="#DejaVuSans-Bold-68" x="461.230469"/>
     <use xlink:href="#DejaVuSans-Bold-65" x="532.421875"/>
     <use xlink:href="#DejaVuSans-Bold-64" x="600.244141"/>
     <use xlink:href="#DejaVuSans-Bold-20" x="671.826172"/>
     <use xlink:href="#DejaVuSans-Bold-63" x="706.640625"/>
     <use xlink:href="#DejaVuSans-Bold-68" x="765.917969"/>
     <use xlink:href="#DejaVuSans-Bold-61" x="837.109375"/>
     <use xlink:href="#DejaVuSans-Bold-69" x="904.589844"/>
     <use xlink:href="#DejaVuSans-Bold-6e" x="938.867188"/>
     <use xlink:href="#DejaVuSans-Bold-73" x="1010.058594"/>
    </g>
   </g>
   <g id="text_12">
    <!-- Girdle-shaped -->
    <g transform="translate(779.842164 301.213842) scale(0.22 -0.22)">
     <defs>
      <path id="DejaVuSans-Bold-2d" d="M 347 2297 
L 2309 2297 
L 2309 1388 
L 347 1388 
L 347 2297 
z
" transform="scale(0.015625)"/>
     </defs>
     <use xlink:href="#DejaVuSans-Bold-47"/>
     <use xlink:href="#DejaVuSans-Bold-69" x="82.080078"/>
     <use xlink:href="#DejaVuSans-Bold-72" x="116.357422"/>
     <use xlink:href="#DejaVuSans-Bold-64" x="165.673828"/>
     <use xlink:href="#DejaVuSans-Bold-6c" x="237.255859"/>
     <use xlink:href="#DejaVuSans-Bold-65" x="271.533203"/>
     <use xlink:href="#DejaVuSans-Bold-2d" x="339.355469"/>
     <use xlink:href="#DejaVuSans-Bold-73" x="380.859375"/>
     <use xlink:href="#DejaVuSans-Bold-68" x="440.380859"/>
     <use xlink:href="#DejaVuSans-Bold-61" x="511.572266"/>
     <use xlink:href="#DejaVuSans-Bold-70" x="579.052734"/>
     <use xlink:href="#DejaVuSans-Bold-65" x="650.634766"/>
     <use xlink:href="#DejaVuSans-Bold-64" x="718.457031"/>
    </g>
   </g>
   <g id="text_13">
    <!-- chloroplasts -->
    <g transform="translate(790.665133 320.949421) scale(0.22 -0.22)">
     <use xlink:href="#DejaVuSans-Bold-63"/>
     <use xlink:href="#DejaVuSans-Bold-68" x="59.277344"/>
     <use xlink:href="#DejaVuSans-Bold-6c" x="130.46875"/>
     <use xlink:href="#DejaVuSans-Bold-6f" x="164.746094"/>
     <use xlink:href="#DejaVuSans-Bold-72" x="233.447266"/>
     <use xlink:href="#DejaVuSans-Bold-6f" x="282.763672"/>
     <use xlink:href="#DejaVuSans-Bold-70" x="351.464844"/>
     <use xlink:href="#DejaVuSans-Bold-6c" x="423.046875"/>
     <use xlink:href="#DejaVuSans-Bold-61" x="457.324219"/>
     <use xlink:href="#DejaVuSans-Bold-73" x="524.804688"/>
     <use xlink:href="#DejaVuSans-Bold-74" x="584.326172"/>
     <use xlink:href="#DejaVuSans-Bold-73" x="632.128906"/>
    </g>
   </g>
   <g id="text_14">
    <!-- Cell walls with -->
    <g transform="translate(777.313883 218.982263) scale(0.22 -0.22)">
     <defs>
      <path id="DejaVuSans-Bold-77" d="M 225 3500 
L 1313 3500 
L 1900 1088 
L 2491 3500 
L 3425 3500 
L 4013 1113 
L 4603 3500 
L 5691 3500 
L 4769 0 
L 3547 0 
L 2956 2406 
L 2369 0 
L 1147 0 
L 225 3500 
z
" transform="scale(0.015625)"/>
     </defs>
     <use xlink:href="#DejaVuSans-Bold-43"/>
     <use xlink:href="#DejaVuSans-Bold-65" x="73.388672"/>
     <use xlink:href="#DejaVuSans-Bold-6c" x="141.210938"/>
     <use xlink:href="#DejaVuSans-Bold-6c" x="175.488281"/>
     <use xlink:href="#DejaVuSans-Bold-20" x="209.765625"/>
     <use xlink:href="#DejaVuSans-Bold-77" x="244.580078"/>
     <use xlink:href="#DejaVuSans-Bold-61" x="336.962891"/>
     <use xlink:href="#DejaVuSans-Bold-6c" x="404.443359"/>
     <use xlink:href="#DejaVuSans-Bold-6c" x="438.720703"/>
     <use xlink:href="#DejaVuSans-Bold-73" x="472.998047"/>
     <use xlink:href="#DejaVuSans-Bold-20" x="532.519531"/>
     <use xlink:href="#DejaVuSans-Bold-77" x="567.333984"/>
     <use xlink:href="#DejaVuSans-Bold-69" x="659.716797"/>
     <use xlink:href="#DejaVuSans-Bold-74" x="693.994141"/>
     <use xlink:href="#DejaVuSans-Bold-68" x="741.796875"/>
    </g>
   </g>
   <g id="text_15">
    <!-- cellulose -->
    <g transform="translate(812.054976 238.717842) scale(0.22 -0.22)">
     <use xlink:href="#DejaVuSans-Bold-63"/>
     <use xlink:href="#DejaVuSans-Bold-65" x="59.277344"/>
     <use xlink:href="#DejaVuSans-Bold-6c" x="127.099609"/>
     <use xlink:href="#DejaVuSans-Bold-6c" x="161.376953"/>
     <use xlink:href="#DejaVuSans-Bold-75" x="195.654297"/>
     <use xlink:href="#DejaVuSans-Bold-6c" x="266.845703"/>
     <use xlink:href="#DejaVuSans-Bold-6f" x="301.123047"/>
     <use xlink:href="#DejaVuSans-Bold-73" x="369.824219"/>
     <use xlink:href="#DejaVuSans-Bold-65" x="429.345703"/>
    </g>
   </g>
   <g id="patch_27">
    <path d="M 1013.419059 858.315789 
Q 1076.144824 796.642105 1138.870588 858.315789 
" clip-path="url(#pbb059efb43)" style="fill: none; stroke: #424242; stroke-width: 3.2; stroke-linejoin: miter"/>
   </g>
   <g id="patch_28">
    <path d="M 1023.988235 1068.006316 
L 1253.752941 1068.006316 
Q 1260.645882 1068.006316 1260.645882 1061.838947 
L 1260.645882 1000.165263 
Q 1260.645882 993.997895 1253.752941 993.997895 
L 1023.988235 993.997895 
Q 1017.095294 993.997895 1017.095294 1000.165263 
L 1017.095294 1061.838947 
Q 1017.095294 1068.006316 1023.988235 1068.006316 
z
" clip-path="url(#pbb059efb43)" style="fill: #f7a94f; stroke: #f7a94f; stroke-width: 2.2; stroke-linejoin: miter"/>
   </g>
   <g id="text_16">
    <!-- Vegetative -->
    <g transform="translate(1071.825588 1027.119003) scale(0.22 -0.22)">
     <defs>
      <path id="DejaVuSans-Bold-56" d="M 31 4666 
L 1241 4666 
L 2478 1222 
L 3713 4666 
L 4922 4666 
L 3194 0 
L 1759 0 
L 31 4666 
z
" transform="scale(0.015625)"/>
     </defs>
     <use xlink:href="#DejaVuSans-Bold-56"/>
     <use xlink:href="#DejaVuSans-Bold-65" x="71.892578"/>
     <use xlink:href="#DejaVuSans-Bold-67" x="139.714844"/>
     <use xlink:href="#DejaVuSans-Bold-65" x="211.296875"/>
     <use xlink:href="#DejaVuSans-Bold-74" x="279.119141"/>
     <use xlink:href="#DejaVuSans-Bold-61" x="326.921875"/>
     <use xlink:href="#DejaVuSans-Bold-74" x="394.402344"/>
     <use xlink:href="#DejaVuSans-Bold-69" x="442.205078"/>
     <use xlink:href="#DejaVuSans-Bold-76" x="476.482422"/>
     <use xlink:href="#DejaVuSans-Bold-65" x="541.667969"/>
    </g>
   </g>
   <g id="text_17">
    <!-- fragmentation -->
    <g transform="translate(1049.512776 1046.854582) scale(0.22 -0.22)">
     <defs>
      <path id="DejaVuSans-Bold-66" d="M 2841 4863 
L 2841 4128 
L 2222 4128 
Q 1984 4128 1890 4042 
Q 1797 3956 1797 3744 
L 1797 3500 
L 2753 3500 
L 2753 2700 
L 1797 2700 
L 1797 0 
L 678 0 
L 678 2700 
L 122 2700 
L 122 3500 
L 678 3500 
L 678 3744 
Q 678 4316 997 4589 
Q 1316 4863 1984 4863 
L 2841 4863 
z
" transform="scale(0.015625)"/>
     </defs>
     <use xlink:href="#DejaVuSans-Bold-66"/>
     <use xlink:href="#DejaVuSans-Bold-72" x="43.505859"/>
     <use xlink:href="#DejaVuSans-Bold-61" x="92.822266"/>
     <use xlink:href="#DejaVuSans-Bold-67" x="160.302734"/>
     <use xlink:href="#DejaVuSans-Bold-6d" x="231.884766"/>
     <use xlink:href="#DejaVuSans-Bold-65" x="336.083984"/>
     <use xlink:href="#DejaVuSans-Bold-6e" x="403.90625"/>
     <use xlink:href="#DejaVuSans-Bold-74" x="475.097656"/>
     <use xlink:href="#DejaVuSans-Bold-61" x="522.900391"/>
     <use xlink:href="#DejaVuSans-Bold-74" x="590.380859"/>
     <use xlink:href="#DejaVuSans-Bold-69" x="638.183594"/>
     <use xlink:href="#DejaVuSans-Bold-6f" x="672.460938"/>
     <use xlink:href="#DejaVuSans-Bold-6e" x="741.162109"/>
    </g>
   </g>
   <g id="patch_29">
    <path d="M 1023.988235 1206.977684 
L 1253.752941 1206.977684 
Q 1260.645882 1206.977684 1260.645882 1200.810316 
L 1260.645882 1124.334947 
Q 1260.645882 1118.167579 1253.752941 1118.167579 
L 1023.988235 1118.167579 
Q 1017.095294 1118.167579 1017.095294 1124.334947 
L 1017.095294 1200.810316 
Q 1017.095294 1206.977684 1023.988235 1206.977684 
z
" clip-path="url(#pbb059efb43)" style="fill: #f7a94f; stroke: #f7a94f; stroke-width: 2.2; stroke-linejoin: miter"/>
   </g>
   <g id="text_18">
    <!-- Asexual via -->
    <g transform="translate(1068.035744 1148.907678) scale(0.22 -0.22)">
     <use xlink:href="#DejaVuSans-Bold-41"/>
     <use xlink:href="#DejaVuSans-Bold-73" x="77.392578"/>
     <use xlink:href="#DejaVuSans-Bold-65" x="136.914062"/>
     <use xlink:href="#DejaVuSans-Bold-78" x="204.736328"/>
     <use xlink:href="#DejaVuSans-Bold-75" x="269.238281"/>
     <use xlink:href="#DejaVuSans-Bold-61" x="340.429688"/>
     <use xlink:href="#DejaVuSans-Bold-6c" x="407.910156"/>
     <use xlink:href="#DejaVuSans-Bold-20" x="442.1875"/>
     <use xlink:href="#DejaVuSans-Bold-76" x="477.001953"/>
     <use xlink:href="#DejaVuSans-Bold-69" x="542.1875"/>
     <use xlink:href="#DejaVuSans-Bold-61" x="576.464844"/>
    </g>
   </g>
   <g id="text_19">
    <!-- biflagellate -->
    <g transform="translate(1068.228244 1168.557319) scale(0.22 -0.22)">
     <use xlink:href="#DejaVuSans-Bold-62"/>
     <use xlink:href="#DejaVuSans-Bold-69" x="71.582031"/>
     <use xlink:href="#DejaVuSans-Bold-66" x="105.859375"/>
     <use xlink:href="#DejaVuSans-Bold-6c" x="149.365234"/>
     <use xlink:href="#DejaVuSans-Bold-61" x="183.642578"/>
     <use xlink:href="#DejaVuSans-Bold-67" x="251.123047"/>
     <use xlink:href="#DejaVuSans-Bold-65" x="322.705078"/>
     <use xlink:href="#DejaVuSans-Bold-6c" x="390.527344"/>
     <use xlink:href="#DejaVuSans-Bold-6c" x="424.804688"/>
     <use xlink:href="#DejaVuSans-Bold-61" x="459.082031"/>
     <use xlink:href="#DejaVuSans-Bold-74" x="526.5625"/>
     <use xlink:href="#DejaVuSans-Bold-65" x="574.365234"/>
    </g>
   </g>
   <g id="text_20">
    <!-- zoospores -->
    <g transform="translate(1075.943713 1188.378836) scale(0.22 -0.22)">
     <use xlink:href="#DejaVuSans-Bold-7a"/>
     <use xlink:href="#DejaVuSans-Bold-6f" x="58.203125"/>
     <use xlink:href="#DejaVuSans-Bold-6f" x="126.904297"/>
     <use xlink:href="#DejaVuSans-Bold-73" x="195.605469"/>
     <use xlink:href="#DejaVuSans-Bold-70" x="255.126953"/>
     <use xlink:href="#DejaVuSans-Bold-6f" x="326.708984"/>
     <use xlink:href="#DejaVuSans-Bold-72" x="395.410156"/>
     <use xlink:href="#DejaVuSans-Bold-65" x="444.726562"/>
     <use xlink:href="#DejaVuSans-Bold-73" x="512.548828"/>
    </g>
   </g>
   <g id="patch_30">
    <path d="M 1023.988235 1338.548211 
L 1253.752941 1338.548211 
Q 1260.645882 1338.548211 1260.645882 1332.380842 
L 1260.645882 1255.905474 
Q 1260.645882 1249.738105 1253.752941 1249.738105 
L 1023.988235 1249.738105 
Q 1017.095294 1249.738105 1017.095294 1255.905474 
L 1017.095294 1332.380842 
Q 1017.095294 1338.548211 1023.988235 1338.548211 
z
" clip-path="url(#pbb059efb43)" style="fill: #f7a94f; stroke: #f7a94f; stroke-width: 2.2; stroke-linejoin: miter"/>
   </g>
   <g id="text_21">
    <!-- Sexual by -->
    <g transform="translate(1078.494338 1280.392266) scale(0.22 -0.22)">
     <use xlink:href="#DejaVuSans-Bold-53"/>
     <use xlink:href="#DejaVuSans-Bold-65" x="72.021484"/>
     <use xlink:href="#DejaVuSans-Bold-78" x="139.84375"/>
     <use xlink:href="#DejaVuSans-Bold-75" x="204.345703"/>
     <use xlink:href="#DejaVuSans-Bold-61" x="275.537109"/>
     <use xlink:href="#DejaVuSans-Bold-6c" x="343.017578"/>
     <use xlink:href="#DejaVuSans-Bold-20" x="377.294922"/>
     <use xlink:href="#DejaVuSans-Bold-62" x="412.109375"/>
     <use xlink:href="#DejaVuSans-Bold-79" x="483.691406"/>
    </g>
   </g>
   <g id="text_22">
    <!-- isogamous gamete -->
    <g transform="translate(1021.533244 1300.127845) scale(0.22 -0.22)">
     <use xlink:href="#DejaVuSans-Bold-69"/>
     <use xlink:href="#DejaVuSans-Bold-73" x="34.277344"/>
     <use xlink:href="#DejaVuSans-Bold-6f" x="93.798828"/>
     <use xlink:href="#DejaVuSans-Bold-67" x="162.5"/>
     <use xlink:href="#DejaVuSans-Bold-61" x="234.082031"/>
     <use xlink:href="#DejaVuSans-Bold-6d" x="301.5625"/>
     <use xlink:href="#DejaVuSans-Bold-6f" x="405.761719"/>
     <use xlink:href="#DejaVuSans-Bold-75" x="474.462891"/>
     <use xlink:href="#DejaVuSans-Bold-73" x="545.654297"/>
     <use xlink:href="#DejaVuSans-Bold-20" x="605.175781"/>
     <use xlink:href="#DejaVuSans-Bold-67" x="639.990234"/>
     <use xlink:href="#DejaVuSans-Bold-61" x="711.572266"/>
     <use xlink:href="#DejaVuSans-Bold-6d" x="779.052734"/>
     <use xlink:href="#DejaVuSans-Bold-65" x="883.251953"/>
     <use xlink:href="#DejaVuSans-Bold-74" x="951.074219"/>
     <use xlink:href="#DejaVuSans-Bold-65" x="998.876953"/>
    </g>
   </g>
   <g id="text_23">
    <!-- fusion -->
    <g transform="translate(1100.549338 1319.949362) scale(0.22 -0.22)">
     <use xlink:href="#DejaVuSans-Bold-66"/>
     <use xlink:href="#DejaVuSans-Bold-75" x="43.505859"/>
     <use xlink:href="#DejaVuSans-Bold-73" x="114.697266"/>
     <use xlink:href="#DejaVuSans-Bold-69" x="174.21875"/>
     <use xlink:href="#DejaVuSans-Bold-6f" x="208.496094"/>
     <use xlink:href="#DejaVuSans-Bold-6e" x="277.197266"/>
    </g>
   </g>
   <g id="patch_31">
    <path d="M 823.838651 970.360781 
Q 913.324868 1078.285763 866.745601 1206.041625 
" clip-path="url(#pbb059efb43)" style="fill: none; stroke: #424242; stroke-width: 3.2; stroke-linejoin: miter"/>
   </g>
   <g id="text_24">
    <!-- Freshwater ponds -->
    <g transform="translate(755.429039 1325.591829) scale(0.22 -0.22)">
     <use xlink:href="#DejaVuSans-Bold-46"/>
     <use xlink:href="#DejaVuSans-Bold-72" x="61.935547"/>
     <use xlink:href="#DejaVuSans-Bold-65" x="111.251953"/>
     <use xlink:href="#DejaVuSans-Bold-73" x="179.074219"/>
     <use xlink:href="#DejaVuSans-Bold-68" x="238.595703"/>
     <use xlink:href="#DejaVuSans-Bold-77" x="309.787109"/>
     <use xlink:href="#DejaVuSans-Bold-61" x="402.169922"/>
     <use xlink:href="#DejaVuSans-Bold-74" x="469.650391"/>
     <use xlink:href="#DejaVuSans-Bold-65" x="517.453125"/>
     <use xlink:href="#DejaVuSans-Bold-72" x="585.275391"/>
     <use xlink:href="#DejaVuSans-Bold-20" x="634.591797"/>
     <use xlink:href="#DejaVuSans-Bold-70" x="669.40625"/>
     <use xlink:href="#DejaVuSans-Bold-6f" x="740.988281"/>
     <use xlink:href="#DejaVuSans-Bold-6e" x="809.689453"/>
     <use xlink:href="#DejaVuSans-Bold-64" x="880.880859"/>
     <use xlink:href="#DejaVuSans-Bold-73" x="952.462891"/>
    </g>
   </g>
   <g id="text_25">
    <!-- and streams -->
    <g transform="translate(789.666539 1345.327408) scale(0.22 -0.22)">
     <use xlink:href="#DejaVuSans-Bold-61"/>
     <use xlink:href="#DejaVuSans-Bold-6e" x="67.480469"/>
     <use xlink:href="#DejaVuSans-Bold-64" x="138.671875"/>
     <use xlink:href="#DejaVuSans-Bold-20" x="210.253906"/>
     <use xlink:href="#DejaVuSans-Bold-73" x="245.068359"/>
     <use xlink:href="#DejaVuSans-Bold-74" x="304.589844"/>
     <use xlink:href="#DejaVuSans-Bold-72" x="352.392578"/>
     <use xlink:href="#DejaVuSans-Bold-65" x="401.708984"/>
     <use xlink:href="#DejaVuSans-Bold-61" x="469.53125"/>
     <use xlink:href="#DejaVuSans-Bold-6d" x="537.011719"/>
     <use xlink:href="#DejaVuSans-Bold-73" x="641.210938"/>
    </g>
   </g>
   <g id="text_26">
    <!-- Attached to rocks -->
    <g transform="translate(756.769664 1407.823408) scale(0.22 -0.22)">
     <defs>
      <path id="DejaVuSans-Bold-6b" d="M 538 4863 
L 1656 4863 
L 1656 2216 
L 2944 3500 
L 4244 3500 
L 2534 1894 
L 4378 0 
L 3022 0 
L 1656 1459 
L 1656 0 
L 538 0 
L 538 4863 
z
" transform="scale(0.015625)"/>
     </defs>
     <use xlink:href="#DejaVuSans-Bold-41"/>
     <use xlink:href="#DejaVuSans-Bold-74" x="77.392578"/>
     <use xlink:href="#DejaVuSans-Bold-74" x="125.195312"/>
     <use xlink:href="#DejaVuSans-Bold-61" x="172.998047"/>
     <use xlink:href="#DejaVuSans-Bold-63" x="240.478516"/>
     <use xlink:href="#DejaVuSans-Bold-68" x="299.755859"/>
     <use xlink:href="#DejaVuSans-Bold-65" x="370.947266"/>
     <use xlink:href="#DejaVuSans-Bold-64" x="438.769531"/>
     <use xlink:href="#DejaVuSans-Bold-20" x="510.351562"/>
     <use xlink:href="#DejaVuSans-Bold-74" x="545.166016"/>
     <use xlink:href="#DejaVuSans-Bold-6f" x="592.96875"/>
     <use xlink:href="#DejaVuSans-Bold-20" x="661.669922"/>
     <use xlink:href="#DejaVuSans-Bold-72" x="696.484375"/>
     <use xlink:href="#DejaVuSans-Bold-6f" x="745.800781"/>
     <use xlink:href="#DejaVuSans-Bold-63" x="814.501953"/>
     <use xlink:href="#DejaVuSans-Bold-6b" x="873.779297"/>
     <use xlink:href="#DejaVuSans-Bold-73" x="940.283203"/>
    </g>
   </g>
   <g id="text_27">
    <!-- in cold water -->
    <g transform="translate(786.033101 1427.558987) scale(0.22 -0.22)">
     <use xlink:href="#DejaVuSans-Bold-69"/>
     <use xlink:href="#DejaVuSans-Bold-6e" x="34.277344"/>
     <use xlink:href="#DejaVuSans-Bold-20" x="105.46875"/>
     <use xlink:href="#DejaVuSans-Bold-63" x="140.283203"/>
     <use xlink:href="#DejaVuSans-Bold-6f" x="199.560547"/>
     <use xlink:href="#DejaVuSans-Bold-6c" x="268.261719"/>
     <use xlink:href="#DejaVuSans-Bold-64" x="302.539062"/>
     <use xlink:href="#DejaVuSans-Bold-20" x="374.121094"/>
     <use xlink:href="#DejaVuSans-Bold-77" x="408.935547"/>
     <use xlink:href="#DejaVuSans-Bold-61" x="501.318359"/>
     <use xlink:href="#DejaVuSans-Bold-74" x="568.798828"/>
     <use xlink:href="#DejaVuSans-Bold-65" x="616.601562"/>
     <use xlink:href="#DejaVuSans-Bold-72" x="684.423828"/>
    </g>
   </g>
   <g id="text_28">
    <!-- Moist soil and -->
    <g transform="translate(780.234039 1490.054987) scale(0.22 -0.22)">
     <use xlink:href="#DejaVuSans-Bold-4d"/>
     <use xlink:href="#DejaVuSans-Bold-6f" x="99.511719"/>
     <use xlink:href="#DejaVuSans-Bold-69" x="168.212891"/>
     <use xlink:href="#DejaVuSans-Bold-73" x="202.490234"/>
     <use xlink:href="#DejaVuSans-Bold-74" x="262.011719"/>
     <use xlink:href="#DejaVuSans-Bold-20" x="309.814453"/>
     <use xlink:href="#DejaVuSans-Bold-73" x="344.628906"/>
     <use xlink:href="#DejaVuSans-Bold-6f" x="404.150391"/>
     <use xlink:href="#DejaVuSans-Bold-69" x="472.851562"/>
     <use xlink:href="#DejaVuSans-Bold-6c" x="507.128906"/>
     <use xlink:href="#DejaVuSans-Bold-20" x="541.40625"/>
     <use xlink:href="#DejaVuSans-Bold-61" x="576.220703"/>
     <use xlink:href="#DejaVuSans-Bold-6e" x="643.701172"/>
     <use xlink:href="#DejaVuSans-Bold-64" x="714.892578"/>
    </g>
   </g>
   <g id="text_29">
    <!-- tree trunks -->
    <g transform="translate(797.107008 1509.790566) scale(0.22 -0.22)">
     <use xlink:href="#DejaVuSans-Bold-74"/>
     <use xlink:href="#DejaVuSans-Bold-72" x="47.802734"/>
     <use xlink:href="#DejaVuSans-Bold-65" x="97.119141"/>
     <use xlink:href="#DejaVuSans-Bold-65" x="164.941406"/>
     <use xlink:href="#DejaVuSans-Bold-20" x="232.763672"/>
     <use xlink:href="#DejaVuSans-Bold-74" x="267.578125"/>
     <use xlink:href="#DejaVuSans-Bold-72" x="315.380859"/>
     <use xlink:href="#DejaVuSans-Bold-75" x="364.697266"/>
     <use xlink:href="#DejaVuSans-Bold-6e" x="435.888672"/>
     <use xlink:href="#DejaVuSans-Bold-6b" x="507.080078"/>
     <use xlink:href="#DejaVuSans-Bold-73" x="573.583984"/>
    </g>
   </g>
   <g id="patch_32">
    <path d="M 740.375013 557.873112 
L 993.11619 557.873112 
Q 1000.009131 557.873112 1000.009131 551.705743 
L 1000.009131 469.474164 
Q 1000.009131 463.306796 993.11619 463.306796 
L 740.375013 463.306796 
Q 733.482072 463.306796 733.482072 469.474164 
L 733.482072 551.705743 
Q 733.482072 557.873112 740.375013 557.873112 
z
" clip-path="url(#pbb059efb43)" style="fill: #1565c0; stroke: #0d47a1; stroke-width: 2.8; stroke-linejoin: miter"/>
   </g>
   <g id="patch_33">
    <path d="M 1012.5 905.598947 
L 1265.241176 905.598947 
Q 1272.134118 905.598947 1272.134118 899.431579 
L 1272.134118 817.2 
Q 1272.134118 811.032632 1265.241176 811.032632 
L 1012.5 811.032632 
Q 1005.607059 811.032632 1005.607059 817.2 
L 1005.607059 899.431579 
Q 1005.607059 905.598947 1012.5 905.598947 
z
" clip-path="url(#pbb059efb43)" style="fill: #1565c0; stroke: #0d47a1; stroke-width: 2.8; stroke-linejoin: miter"/>
   </g>
   <g id="patch_34">
    <path d="M 740.375013 1253.324783 
L 993.11619 1253.324783 
Q 1000.009131 1253.324783 1000.009131 1247.157415 
L 1000.009131 1164.925836 
Q 1000.009131 1158.758467 993.11619 1158.758467 
L 740.375013 1158.758467 
Q 733.482072 1158.758467 733.482072 1164.925836 
L 733.482072 1247.157415 
Q 733.482072 1253.324783 740.375013 1253.324783 
z
" clip-path="url(#pbb059efb43)" style="fill: #1565c0; stroke: #0d47a1; stroke-width: 2.8; stroke-linejoin: miter"/>
   </g>
   <g id="text_30">
    <!-- STRUCTURE -->
    <g style="fill: #ffffff" transform="translate(800.089351 516.108704) scale(0.2 -0.2)">
     <defs>
      <path id="DejaVuSans-Bold-52" d="M 2297 2597 
Q 2675 2597 2839 2737 
Q 3003 2878 3003 3200 
Q 3003 3519 2839 3656 
Q 2675 3794 2297 3794 
L 1791 3794 
L 1791 2597 
L 2297 2597 
z
M 1791 1766 
L 1791 0 
L 588 0 
L 588 4666 
L 2425 4666 
Q 3347 4666 3776 4356 
Q 4206 4047 4206 3378 
Q 4206 2916 3982 2619 
Q 3759 2322 3309 2181 
Q 3556 2125 3751 1926 
Q 3947 1728 4147 1325 
L 4800 0 
L 3519 0 
L 2950 1159 
Q 2778 1509 2601 1637 
Q 2425 1766 2131 1766 
L 1791 1766 
z
" transform="scale(0.015625)"/>
      <path id="DejaVuSans-Bold-45" d="M 588 4666 
L 3834 4666 
L 3834 3756 
L 1791 3756 
L 1791 2888 
L 3713 2888 
L 3713 1978 
L 1791 1978 
L 1791 909 
L 3903 909 
L 3903 0 
L 588 0 
L 588 4666 
z
" transform="scale(0.015625)"/>
     </defs>
     <use xlink:href="#DejaVuSans-Bold-53"/>
     <use xlink:href="#DejaVuSans-Bold-54" x="72.021484"/>
     <use xlink:href="#DejaVuSans-Bold-52" x="140.234375"/>
     <use xlink:href="#DejaVuSans-Bold-55" x="217.236328"/>
     <use xlink:href="#DejaVuSans-Bold-43" x="298.4375"/>
     <use xlink:href="#DejaVuSans-Bold-54" x="371.826172"/>
     <use xlink:href="#DejaVuSans-Bold-55" x="440.039062"/>
     <use xlink:href="#DejaVuSans-Bold-52" x="521.240234"/>
     <use xlink:href="#DejaVuSans-Bold-45" x="598.242188"/>
    </g>
   </g>
   <g id="text_31">
    <!-- REPRODUCTION -->
    <g style="fill: #ffffff" transform="translate(1049.634651 863.834539) scale(0.2 -0.2)">
     <defs>
      <path id="DejaVuSans-Bold-49" d="M 588 4666 
L 1791 4666 
L 1791 0 
L 588 0 
L 588 4666 
z
" transform="scale(0.015625)"/>
     </defs>
     <use xlink:href="#DejaVuSans-Bold-52"/>
     <use xlink:href="#DejaVuSans-Bold-45" x="77.001953"/>
     <use xlink:href="#DejaVuSans-Bold-50" x="145.3125"/>
     <use xlink:href="#DejaVuSans-Bold-52" x="218.603516"/>
     <use xlink:href="#DejaVuSans-Bold-4f" x="295.605469"/>
     <use xlink:href="#DejaVuSans-Bold-44" x="380.615234"/>
     <use xlink:href="#DejaVuSans-Bold-55" x="463.623047"/>
     <use xlink:href="#DejaVuSans-Bold-43" x="544.824219"/>
     <use xlink:href="#DejaVuSans-Bold-54" x="618.212891"/>
     <use xlink:href="#DejaVuSans-Bold-49" x="686.425781"/>
     <use xlink:href="#DejaVuSans-Bold-4f" x="723.632812"/>
     <use xlink:href="#DejaVuSans-Bold-4e" x="808.642578"/>
    </g>
   </g>
   <g id="patch_35">
    <path d="M 995.037882 858.315789 
Q 1066.954235 788.418947 1138.870588 817.2 
" clip-path="url(#pbb059efb43)" style="fill: none; opacity: 0.95; stroke-dasharray: 11.84,5.12; stroke-dashoffset: 0; stroke: #2e7d32; stroke-width: 3.2; stroke-linejoin: miter"/>
   </g>
   <g id="text_32">
    <!-- HABITAT -->
    <g style="fill: #ffffff" transform="translate(819.462789 1211.560375) scale(0.2 -0.2)">
     <defs>
      <path id="DejaVuSans-Bold-48" d="M 588 4666 
L 1791 4666 
L 1791 2888 
L 3566 2888 
L 3566 4666 
L 4769 4666 
L 4769 0 
L 3566 0 
L 3566 1978 
L 1791 1978 
L 1791 0 
L 588 0 
L 588 4666 
z
" transform="scale(0.015625)"/>
      <path id="DejaVuSans-Bold-42" d="M 2456 2859 
Q 2741 2859 2887 2984 
Q 3034 3109 3034 3353 
Q 3034 3594 2887 3720 
Q 2741 3847 2456 3847 
L 1791 3847 
L 1791 2859 
L 2456 2859 
z
M 2497 819 
Q 2859 819 3042 972 
Q 3225 1125 3225 1434 
Q 3225 1738 3044 1889 
Q 2863 2041 2497 2041 
L 1791 2041 
L 1791 819 
L 2497 819 
z
M 3616 2497 
Q 4003 2384 4215 2081 
Q 4428 1778 4428 1338 
Q 4428 663 3972 331 
Q 3516 0 2584 0 
L 588 0 
L 588 4666 
L 2394 4666 
Q 3366 4666 3802 4372 
Q 4238 4078 4238 3431 
Q 4238 3091 4078 2852 
Q 3919 2613 3616 2497 
z
" transform="scale(0.015625)"/>
     </defs>
     <use xlink:href="#DejaVuSans-Bold-48"/>
     <use xlink:href="#DejaVuSans-Bold-41" x="83.691406"/>
     <use xlink:href="#DejaVuSans-Bold-42" x="161.083984"/>
     <use xlink:href="#DejaVuSans-Bold-49" x="237.304688"/>
     <use xlink:href="#DejaVuSans-Bold-54" x="274.511719"/>
     <use xlink:href="#DejaVuSans-Bold-41" x="334.974609"/>
     <use xlink:href="#DejaVuSans-Bold-54" x="404.617188"/>
    </g>
   </g>
   <g id="patch_36">
    <path d="M 725.294118 961.105263 
C 796.831 961.105263 865.447548 950.274716 916.031763 930.998923 
C 966.615978 911.723131 995.037882 885.575877 995.037882 858.315789 
C 995.037882 831.055702 966.615978 804.908448 916.031763 785.632656 
C 865.447548 766.356863 796.831 755.526316 725.294118 755.526316 
C 653.757235 755.526316 585.140687 766.356863 534.556472 785.632656 
C 483.972258 804.908448 455.550353 831.055702 455.550353 858.315789 
C 455.550353 885.575877 483.972258 911.723131 534.556472 930.998923 
C 585.140687 950.274716 653.757235 961.105263 725.294118 961.105263 
z
" clip-path="url(#pbb059efb43)" style="fill: #c62828; stroke: #c62828; stroke-linejoin: miter"/>
   </g>
   <g id="text_33">
    <!-- chlorophyll- -->
    <g style="fill: #ffffff" transform="translate(624.871461 845.918832) scale(0.3 -0.3)">
     <use xlink:href="#DejaVuSans-Bold-63"/>
     <use xlink:href="#DejaVuSans-Bold-68" x="59.277344"/>
     <use xlink:href="#DejaVuSans-Bold-6c" x="130.46875"/>
     <use xlink:href="#DejaVuSans-Bold-6f" x="164.746094"/>
     <use xlink:href="#DejaVuSans-Bold-72" x="233.447266"/>
     <use xlink:href="#DejaVuSans-Bold-6f" x="282.763672"/>
     <use xlink:href="#DejaVuSans-Bold-70" x="351.464844"/>
     <use xlink:href="#DejaVuSans-Bold-68" x="423.046875"/>
     <use xlink:href="#DejaVuSans-Bold-79" x="494.238281"/>
     <use xlink:href="#DejaVuSans-Bold-6c" x="559.423828"/>
     <use xlink:href="#DejaVuSans-Bold-6c" x="593.701172"/>
     <use xlink:href="#DejaVuSans-Bold-2d" x="627.978516"/>
    </g>
   </g>
   <g id="text_34">
    <!-- containing -->
    <g style="fill: #ffffff" transform="translate(635.748805 866.476727) scale(0.3 -0.3)">
     <use xlink:href="#DejaVuSans-Bold-63"/>
     <use xlink:href="#DejaVuSans-Bold-6f" x="59.277344"/>
     <use xlink:href="#DejaVuSans-Bold-6e" x="127.978516"/>
     <use xlink:href="#DejaVuSans-Bold-74" x="199.169922"/>
     <use xlink:href="#DejaVuSans-Bold-61" x="246.972656"/>
     <use xlink:href="#DejaVuSans-Bold-69" x="314.453125"/>
     <use xlink:href="#DejaVuSans-Bold-6e" x="348.730469"/>
     <use xlink:href="#DejaVuSans-Bold-69" x="419.921875"/>
     <use xlink:href="#DejaVuSans-Bold-6e" x="454.199219"/>
     <use xlink:href="#DejaVuSans-Bold-67" x="525.390625"/>
    </g>
   </g>
   <g id="text_35">
    <!-- organisms -->
    <g style="fill: #ffffff" transform="translate(637.42693 887.034622) scale(0.3 -0.3)">
     <use xlink:href="#DejaVuSans-Bold-6f"/>
     <use xlink:href="#DejaVuSans-Bold-72" x="68.701172"/>
     <use xlink:href="#DejaVuSans-Bold-67" x="118.017578"/>
     <use xlink:href="#DejaVuSans-Bold-61" x="189.599609"/>
     <use xlink:href="#DejaVuSans-Bold-6e" x="257.080078"/>
     <use xlink:href="#DejaVuSans-Bold-69" x="328.271484"/>
     <use xlink:href="#DejaVuSans-Bold-73" x="362.548828"/>
     <use xlink:href="#DejaVuSans-Bold-6d" x="422.070312"/>
     <use xlink:href="#DejaVuSans-Bold-73" x="526.269531"/>
    </g>
   </g>
   <g id="text_36">
    <!-- CONCEPT MAP: CHLOROPHYLL-CONTAINING ORGANISMS -->
    <g transform="translate(214.481406 108.159309) scale(0.38 -0.38)">
     <defs>
      <path id="DejaVuSans-Bold-3a" d="M 716 3500 
L 1844 3500 
L 1844 2291 
L 716 2291 
L 716 3500 
z
M 716 1209 
L 1844 1209 
L 1844 0 
L 716 0 
L 716 1209 
z
" transform="scale(0.015625)"/>
      <path id="DejaVuSans-Bold-4c" d="M 588 4666 
L 1791 4666 
L 1791 909 
L 3903 909 
L 3903 0 
L 588 0 
L 588 4666 
z
" transform="scale(0.015625)"/>
     </defs>
     <use xlink:href="#DejaVuSans-Bold-43"/>
     <use xlink:href="#DejaVuSans-Bold-4f" x="73.388672"/>
     <use xlink:href="#DejaVuSans-Bold-4e" x="158.398438"/>
     <use xlink:href="#DejaVuSans-Bold-43" x="242.089844"/>
     <use xlink:href="#DejaVuSans-Bold-45" x="315.478516"/>
     <use xlink:href="#DejaVuSans-Bold-50" x="383.789062"/>
     <use xlink:href="#DejaVuSans-Bold-54" x="457.080078"/>
     <use xlink:href="#DejaVuSans-Bold-20" x="525.292969"/>
     <use xlink:href="#DejaVuSans-Bold-4d" x="560.107422"/>
     <use xlink:href="#DejaVuSans-Bold-41" x="659.619141"/>
     <use xlink:href="#DejaVuSans-Bold-50" x="737.011719"/>
     <use xlink:href="#DejaVuSans-Bold-3a" x="810.302734"/>
     <use xlink:href="#DejaVuSans-Bold-20" x="850.292969"/>
     <use xlink:href="#DejaVuSans-Bold-43" x="885.107422"/>
     <use xlink:href="#DejaVuSans-Bold-48" x="958.496094"/>
     <use xlink:href="#DejaVuSans-Bold-4c" x="1042.1875"/>
     <use xlink:href="#DejaVuSans-Bold-4f" x="1102.283203"/>
     <use xlink:href="#DejaVuSans-Bold-52" x="1187.292969"/>
     <use xlink:href="#DejaVuSans-Bold-4f" x="1264.294922"/>
     <use xlink:href="#DejaVuSans-Bold-50" x="1349.304688"/>
     <use xlink:href="#DejaVuSans-Bold-48" x="1422.595703"/>
     <use xlink:href="#DejaVuSans-Bold-59" x="1506.287109"/>
     <use xlink:href="#DejaVuSans-Bold-4c" x="1578.699219"/>
     <use xlink:href="#DejaVuSans-Bold-4c" x="1642.419922"/>
     <use xlink:href="#DejaVuSans-Bold-2d" x="1706.140625"/>
     <use xlink:href="#DejaVuSans-Bold-43" x="1747.644531"/>
     <use xlink:href="#DejaVuSans-Bold-4f" x="1821.033203"/>
     <use xlink:href="#DejaVuSans-Bold-4e" x="1906.042969"/>
     <use xlink:href="#DejaVuSans-Bold-54" x="1989.734375"/>
     <use xlink:href="#DejaVuSans-Bold-41" x="2050.197266"/>
     <use xlink:href="#DejaVuSans-Bold-49" x="2127.589844"/>
     <use xlink:href="#DejaVuSans-Bold-4e" x="2164.796875"/>
     <use xlink:href="#DejaVuSans-Bold-49" x="2248.488281"/>
     <use xlink:href="#DejaVuSans-Bold-4e" x="2285.695312"/>
     <use xlink:href="#DejaVuSans-Bold-47" x="2369.386719"/>
     <use xlink:href="#DejaVuSans-Bold-20" x="2451.466797"/>
     <use xlink:href="#DejaVuSans-Bold-4f" x="2486.28125"/>
     <use xlink:href="#DejaVuSans-Bold-52" x="2571.291016"/>
     <use xlink:href="#DejaVuSans-Bold-47" x="2648.292969"/>
     <use xlink:href="#DejaVuSans-Bold-41" x="2730.373047"/>
     <use xlink:href="#DejaVuSans-Bold-4e" x="2807.765625"/>
     <use xlink:href="#DejaVuSans-Bold-49" x="2891.457031"/>
     <use xlink:href="#DejaVuSans-Bold-53" x="2928.664062"/>
     <use xlink:href="#DejaVuSans-Bold-4d" x="3000.685547"/>
     <use xlink:href="#DejaVuSans-Bold-53" x="3100.197266"/>
    </g>
   </g>
   <g id="line2d_7">
    <path d="M 265.764706 122.343158 
L 1368.635294 122.343158 
" clip-path="url(#pbb059efb43)" style="fill: none; stroke: #000000; stroke-width: 3; stroke-linecap: square"/>
   </g>
  </g>
 </g>
 <defs>
  <clipPath id="pbb059efb43">
   <rect x="36" y="36" width="1562.4" height="1562.4"/>
  </clipPath>
 </defs>
</svg>
